<svg xmlns="http://www.w3.org/2000/svg" width="469.868" height="276.032"><path data-name="18cdf7dd297c49d449282cfc4d7f5e66" d="M454.348 273.349l-.207-.456.171.954zM9.262 275.47l-.037.5.852.063-.362-.774zM.368.47L.539 0 0 .808zm465.962 5.3l.144.479-.124-.979zm-11.776 268.034a2.814 2.814 0 00.462-.256 1.217 1.217 0 00.347-.356.745.745 0 00.085-.583.884.884 0 00-.3-.44 2.815 2.815 0 00-.944-.453 12.912 12.912 0 00-1.478-.348 107.761 107.761 0 00-11.758-1.098c-10.833-.6-27.393-.959-47.815-1.128-40.848-.34-97.176.073-154.105.816s-114.462 1.814-157.721 2.79c-21.629.488-39.691.952-52.325 1.34-6.317.194-11.278.368-14.651.517-1.686.074-2.978.142-3.846.2-.432.031-.767.06-.994.088a2.955 2.955 0 00-.292.048.769.769 0 00-.167.059.959.959 0 00-.18.148.854.854 0 00-.059.527l.906-.424a.848.848 0 01-.056.509.883.883 0 01-.156.131c-.044.022-.073.027-.055.023a1.756 1.756 0 01.182-.029c.2-.024.513-.052.941-.082.854-.06 2.136-.128 3.82-.2 3.366-.149 8.322-.323 14.637-.517 12.63-.387 30.689-.851 52.317-1.339 43.256-.976 100.786-2.048 157.712-2.79s113.247-1.156 154.083-.817c20.421.17 36.961.528 47.769 1.127a106.683 106.683 0 0111.637 1.08 11.909 11.909 0 011.36.318 1.989 1.989 0 01.6.264c.029.026-.005.008-.024-.061a.26.26 0 01.02-.192c.01-.017 0 0-.063.05a1.889 1.889 0 01-.3.162zM9.299 274.97a1.185 1.185 0 01-.829-.6 7.018 7.018 0 01-.888-2.018 42.045 42.045 0 01-1.261-7.963c-.59-6.894-.693-16.733-.5-28.616.4-23.762 1.994-55.619 3.278-88.289s2.251-66.13 1.383-93.085c-.434-13.477-1.326-25.34-2.872-34.667a76.253 76.253 0 00-2.84-12A21.715 21.715 0 00.736.132l-.737.676a20.765 20.765 0 013.83 7.247 75.278 75.278 0 012.8 11.842c1.539 9.264 2.426 21.073 2.859 34.536.866 26.916-.1 60.352-1.383 93.013s-2.882 64.535-3.278 88.313c-.2 11.887-.1 21.769.5 28.718a42.971 42.971 0 001.3 8.166 7.979 7.979 0 001.033 2.312 2.162 2.162 0 001.565 1.015zM.197.94a44.973 44.973 0 008.931 1.477c4.361.438 10.067.829 16.923 1.18 13.714.7 32.05 1.239 53.468 1.649 42.838.819 98.021 1.124 153.249 1.195 110.474.141 221.1-.659 233.543-.172l.039-1c-12.469-.488-123.143.312-233.58.171-55.228-.07-110.402-.375-153.231-1.194-21.415-.409-39.738-.947-53.436-1.648-6.85-.35-12.535-.741-16.875-1.176A44.447 44.447 0 01.539 0zm465.99 4.35a2.87 2.87 0 00-1.564 1.4 10.791 10.791 0 00-1.044 2.737 52.272 52.272 0 00-1.225 9.218c-.5 7.717-.409 18.473.017 31.222.851 25.5 3.057 59.053 4.662 92.356 1.606 33.319 2.611 66.391 1.067 90.974-.773 12.3-2.182 22.431-4.455 29.4a22.275 22.275 0 01-4.03 7.874 6.222 6.222 0 01-5.231 2.381l-.072 1a7.214 7.214 0 006.048-2.711 23.237 23.237 0 004.236-8.23c2.314-7.094 3.728-17.332 4.5-29.648 1.548-24.644.54-57.767-1.066-91.084-1.606-33.333-3.811-66.852-4.662-92.341-.426-12.744-.512-23.459-.019-31.124a51.455 51.455 0 011.2-9.031 9.838 9.838 0 01.936-2.478 1.91 1.91 0 01.991-.951z" fill="#ff8073"/></svg>