<svg xmlns="http://www.w3.org/2000/svg" width="179.06" height="40.274"><g data-name="Group 1673" fill="#fff"><path data-name="500px-1" d="M102.399 12.09a14.167 14.167 0 00-10.73 2.843V4.261h18.09c.617 0 1.065-.1 1.065-1.973 0-1.81-.747-1.87-1.194-1.87H89.596a1.8 1.8 0 00-1.779 1.97v17.515c0 .9.584 1.226 1.681 1.454a1.821 1.821 0 001.908-.389l.033-.065c1.908-2.745 6.042-5.4 10.019-4.945a10.318 10.318 0 018.981 8.916 10.168 10.168 0 01-10.11 11.343 10.35 10.35 0 01-9.566-6.756c-.227-.584-.617-1.032-2.3-.422-1.548.553-1.645 1.231-1.419 1.815a14.114 14.114 0 1015.348-18.761zM20.13 0a20.133 20.133 0 1020.136 20.134A20.132 20.132 0 0020.13 0zm0 35.971a15.835 15.835 0 1115.834-15.834A15.835 15.835 0 0120.13 35.971zM63.694 0a20.137 20.137 0 1020.137 20.137A20.137 20.137 0 0063.694 0zm0 35.971a15.835 15.835 0 1115.835-15.835 15.835 15.835 0 01-15.835 15.835zM133.566.211a14.365 14.365 0 00-12.909 14.462v23.919c0 1.379 1.04 1.682 2.635 1.682s2.635-.3 2.635-1.682V14.627a9.147 9.147 0 017.807-9.241 8.675 8.675 0 016.823 2.245 8.831 8.831 0 012.9 6.558 9.909 9.909 0 01-1.942 5.228 8.934 8.934 0 01-7.6 3.58h-.088c-1.04 0-1.942.043-2.115 2.5-.13 1.682-.088 2.418 1.335 2.592a12.675 12.675 0 007.767-1.509 14.172 14.172 0 007.724-11.4A13.927 13.927 0 00133.552.19zm35.233 14.024l9.749-9.76c.351-.351 1.162-1.162-.476-2.938a3.071 3.071 0 00-1.938-1.116 1.49 1.49 0 00-1.076.52l-9.8 9.8-9.764-9.838c-.781-.781-1.718-.608-2.9.608-1.2 1.2-1.422 2.16-.608 2.938l9.754 9.836-9.583 9.594-.088.088a1.581 1.581 0 00-.608 1.118 3.192 3.192 0 001.118 1.987 2.665 2.665 0 001.813.954 1.571 1.571 0 001.249-.65l9.583-9.583 9.837 9.8a1.47 1.47 0 001.04.39 2.908 2.908 0 001.942-1.075c1.118-1.162 1.286-2.115.563-2.853z"/><circle data-name="Ellipse 413" cx="3.506" cy="3.506" transform="translate(60.073 16.362)" r="3.506"/><circle data-name="Ellipse 415" cx="3.506" cy="3.506" transform="translate(96.302 22.205)" r="3.506"/><circle data-name="Ellipse 414" cx="3.506" cy="3.506" transform="translate(16.83 16.362)" r="3.506"/></g></svg>