<svg xmlns="http://www.w3.org/2000/svg" width="131.597" height="41.723"><g data-name="Group 1675"><g data-name="netflix-2 (1)"><path data-name="Path 6" d="M53.568 36.4q3.248-.117 6.5-.2V5.978h6.077V0H47.491v5.978h6.077V36.4z" fill="#fff"/></g><g data-name="netflix-2 (1)"><path data-name="Path 6" d="M16.981 6.545V0H0v41.723q8.474-.73 16.968-1.227V33.95q-4.924.286-9.828.658V24.137h8.543v-6.545H7.141V6.545z" fill="#fff"/></g><g data-name="netflix-2 (1)"><path data-name="Path 6" d="M72.139 36.376c1.771 0 3.538.013 5.3.028V22.246h7.871v-6.028h-7.868V6.033h9.071V0H70.865v36.381c.425 0 .85-.006 1.279 0" fill="#fff"/></g><path data-name="Path 6" d="M97.114 30.051V0h-6.382v35.63q7.615.28 15.178.773v-5.857q-4.387-.284-8.792-.5M110.601 36.441q3 .291 5.986.617l4.4-10.861 4.18 11.862q3.217.4 6.428.845l-7.329-20.8L131.601 0h-6.208l-.062.089-3.961 9.784L117.886 0h-6.128l6.33 17.963z" fill="#fff"/><g data-name="netflix-2 (1)"><path data-name="Path 6" d="M27.834 39.28v-22.1l7.473 21.2q3.448-.387 6.908-.73V0h-6.06v22.888L28.091 0H21.78v40.074h.037q3-.415 6.016-.795" fill="#fff"/></g></g></svg>