<svg xmlns="http://www.w3.org/2000/svg" width="163.656" height="41.489"><g data-name="Group 1676"><g data-name="shutterstock (1)" fill="#fff"><path data-name="Path 9" d="M130.977 22.52c-.43-.074-1.878-.316-2.3-.394-2.288-.41-4.251-.947-4.251-3.249 0-1.977 2.073-2.9 4.653-2.9a17.953 17.953 0 017.588 1.931l2.1-5.55a20.279 20.279 0 00-9.627-2.25c-4.941 0-10.974 2.593-10.974 9.047 0 5.776 4.128 7.629 8.1 8.328.549.1 2.277.4 2.77.482 2.675.452 4.145 1.448 4.145 3.2 0 2.221-2.086 3.263-5.246 3.263a20.548 20.548 0 01-8.882-1.861l-2.33 5.431c.725.373 4.178 2.321 10.917 2.321 6.545 0 11.785-3.238 11.785-9.268-.048-5.61-3.822-7.738-8.45-8.532M150.944 0l-6.187 3.423v7.246h-3.262v5.918h3.258v12.8c0 5.467 2.245 10.375 10.168 10.375h2.479v-5.927h-.928c-3.9 0-5.533-2.247-5.533-5.3V16.59h7.108v-5.914h-7.107z"/><path data-name="Path 11" d="M159.578 1.323v.654h-1.212v3.348h-.657V1.977h-1.214v-.654zm1.052 4h-.65v-4h.73l1.1 2.6 1.113-2.6h.732v4h-.661V3.49l.124-1.086h-.062l-.338.945-.654 1.421h-.508l-.66-1.421-.334-.961h-.054l.117 1.106z"/></g><g data-name="shutterstock (1)"><path data-name="Path 9" d="M42.156 23.688c-.43-.074-1.878-.316-2.3-.394-2.288-.41-4.251-.947-4.251-3.249 0-1.977 2.073-2.9 4.653-2.9a17.953 17.953 0 017.588 1.931l2.1-5.55a20.279 20.279 0 00-9.627-2.25c-4.941 0-10.974 2.593-10.974 9.047 0 5.776 4.128 7.629 8.1 8.328.549.1 2.277.4 2.77.482 2.675.452 4.145 1.448 4.145 3.2 0 2.221-2.086 3.263-5.246 3.263a20.548 20.548 0 01-8.882-1.861l-2.33 5.431c.725.373 4.178 2.321 10.917 2.321 6.545 0 11.785-3.238 11.785-9.268-.048-5.61-3.822-7.738-8.45-8.532m10.518-11.852z" fill="#fff"/></g><path data-name="Path 10" d="M14.638 17.6H8.202a1.855 1.855 0 00-1.854 1.85v6.983H0v-6.982a8.2 8.2 0 018.205-8.2h6.428V17.6zM9.4 33.99h6.441a1.856 1.856 0 001.85-1.852v-6.981h6.348v6.981a8.2 8.2 0 01-8.2 8.2H9.398zM78.675 10.676h7.106v5.918h-7.106v11.938c0 3.053 1.636 5.3 5.527 5.3h.929v5.924h-2.485c-7.925 0-10.168-4.909-10.168-10.375V16.59H62.07v11.942c0 3.053 1.636 5.3 5.529 5.3h.926v5.924h-2.479c-7.921 0-10.168-4.909-10.168-10.375V16.59H52.74v-5.914h3.138v-7.25L62.072.003v10.673h10.414V3.428L78.68.005zM112.535 20.105c0-5.32-4.054-10-11.346-10-8.276 0-11.453 5.167-11.453 10v9.66c0 6.683 4.269 10.559 11.453 10.559 6.337 0 9.627-3.665 10.6-5.865l-5.225-3.14a5.793 5.793 0 01-5.337 3.106c-3.825 0-5.3-2.136-5.3-4.812l-.023-1.592h16.625zm-6.194 2.907H95.906v-2.12c0-2.361 1.186-4.892 5.251-4.892 3.917 0 5.184 2.466 5.184 4.778z" fill="#fff"/></g></svg>