<svg xmlns="http://www.w3.org/2000/svg" width="213.504" height="40.476"><g fill="#fff"><path data-name="Path 7" d="M27.332 4.071c-1.075-.6-4.155-.227-7.855.919C13.003 9.415 7.536 15.937 7.156 26.407c-.068.25-.707-.036-.836-.117a14.906 14.906 0 01-.982-11.971c.271-.455-.618-1.012-.777-.853a18.419 18.419 0 00-2.545 3.288 15.946 15.946 0 1027.867 15.508c4.958-8.877.355-26.569-2.551-28.191z"/><path data-name="Path 8" d="M54.873 8.335c-9.123 0-15.745 6.778-15.745 16.128 0 9.419 6.606 16 16.063 16a15.337 15.337 0 0011.57-4.567 3.389 3.389 0 00.995-2.263 2.571 2.571 0 00-2.689-2.63 3.088 3.088 0 00-2.2.995 10.565 10.565 0 01-7.667 3.21 9.505 9.505 0 01-9.653-8.882h20.594c2.239 0 3.327-1.052 3.327-3.2a11.944 11.944 0 00-.127-1.994c-1.109-8.014-6.517-12.795-14.469-12.795zm0 5c4.948 0 8.121 3.155 8.316 8.242H45.541a9.209 9.209 0 019.327-8.242zm34.272-5a11.19 11.19 0 00-9.849 5.692V11.98c0-3.168-2.454-3.327-2.946-3.327a2.94 2.94 0 00-3.009 3.327v24.7a3.155 3.155 0 106.276 0V23.442c0-5.762 3.264-9.787 7.939-9.787 4.528 0 6.731 2.97 6.731 9.084v13.944a3.155 3.155 0 106.279 0V20.768c0-6.011-3.006-12.433-11.421-12.433zm39.811.317a3.283 3.283 0 00-3.125 2.512l-8.592 21.6-8.524-21.601a3.333 3.333 0 00-3.192-2.512 3.078 3.078 0 00-3.139 3.009 4.373 4.373 0 00.392 1.778l9.869 23.3c1.169 2.8 3.108 3.4 4.525 3.4s3.351-.584 4.53-3.4l9.934-23.432a4.589 4.589 0 00.388-1.712 2.944 2.944 0 00-3.069-2.945zm18.249-.318a17.881 17.881 0 00-10.525 3.147 2.883 2.883 0 00-1.4 2.476 2.443 2.443 0 002.438 2.5 3.355 3.355 0 001.863-.66 12.331 12.331 0 017.055-2.329c4.64 0 7.3 2.36 7.3 6.475v.681c-10.418.013-21.011 1.268-21.011 10.331 0 6.521 5.575 9.442 11.1 9.442a11.7 11.7 0 0010.168-5.044v1.581a2.884 2.884 0 002.949 3.2 2.834 2.834 0 002.817-3.2V20.321c0-7.505-4.768-11.986-12.751-11.986zm5.41 16.913h1.321v1.446c0 5.29-3.369 8.706-8.578 8.706-1.414 0-6.031-.332-6.031-4.567.002-5.012 7.588-5.585 13.288-5.585zm23.686-10.888a2.533 2.533 0 002.883-2.571 2.558 2.558 0 00-2.883-2.628h-5.646V3.449a3.124 3.124 0 10-6.214 0v27.123c0 6.258 3.088 9.567 8.93 9.567a10.03 10.03 0 003.948-.713 2.818 2.818 0 001.738-2.487 2.422 2.422 0 00-2.5-2.5 4.463 4.463 0 00-1.12.2 5 5 0 01-1.3.186c-2.377 0-3.484-1.55-3.484-4.883V14.355h5.649zm20.753-6.02c-9.491 0-16.378 6.728-16.378 16a15.99 15.99 0 004.7 11.582 16.558 16.558 0 0011.687 4.546c9.374 0 16.444-6.934 16.444-16.128 0-9.27-6.919-16-16.446-16zm0 26.8c-6.509 0-9.914-5.436-9.914-10.807 0-7.38 5.142-10.739 9.914-10.739s9.914 3.359 9.914 10.739c0 7.42-5.142 10.8-9.915 10.8z"/></g></svg>