<svg xmlns="http://www.w3.org/2000/svg" width="156.541" height="35.308"><g data-name="Group 786" fill="#fff"><path d="M.007 23.24a11.656 11.656 0 003.343 8.575 11.656 11.656 0 008.521 3.477c6.394 0 10.4-3.542 11.5-8.74l-5.7-1.426c-.6 2.99-2.208 5.014-5.7 5.014-3.726 0-6.164-2.76-6.164-6.9s2.668-6.9 6.164-6.9 5.29 2.3 5.7 5.06l5.7-1.472c-1.2-5.2-5.152-8.74-11.5-8.74a11.656 11.656 0 00-8.521 3.477A11.656 11.656 0 00.007 23.24zm32.66-11.408h-5.7v22.816h5.8v-12.88c0-3.22 2.116-4.784 5.06-4.784h3.4V11.74h-2.22c-2.9 0-4.83.874-5.7 3.4h-.644zm9.43 11.224c0 7.084 4.922 12.236 11.73 12.236a11.3 11.3 0 0010.35-5.612l-4.738-2.76a5.986 5.986 0 01-5.7 3.4 5.552 5.552 0 01-5.7-5.382h16.594v-2.25c0-6.854-4.462-11.5-11.086-11.5-6.716 0-11.454 4.968-11.454 11.868zm5.98-2.162c.46-2.806 2.162-4.738 5.428-4.738 2.99 0 4.83 1.84 5.244 4.738zm19.412-3.818l4.692 3.036c1.426-2.392 3.312-3.956 6.348-3.956 3.128 0 4.784 1.7 4.784 3.864v.552l-8.74.966c-4.37.46-7.544 2.99-7.544 6.624 0 4.37 3.4 7.13 8.556 7.13 4.83 0 6.44-2.346 7.176-3.864h.646v3.22h5.7V20.066c0-5.336-4.048-8.878-10.258-8.878-5.566 0-8.648 2.484-11.362 5.888zm5.608 10.764c0-1.334 1.058-2.116 3.22-2.392l6.992-.828v.368c0 3.128-2.254 5.52-6.3 5.52-2.578 0-3.912-1.104-3.912-2.668zM93.981 2.448v32.2h5.7v-3.22h.644a7.852 7.852 0 007.272 3.864c5.7 0 10.488-5.06 10.488-12.052s-4.784-12.052-10.488-12.052a7.852 7.852 0 00-7.268 3.864h-.552V2.448zm12.052 13.892c3.5 0 6.256 2.484 6.256 6.9s-2.76 6.9-6.256 6.9c-3.588 0-6.256-2.576-6.256-6.9s2.668-6.9 6.256-6.9zm14.628-11.132a3.9 3.9 0 001.189 2.865 3.9 3.9 0 002.9 1.091 3.9 3.9 0 002.9-1.091 3.9 3.9 0 001.189-2.865 3.9 3.9 0 00-1.189-2.865 3.9 3.9 0 00-2.9-1.091 3.9 3.9 0 00-2.9 1.091 3.9 3.9 0 00-1.189 2.865zm6.992 6.624h-5.8v22.816h5.8zm28.888 0h-8.1l-9.288 7.816h-.552v-17.2h-5.794v32.2h5.8v-7.866l3.5-2.9 7.35 10.766h6.716l-9.982-14.214z"/><path data-name="Path 16204" d="M84.005 9.128a4.562 4.562 0 114.562-4.562v4.562zM69.275.004a4.562 4.562 0 110 9.124H57.839a4.555 4.555 0 01-3.228-1.338 4.555 4.555 0 01-1.334-3.228 4.556 4.556 0 011.334-3.228A4.556 4.556 0 0157.839 0z" fill-rule="evenodd"/></g></svg>