<svg xmlns="http://www.w3.org/2000/svg" width="185.391" height="38.574"><g data-name="Group 1674" style="isolation:isolate"><g data-name="amazon-2 (2)"><path data-name="Path 5" d="M46.617.31c9.964 0 15.366 8.519 15.366 19.4 0 10.5-5.938 18.864-15.366 18.864-9.736 0-15.06-8.519-15.06-19.167C31.48 8.676 36.881.31 46.617.31zm0 7.068c-4.948 0-5.249 6.77-5.249 10.953s-.076 13.158 5.173 13.158c5.173 0 5.477-7.227 5.477-11.638a33.286 33.286 0 00-.99-9.129 4.207 4.207 0 00-4.412-3.346z" fill="#fff" fill-rule="evenodd"/></g><g data-name="amazon-2 (2)"><path data-name="Path 5" d="M86.47 21.374c0 2.585.076 4.792-1.217 7.15a5.383 5.383 0 01-4.64 3.039c-2.585 0-4.107-1.98-4.107-4.869 0-5.7 5.09-6.77 9.964-6.77zm6.694 16.354a1.375 1.375 0 01-1.6.153 16.8 16.8 0 01-3.879-4.487c-3.651 3.727-6.311 4.869-11.027 4.869-5.63 0-10.037-3.5-10.037-10.42a11.385 11.385 0 017.15-10.953c3.651-1.6 8.748-1.9 12.622-2.358v-.837c0-1.6.153-3.5-.837-4.869a4.5 4.5 0 00-3.727-1.753 5.065 5.065 0 00-5.4 4.032c-.153.608-.533 1.217-1.141 1.217l-6.465-.684a1.169 1.169 0 01-.99-1.369C69.352 2.352 76.433 0 82.818 0c3.272 0 7.531.837 10.116 3.346 3.272 3.039 2.969 7.15 2.969 11.561v10.42c0 3.118 1.294 4.487 2.51 6.237.457.608.533 1.37 0 1.753-1.444 1.141-3.879 3.272-5.249 4.412z" fill="#fff" fill-rule="evenodd"/></g><g data-name="amazon-2 (2)"><path data-name="Path 5" d="M148.154 37.81h-6.694a1.374 1.374 0 01-1.217-1.141V2.289a1.273 1.273 0 011.294-1.217h6.237a1.24 1.24 0 011.217 1.141V6.7h.153a8.863 8.863 0 018.823-6.39c4.183 0 6.845 2.055 8.672 6.39a9.533 9.533 0 019.28-6.39 9.429 9.429 0 017.758 3.8c2.131 2.891 1.674 7.068 1.674 10.8v21.754a1.273 1.273 0 01-1.294 1.218h-6.617a1.307 1.307 0 01-1.217-1.218v-18.25a45.608 45.608 0 00-.153-6.465 3.534 3.534 0 00-3.958-2.968 4.478 4.478 0 00-4.032 2.814 21.076 21.076 0 00-.608 6.617v18.255a1.273 1.273 0 01-1.294 1.217h-6.696a1.307 1.307 0 01-1.217-1.217V18.414c0-3.8.608-9.509-4.107-9.509-4.792 0-4.64 5.477-4.64 9.509v18.255a1.336 1.336 0 01-1.369 1.141z" fill="#fff" fill-rule="evenodd"/></g><g data-name="amazon-2 (2)"><path data-name="Path 5" d="M1.377 6.794v-5.2A1.218 1.218 0 012.663.308h23.184a1.338 1.338 0 011.36 1.286v4.4c0 .72-.639 1.679-1.76 3.279l-12 17.116a26.062 26.062 0 0113.2 2.8 2.378 2.378 0 011.2 2v5.52c0 .8-.8 1.679-1.679 1.2a26.459 26.459 0 00-24.474.081 1.256 1.256 0 01-1.679-1.2v-5.279a5.978 5.978 0 01.88-3.519L14.809 8.067H2.731a1.338 1.338 0 01-1.36-1.286z" fill="#fff" fill-rule="evenodd"/></g><g data-name="amazon-2 (2)"><path data-name="Path 5" d="M119.076.31c9.964 0 15.366 8.519 15.366 19.4 0 10.5-5.938 18.864-15.366 18.864-9.736 0-15.06-8.519-15.06-19.167C103.939 8.676 109.34.31 119.076.31zm0 7.068c-4.948 0-5.249 6.77-5.249 10.953s-.076 13.158 5.173 13.158c5.173 0 5.477-7.227 5.477-11.638a33.286 33.286 0 00-.99-9.129 4.207 4.207 0 00-4.412-3.346z" fill="#fff" fill-rule="evenodd"/></g></g></svg>