<svg xmlns="http://www.w3.org/2000/svg" width="1945.01" height="44.603"><path data-name="Path 16217" d="M.039 44.607L.422 9.662a13.2 13.2 0 01-.383-4.327c5.105.268 10.287.5 15.431.74l11.372.549 3.829.153q15.316.689 30.632 1.276c9.428-5.846 18.94-1.446 28.5 1.273l1.276.319h.217c5.258 1.353 10.542 1.991 15.826-.089 1.966-.166 3.918-.408 5.884-.689l3.714-.574h.23l1.787-.243c9.317-1.544 18.66-3.114 27.964-.434a34.333 34.333 0 016.586 2.706c.83-.4 1.659-.74 2.553-1.072l.944-.345 1.481-.485a35.556 35.556 0 013.05-.8h.166a40.446 40.446 0 016.828-.83h4.429l1.276.077 1.276.115 1.557.153 1.889.23 1.034.14 1.672.255.855.14 2.553.434c4.748.855 9.47 1.851 14.18 2.553 6.382 0 12.648-.306 18.9-.5h.077c2.629-.089 5.246-.14 7.849-.115 2.629 0 5.258.115 7.875.319a71.934 71.934 0 019.7 1.378c4.02.332 8.079.613 12.138.753q2.029.077 4.059.089h5.284c1.047 0 2.08-.1 3.14-.179l1.174-.077c1.4-.115 2.808-.255 4.212-.447a15.918 15.918 0 011.953-.523h.089a24.441 24.441 0 018.756.14c3.306.549 6.624 1.391 9.943 1.7.587 0 1.161.089 1.749.1h2.182a9.407 9.407 0 001.583-.191h.281a16.593 16.593 0 001.672-.4l.37-.115a16.056 16.056 0 001.7-.638h3.915c1.276 0 2.553-.089 3.829-.166 8.641-.485 17.294-1.557 26.024.089l9.343.217q20.727.536 41.3 1.468l2.412.115q23.969 1.085 47.8 2.438l20.842 1.149 14.895.8 14.346.766c4.071.306 8.117.625 12.138.881l4.722.268c4.276.2 8.526.319 12.763.23 18.864-.459 37.6-2.642 56.3-.957h.153c1.468.128 2.935.281 4.4.472 1.774-.166 3.535-.281 5.3-.408q4.033-.281 8.066-.447 5.463-.2 10.925-.242h9.842q5.105 0 10.211.166h.268l7.964.153 7.786.115c1.276.191 2.655.332 3.969.434l1.4.077c.855 0 1.71.1 2.553.115h3.969l1.9-.077 2.042-.1 2.119-.2 1.787-.14 2.451-.217 1.276-.128c6.969-.689 13.95-1.583 20.944-1.7h5.335c1.021 0 2.042.115 3.076.217l.893.1c.855.089 1.723.2 2.553.332l1.008.153a52.31 52.31 0 013.37.676c11.078-.983 22.2-1.532 33.35-1.4h1.391a234.839 234.839 0 0126.685 1.762h20.983q1.889 0 3.829.128h1.366c1.608.089 3.229.191 4.85.345 1.174-.115 2.361-.2 3.535-.281h1.11l2.476-.089h4.85l3.331.1 1.557.14 1.889.115 1.825.128 1.544.128 2 .166c2.4.217 4.8.472 7.2.74.574-.14 1.149-.243 1.723-.357 1.034-.2 2.055-.37 3.089-.5 1.021-.115 2.042-.2 3.063-.255a101.428 101.428 0 0114.678.766 77.777 77.777 0 0110.708 1.621c3.357.727 6.7 1.583 10.032 2.438a140.619 140.619 0 0015.693 3.382l.7.1c2.987-.294 6.382-.523 10.006-.651q2.106-.077 4.3-.077h.5c3.012 0 6.088 0 9.138.255a70.427 70.427 0 0119.874 3.673 12.909 12.909 0 001.429.255h.357a11.489 11.489 0 001.2 0h.306a10.505 10.505 0 001.276-.128h.255a10.1 10.1 0 001.11-.255h.166a11.968 11.968 0 001.276-.447h.115c.383-.166.753-.357 1.136-.549h.1a20.228 20.228 0 002.387-1.583c2.463-1.876 4.761-4.327 7.237-6.624a39.226 39.226 0 014.084-3.344 17.868 17.868 0 016.662-3c-2.655-3.523 1.455-4.378 8.322-4.531h20.191l1.914-.089 1.353-.089 2.042-.166 1.11-.1a63.5 63.5 0 003.038-.4l.664.153c11.346 2.719 22.974 2.3 34.792 1.276 3.229-.294 6.471-.638 9.713-.97 2.9-.306 5.807-.613 8.717-.881.562.306 1.11.587 1.659.855s.855.383 1.276.562l.357.153c.511.2 1.034.4 1.544.562h.077c.536.179 1.085.345 1.621.485a30.159 30.159 0 006.088.944c8.194.447 16.375-2.093 24.505-3.829l1.072-.217 1.059-.2 2.029-.345.74-.1 1.761-.23h.562a41.002 41.002 0 012.208-.166h2.974a22.389 22.389 0 012.272.14h.549c.779.089 1.544.191 2.323.345a8.569 8.569 0 001.021.472l.332.14a11.116 11.116 0 006.381 0 57.061 57.061 0 016.637-1.557h.077a10.3 10.3 0 012.233 0h.179a7.938 7.938 0 011.047.217h.192a7.974 7.974 0 011.072.408 9.615 9.615 0 001.008 1.021c3.229 2.9 6.382 1.468 9.649 0l.83-.37.2-.089.766-.319h.1l.817-.294h.191a6.277 6.277 0 01.8-.217h.166a8.367 8.367 0 01.83-.14 6.24 6.24 0 01.842 0h.319a5.3 5.3 0 01.83.115h.153a5.4 5.4 0 01.855.281 14.1 14.1 0 011.442-.562l.472-.14c.332-.089.651-.191.97-.255l.536-.1.932-.153h3.344l1.276.089h.089c4.186.408 8.347 1.634 12.469 1.429a15.9 15.9 0 002.412-.281c7.122-1.085 14.244.676 21.34 2.438 1.953.485 3.905.957 5.833 1.378a62.075 62.075 0 006.228 1.059h.37a27.543 27.543 0 0018.609-4.11l.243-.089q1.646-.651 3.293-1.187h.192a58.562 58.562 0 013.152-.906h.1a52.336 52.336 0 016.573-1.276 62.285 62.285 0 0118.851.753l.357.077q1.519.281 3.025.625l.319.077q1.557.357 3.1.779h.14c1.1.294 2.182.613 3.28.944 1.659.511 3.318 1.047 4.978 1.621l3.14 1.136c.8-.115 1.608-.2 2.425-.268l1.787-.14c15.073-.957 29.751 4.084 43.892 4.2a65.182 65.182 0 0110.887 4.493l1.838.868c4.582 2.157 9.215 4.135 13.312 4.327 5.565.255 11.168.753 16.8 0 .574-.077 1.161-.153 1.749-.255l.5-.089 1.276-.255.587-.128 1.276-.332.536-.153q.881-.268 1.761-.574a29.7 29.7 0 013.012.1h.549c5.322.255 10.67.766 16.031.6h.064c.919 0 1.838-.077 2.77-.153s1.608-.128 2.412-.242h19.367c1.889 0 3.829 0 5.679-.128.664-.1 1.276-.23 2-.37l.625-.14 1.366-.319c4.607-1.123 9.215-2.553 13.823-2.246a15.227 15.227 0 017.211 2.451c5.437-3.829 9.943-4.1 14.7-4.9l1.748-.319h.153a26.386 26.386 0 001.851-.434l.306-.089c.5-.14 1.008-.294 1.531-.472l.511-.179a21.262 21.262 0 001.914-.766 111.038 111.038 0 0030.121-1.863 166.7 166.7 0 0128.909-3.8c7.811-.357 15.647-.944 23.522-.281 1.915.166 3.829.383 5.743.715 5.833.345 11.691 1.8 17.549 2.042h1.48a31.54 31.54 0 003.893-.23l.689-.089.842-.14.906-.179.74-.179 1.072-.306.6-.179c.574-.191 1.123-.4 1.7-.625 2.336-.191 4.659-.345 7.007-.485l5.59-.319h.459c5.539-.294 11.079-.587 16.592-1.072h.511c1.812.191 3.625.281 5.45.306h3.829l2.642-.128 2.336-.153c3.74-.294 7.492-.74 11.244-1.136l3.714-.37c.715.089 1.43.128 2.144.179 9.189.74 18.392-.6 27.568.485 8.219 9.266 13.031 10.861 16.4 9.5a6.186 6.186 0 00.893-.459 7.376 7.376 0 00.8-.574c2.234-1.8 3.829-4.837 5.654-6.981 1.557-1.825 3.293-2.974 5.769-2.131a38.073 38.073 0 0111.346-.179c1.621.166 3.255.37 4.875.549l.906.1 1.11.115 1.978.166h4.952a13.757 13.757 0 001.429-.115l.677-.077c.689-.089 1.378-.2 2.08-.357a13.393 13.393 0 001.71.179h2.182a9.9 9.9 0 001.365-.14h.242a33.008 33.008 0 001.544-.268c2.17-.434 4.339-1.059 6.522-1.544l1.161-.242.408-.077 1.212-.191h.332c.434 0 .868-.089 1.276-.115h1.953a13.385 13.385 0 011.391.153h.281a12.761 12.761 0 011.417.345l.242.077a12.443 12.443 0 011.455.574l.166.077a14.226 14.226 0 011.544.868 21.14 21.14 0 011.71-.613l.549-.14c.4-.115.778-.217 1.174-.306l.625-.115a8.613 8.613 0 001.1-.191l.638-.077 1.1-.115h3.995l1.276.077h.319l1.583.128 3.076.306 2.081.2h.281l2.119.153h4.761a3.743 3.743 0 00.7.255h.179a3.646 3.646 0 00.536.077h.14a4.085 4.085 0 00.562 0h.077a5.478 5.478 0 00.638-.115c2.182-.523 4.186-2.131 6.011-.893a3.708 3.708 0 01.574.511c8.194-2.425 12.763-1.034 13.235-.472.625.077 1.276.128 1.838.153h2.629l-.714-.676-.153-.153a5.551 5.551 0 01-.625-.74 1.608 1.608 0 01-.2-1.749 2.218 2.218 0 01.447-.536 4.927 4.927 0 01.829-.587c.677-.319 5.029-.421 11.844-.4 3.408 0 7.428.357 11.921.574h.5a41.634 41.634 0 006.56-.179 13.3 13.3 0 007.658 0c2.629-3.637 5.348.319 8.13-1.557a2.552 2.552 0 00.485.23h.141l.357.089h.549a7.364 7.364 0 012.616.179 1.825 1.825 0 00.651.408c.766.281 1.519 0 2.285.408l.243.166h.064l.179.166.089.1.166.2.089.128.166.281.077.14c.089.153.166.332.255.523 2.872-1.021 5.795-1.863 8.73 0 2.936-2.029 5.909 1.736 8.87-.842 2.961 1.966 5.935 3.165 8.934 1.8h1.276c2.552.089 4.978.779 7.428 0h.1c2.259.1 4.429 4.122 6.6 7.2.294.421.6.817.893 1.2l.077.089a13.021 13.021 0 00.881 1c1.4.574 2.808-2.553 4.186-.14 1.378.817 2.744-.077 4.084-2.706 2.693 4.735 5.309-1.276 7.837.37a1.507 1.507 0 00.268.255h.064l.192.1h.625l.242-.14a3.916 3.916 0 00.83-.932c1.787-2.553 3.548-8.564 5.195-6.586a8.053 8.053 0 016.637-.536l.23-.089c2-.791 3.829 0 5.616.357 2.975.211 0 41.135 0 41.135" fill="#fff"/></svg>