<svg xmlns="http://www.w3.org/2000/svg" width="1976.512" height="163.924" viewBox="0 0 1976.512 163.924">
  <path id="Path_16217" data-name="Path 16217" d="M30.625,167.636c-.523-2.553-2.987-1.672-5.488-1.6-2.553.523-5.016-2.131-5.629-1.557v-3.191c-3.829-.179-6.611-2.782-10.211-2.553A68.549,68.549,0,0,0-8.38,161.88c.242-2.8.421-5.565.587-8.334-.485-.191-.8-.421-.74-.779v-.37c.077-.472.14-1,.2-1.532h0c0-.511.1-1.047.14-1.608a1.276,1.276,0,0,1,0-.14,11.386,11.386,0,0,1,.089-1.723,1.06,1.06,0,0,1,0-.128V141c-.064-2.3-.191-4.722-.357-7.211-.077-1-.14-1.991-.217-3-.255-3.165-.549-6.382-.855-9.419-.115-1.047-.217-2.068-.332-3.076v-.077c-.2-1.9-.408-3.7-.613-5.386a1.9,1.9,0,0,0-.077-.651c-.064-.523-.115-1.021-.179-1.506-.587-4.876-1.034-8.3-1.034-8.858,0-1.94.1-3.829.153-5.782V14.351a13.2,13.2,0,0,1-.383-4.327c5.105.268,10.287.5,15.431.74h0l11.372.549,3.829.153q15.316.689,30.632,1.276C58.7,6.9,68.212,11.3,77.772,14.019h0l1.276.319h.217c5.258,1.353,10.542,1.991,15.826-.089,1.966-.166,3.918-.408,5.884-.689l3.714-.574h.23l1.787-.243c9.317-1.544,18.66-3.114,27.964-.434h0a34.333,34.333,0,0,1,6.586,2.706c.83-.4,1.659-.74,2.553-1.072l.944-.345,1.481-.485c1.008-.306,2.029-.587,3.05-.8h.166a40.446,40.446,0,0,1,6.828-.83h4.429l1.276.077,1.276.115,1.557.153,1.889.23,1.034.14,1.672.255.855.14,2.553.434c4.748.855,9.47,1.851,14.18,2.553,6.382,0,12.648-.306,18.9-.5h.077c2.629-.089,5.246-.14,7.849-.115h0c2.629,0,5.258.115,7.875.319a71.934,71.934,0,0,1,9.7,1.378c4.02.332,8.079.613,12.138.753q2.029.077,4.059.089h5.284c1.047,0,2.08-.1,3.14-.179l1.174-.077c1.4-.115,2.808-.255,4.212-.447a15.918,15.918,0,0,1,1.953-.523h.089a24.441,24.441,0,0,1,8.756.14h0c3.306.549,6.624,1.391,9.943,1.7h0c.587,0,1.161.089,1.749.1h2.182a9.407,9.407,0,0,0,1.583-.191h.281a16.593,16.593,0,0,0,1.672-.4l.37-.115a16.056,16.056,0,0,0,1.7-.638H295.6c1.276,0,2.553-.089,3.829-.166,8.641-.485,17.294-1.557,26.024.089l9.343.217h0q20.727.536,41.3,1.468l2.412.115h0q23.969,1.085,47.8,2.438l20.842,1.149,14.895.8,14.346.766c4.071.306,8.117.625,12.138.881h0l4.722.268c4.276.2,8.526.319,12.763.23,18.864-.459,37.6-2.642,56.3-.957h.153c1.468.128,2.935.281,4.4.472,1.774-.166,3.535-.281,5.3-.408h0q4.033-.281,8.066-.447h0q5.463-.2,10.925-.242H601q5.105,0,10.211.166h.268l7.964.153,7.786.115c1.276.191,2.655.332,3.969.434l1.4.077c.855,0,1.71.1,2.553.115h3.969l1.9-.077,2.042-.1,2.119-.2,1.787-.14,2.451-.217,1.276-.128c6.969-.689,13.95-1.583,20.944-1.7h5.335c1.021,0,2.042.115,3.076.217l.893.1c.855.089,1.723.2,2.553.332l1.008.153c1.123.191,2.246.408,3.37.676,11.078-.983,22.2-1.532,33.35-1.4h1.391A234.839,234.839,0,0,1,749.3,23.885h20.983q1.889,0,3.829.128h1.366c1.608.089,3.229.191,4.85.345,1.174-.115,2.361-.2,3.535-.281h1.11l2.476-.089h4.85l3.331.1,1.557.14,1.889.115,1.825.128,1.544.128,2,.166h0c2.4.217,4.8.472,7.2.74.574-.14,1.149-.243,1.723-.357,1.034-.2,2.055-.37,3.089-.5h0c1.021-.115,2.042-.2,3.063-.255h0a101.428,101.428,0,0,1,14.678.766,77.777,77.777,0,0,1,10.708,1.621h0c3.357.727,6.7,1.583,10.032,2.438A140.619,140.619,0,0,0,870.631,32.6l.7.1c2.987-.294,6.382-.523,10.006-.651q2.106-.077,4.3-.077h.5c3.012,0,6.088,0,9.138.255h0A70.427,70.427,0,0,1,915.149,35.9a12.909,12.909,0,0,0,1.429.255h.357a11.489,11.489,0,0,0,1.2,0h.306a10.505,10.505,0,0,0,1.276-.128h.255a10.1,10.1,0,0,0,1.11-.255h.166a11.968,11.968,0,0,0,1.276-.447h.115c.383-.166.753-.357,1.136-.549h.1a20.228,20.228,0,0,0,2.387-1.583c2.463-1.876,4.761-4.327,7.237-6.624h0a39.226,39.226,0,0,1,4.084-3.344,17.868,17.868,0,0,1,6.662-3c-2.655-3.523,1.455-4.378,8.322-4.531h20.191l1.914-.089,1.353-.089,2.042-.166,1.11-.1c1.034-.115,2.055-.242,3.038-.4l.664.153c11.346,2.719,22.974,2.3,34.792,1.276,3.229-.294,6.471-.638,9.713-.97,2.9-.306,5.807-.613,8.717-.881.562.306,1.11.587,1.659.855s.855.383,1.276.562l.357.153c.511.2,1.034.4,1.544.562h.077c.536.179,1.085.345,1.621.485a30.159,30.159,0,0,0,6.088.944c8.194.447,16.375-2.093,24.505-3.829l1.072-.217,1.059-.2,2.029-.345.74-.1,1.761-.23h.562c.727-.077,1.468-.128,2.208-.166h2.974a22.389,22.389,0,0,1,2.272.14h.549c.779.089,1.544.191,2.323.345a8.569,8.569,0,0,0,1.021.472l.332.14a11.116,11.116,0,0,0,6.381,0,57.061,57.061,0,0,1,6.637-1.557h.077a10.3,10.3,0,0,1,2.233,0h.179a7.938,7.938,0,0,1,1.047.217h.192a7.974,7.974,0,0,1,1.072.408,9.615,9.615,0,0,0,1.008,1.021c3.229,2.9,6.382,1.468,9.649,0h0l.83-.37.2-.089.766-.319h.1l.817-.294h.191a6.277,6.277,0,0,1,.8-.217h.166a8.367,8.367,0,0,1,.83-.14h0a6.24,6.24,0,0,1,.842,0h.319a5.3,5.3,0,0,1,.83.115h.153a5.4,5.4,0,0,1,.855.281,14.1,14.1,0,0,1,1.442-.562l.472-.14c.332-.089.651-.191.97-.255l.536-.1.932-.153h3.344l1.276.089h.089c4.186.408,8.347,1.634,12.469,1.429a15.9,15.9,0,0,0,2.412-.281c7.122-1.085,14.244.676,21.34,2.438,1.953.485,3.905.957,5.833,1.378a62.075,62.075,0,0,0,6.228,1.059h.37a27.543,27.543,0,0,0,18.609-4.11l.243-.089h0q1.646-.651,3.293-1.187h.192c1.047-.332,2.106-.638,3.152-.906h.1a52.336,52.336,0,0,1,6.573-1.276h0a62.285,62.285,0,0,1,18.851.753l.357.077q1.519.281,3.025.625l.319.077q1.557.357,3.1.779h.14c1.1.294,2.182.613,3.28.944,1.659.511,3.318,1.047,4.978,1.621l3.14,1.136c.8-.115,1.608-.2,2.425-.268l1.787-.14h0c15.073-.957,29.751,4.084,43.892,4.2a65.182,65.182,0,0,1,10.887,4.493l1.838.868c4.582,2.157,9.215,4.135,13.312,4.327,5.565.255,11.168.753,16.8,0h0c.574-.077,1.161-.153,1.749-.255l.5-.089,1.276-.255.587-.128,1.276-.332.536-.153q.881-.268,1.761-.574a29.7,29.7,0,0,1,3.012.1h.549c5.322.255,10.67.766,16.031.6h.064c.919,0,1.838-.077,2.77-.153s1.608-.128,2.412-.242H1398.2c1.889,0,3.829,0,5.679-.128.664-.1,1.276-.23,2-.37l.625-.14,1.366-.319c4.607-1.123,9.215-2.553,13.823-2.246h0a15.227,15.227,0,0,1,7.211,2.451c5.437-3.829,9.943-4.1,14.7-4.9l1.748-.319h.153c.613-.128,1.276-.268,1.851-.434l.306-.089c.5-.14,1.008-.294,1.531-.472l.511-.179c.625-.217,1.276-.472,1.914-.766a111.038,111.038,0,0,0,30.121-1.863,166.7,166.7,0,0,1,28.909-3.8c7.811-.357,15.647-.944,23.522-.281h0c1.915.166,3.829.383,5.743.715,5.833.345,11.691,1.8,17.549,2.042h1.48a31.54,31.54,0,0,0,3.893-.23l.689-.089.842-.14.906-.179.74-.179,1.072-.306.6-.179c.574-.191,1.123-.4,1.7-.625,2.336-.191,4.659-.345,7.007-.485l5.59-.319h.459c5.539-.294,11.079-.587,16.592-1.072h.511c1.812.191,3.625.281,5.45.306h3.829l2.642-.128,2.336-.153c3.74-.294,7.492-.74,11.244-1.136l3.714-.37c.715.089,1.43.128,2.144.179,9.189.74,18.392-.6,27.568.485,8.219,9.266,13.031,10.861,16.4,9.5h0a6.186,6.186,0,0,0,.893-.459h0a7.376,7.376,0,0,0,.8-.574c2.234-1.8,3.829-4.837,5.654-6.981h0c1.557-1.825,3.293-2.974,5.769-2.131a38.073,38.073,0,0,1,11.346-.179h0c1.621.166,3.255.37,4.875.549l.906.1,1.11.115,1.978.166h4.952a13.757,13.757,0,0,0,1.429-.115l.677-.077c.689-.089,1.378-.2,2.08-.357a13.393,13.393,0,0,0,1.71.179h2.182a9.9,9.9,0,0,0,1.365-.14h.242c.511-.077,1.034-.166,1.544-.268,2.17-.434,4.339-1.059,6.522-1.544l1.161-.242.408-.077,1.212-.191h.332c.434,0,.868-.089,1.276-.115h1.953a13.385,13.385,0,0,1,1.391.153h.281a12.761,12.761,0,0,1,1.417.345l.242.077a12.443,12.443,0,0,1,1.455.574l.166.077a14.226,14.226,0,0,1,1.544.868c.562-.23,1.136-.434,1.71-.613l.549-.14c.4-.115.778-.217,1.174-.306l.625-.115a8.613,8.613,0,0,0,1.1-.191l.638-.077,1.1-.115h3.995l1.276.077h.319l1.583.128h0l3.076.306,2.081.2h.281l2.119.153h4.761a3.743,3.743,0,0,0,.7.255h.179a3.646,3.646,0,0,0,.536.077h.14a4.085,4.085,0,0,0,.562,0h.077a5.478,5.478,0,0,0,.638-.115h0c2.182-.523,4.186-2.131,6.011-.893h0a3.708,3.708,0,0,1,.574.511c8.194-2.425,12.763-1.034,13.235-.472.625.077,1.276.128,1.838.153h2.629l-.714-.676-.153-.153a5.551,5.551,0,0,1-.625-.74h0a1.608,1.608,0,0,1-.2-1.749h0a2.218,2.218,0,0,1,.447-.536h0a4.927,4.927,0,0,1,.829-.587c.677-.319,5.029-.421,11.844-.4,3.408,0,7.428.357,11.921.574h.5a41.634,41.634,0,0,0,6.56-.179,13.3,13.3,0,0,0,7.658,0c2.629-3.637,5.348.319,8.13-1.557a2.552,2.552,0,0,0,.485.23h.141l.357.089h.549a7.364,7.364,0,0,1,2.616.179,1.825,1.825,0,0,0,.651.408c.766.281,1.519,0,2.285.408h0l.243.166h.064l.179.166.089.1.166.2.089.128.166.281.077.14c.089.153.166.332.255.523,2.872-1.021,5.795-1.863,8.73,0,2.936-2.029,5.909,1.736,8.87-.842,2.961,1.966,5.935,3.165,8.934,1.8h1.276c2.552.089,4.978.779,7.428,0h.1c2.259.1,4.429,4.122,6.6,7.2.294.421.6.817.893,1.2l.077.089a13.021,13.021,0,0,0,.881,1c1.4.574,2.808-2.553,4.186-.14,1.378.817,2.744-.077,4.084-2.706,2.693,4.735,5.309-1.276,7.837.37a1.507,1.507,0,0,0,.268.255h.064l.192.1h.625l.242-.14h0a3.916,3.916,0,0,0,.83-.932c1.787-2.553,3.548-8.564,5.195-6.586a8.053,8.053,0,0,1,6.637-.536l.23-.089h0c2-.791,3.829,0,5.616.357a56.451,56.451,0,0,0,8.934-.077,29.7,29.7,0,0,0,4.518-.332c4.62,2.846,9.521,5.756,8.551,8.513-.574,1.659-1.085,3.28-1.57,4.888-.179.587-.332,1.161-.5,1.736-.281.983-.536,1.94-.766,2.91-.179.676-.357,1.366-.5,2.029-.242,1.072-.447,2.106-.651,3.14a4.551,4.551,0,0,1-.14.7,80.872,80.872,0,0,0-1.276,10.619,74.846,74.846,0,0,0,.868,15.89,85.73,85.73,0,0,0,1.812,8.449c.447,1.685.945,3.331,1.442,4.952l.217.689q.778,2.425,1.621,4.773h0c1.047,2.91,2.132,5.731,3.191,8.539h0v.089a145.912,145.912,0,0,1,5.105,15.316h0a54.151,54.151,0,0,1-2.553,36.094q-.817,2.042-1.825,4.161l-2.412.14-6.1.345a15.188,15.188,0,0,1-3.178,0c-.153,1.085-.319,2.17-.5,3.229q-.727,4.276-1.749,8.36c-.14.357-4.8-5.96-12.189.7-7.377-2.17-17.46-5.909-28.449-.766-10.989-2.144-22.859.753-33.81-1.481-10.951.957-.459-9.2-7.76-4.824a106.706,106.706,0,0,0-11.946.562l-.281.14-.179.089-.319.115h-.14a2.551,2.551,0,0,1-.459.077c-.689.077-1.366.128-2.042.153h-3.51c-7.2.727-13.491,1.519-13.491,1.519v-1.276c-7.211.4-13.478.7-18.175.932-5.629.281-9.062.421-9.419.37,0-.14,0-4.339-.179-11.193q-23.637.408-47.224.74c-.677-.217-1.4-.485-2.144-.779l-.268-.1c-.715-.281-1.468-.574-2.221-.906h0c-2.119-.906-4.365-1.953-6.56-3.025h0l-2.757-1.391h-.115c-5.552-2.846-10.109-5.45-10.109-5.45a7.657,7.657,0,0,1-.868,6.9l-.128.166a7.517,7.517,0,0,1-1.072,1.085h-.077a8.936,8.936,0,0,1-1.276.868l-.421.217a13.131,13.131,0,0,1-1.9.779l-2.986.153-2.489.14-18.736,1.072h-.383c-18.073,1.021-39.042,2.042-50.453,1.429-1.493-.268-2.974-.447-4.467-.587a105.04,105.04,0,0,0-19.272.383c-9.6.868-19.145,2.055-28.794.549-.919-.191-1.851-.357-2.77-.511a67.648,67.648,0,0,0-8.028-.791h-4.493q-1.8,0-3.612.089h-.281c-2.553.1-5.105.281-7.735.485l-2.629.2h-.1a151.961,151.961,0,0,1-22.974.8l-.37-.089c-2.782-.689-5.552-1.276-8.334-1.787-8.054-1.378-16.107-1.429-24.148,2.246-6.075-.14-12.151.191-18.226.306h0a108.737,108.737,0,0,1-14.6-.536c-10.951,3.829-21.9,3.216-32.84,1.276-10.951-.472-21.9,1.353-32.84-1.276-.613-.306-1.276-.574-1.825-.817l-.408-.153c-.6-.217-1.187-.408-1.774-.574l-.332-.077c-.523-.128-1.046-.23-1.557-.319h-.383a15.739,15.739,0,0,0-1.723-.166h-2.285a26.051,26.051,0,0,0-6.114,1.11c-5.475-.268-10.951,1.787-16.439,1.047-2.782.166-5.552.536-8.334.842h0l-2.042.2h-.357l-1.825.128h-.332a27.134,27.134,0,0,1-13.286-2.2h0c-.319-.153-.638-.281-.957-.459a68.555,68.555,0,0,1-8.526-1.136l-1.889-.306h-.357l-1.621-.2h-.357c-.562,0-1.123-.1-1.685-.128H1335.8a18.572,18.572,0,0,0-1.94.255l-.383.077a17,17,0,0,0-2.974.893l-.179.077a17.69,17.69,0,0,0-3.1,1.7h0c-.4.268-.778.523-1.174.83l-.357-.37a9.176,9.176,0,0,0-5.182-3.05h0l-.613-.077h0a8.641,8.641,0,0,0-1.851,0h-.115l-.549.1h-.166a15.019,15.019,0,0,0-1.851.549c-5.258,1.927-10.5,6.611-15.762,5.105l-.447-.128h0c-.74.14-1.48.23-2.221.306h-.255c-.664,0-1.276.1-2,.128h0a47.529,47.529,0,0,1-7.02-.357h0c-2.629-.319-5.258-.766-7.888-1.187-1.123-.179-2.259-.357-3.382-.511H1276c-1.276-.166-2.553-.306-3.74-.408-.74.217-1.48.408-2.221.587l-.574.128a37.676,37.676,0,0,1-24.058-2.17,29.036,29.036,0,0,0-5.9-.625,104.161,104.161,0,0,0-13.657,1.276l-1.557.179h-.651c-.74.077-1.468.128-2.221.166H1218.5a8.825,8.825,0,0,1-.817.357l-.255.089-.574.179h-.293l-.536.115h-2.757l-.549-.077h-.255l-.6-.115h-.2l-.664-.166h-.128l-.766-.23h0c-5.705-1.851-11.487-5.948-17.141-2.029a12.1,12.1,0,0,0-1.366,1.072,34.318,34.318,0,0,1-9.343,2.553h0a32.432,32.432,0,0,1-6.522.179h-.166a15.837,15.837,0,0,1-2.042-.217h.179a35.579,35.579,0,0,1-4.174-.855l-.5-.14-1.544-.472-.549-.179c-.677-.23-1.276-.472-2-.727-.294-.319-.587-.613-.868-.881l-.255-.23-.638-.536-.268-.2c-.281-.2-.562-.4-.842-.562h0c-3.37-2.017-6.739-1.353-10.108,0-1.276.5-2.553,1.072-3.829,1.646-4.684,2.106-9.368,4.02-14.039.268a6.381,6.381,0,0,1-1.276.306h-.1a7.328,7.328,0,0,1-1.174,0h-.14a9.6,9.6,0,0,1-1.174-.14h-.1c-.421-.077-.83-.179-1.276-.294h0l-1.276-.37-.255-.077-.766-.255-1.621-.523h0c-.434-.128-.868-.243-1.276-.332a7.211,7.211,0,0,0-5.5.7l-.357.23a10.073,10.073,0,0,0-2.119,1.978c-4.033,2.553-8.054,2.221-12.061,1.1h0l-1.021-.294h0c-1.71-.523-3.433-1.161-5.105-1.749a16.432,16.432,0,0,0-1.825-.23H1093.3a15.206,15.206,0,0,0-1.71.128h-.306a11.987,11.987,0,0,0-1.749.243h-.141l-1.685.306-.434.077-1.378.281-2.323.459h-.1a39.163,39.163,0,0,1-4.161.587c-4.9-.179-9.789-.715-14.678-1.123-1.123-.089-2.246-.191-3.37-.268l-1.863.294h-.268l-1.723.306-2.055.357h-.115c-3.995.664-7.99.932-11.972-1.276a16.043,16.043,0,0,0-7.658-1.276,30.344,30.344,0,0,0-5.105.817h-.14c-.791.191-1.608.408-2.4.625h-.217l-2.438.689c-8.934-.089-17.983.664-26.994.676a15.158,15.158,0,0,1-1.429.536l-.587.179-.677.179c-8.13,2-16.26-2.246-24.454,0a61.862,61.862,0,0,1-17.868,1.276h0c-3.153-.191-6.382-.549-9.483-1.034-.638-.089-1.276-.14-1.94-.179H937.2l-1.276.1h-.664l-1.838.2-1,.128-.881.115c-5.105.715-10.313,1.7-15.507,1.353-9.866-1.187-19.668,4.071-29.445,1.149a25.716,25.716,0,0,1-2.3,1.889h0c-.459.332-.906.638-1.366.919h0c-6.088,3.752-12.176,2.706-18.251-3.459l-.434-.383c-5.437-4.71-10.861-1.838-16.286.268l-1.1.408h-.153l-1.276.408h-.077c-.421.128-.855.243-1.276.345h0c-.434.1-.881.191-1.276.255l-.574-.14c-1.71-.447-3.408-.855-5.105-1.161q-1.34-.255-2.68-.421a36.617,36.617,0,0,0-13.516.536,42.307,42.307,0,0,0-4.939,1c-1.532.383-3.063.791-4.595,1.136h-.166l-1.187.243h-.089c-.855.153-1.723.281-2.553.345h-2.935a8.933,8.933,0,0,1-1.276-.153h-.242a4.109,4.109,0,0,1-1.008-.23l-.4-.115-.893-.306-.383-.153a13.519,13.519,0,0,1-1.276-.587c-.485-.2-.957-.37-1.442-.523l-.74-.23a19.858,19.858,0,0,0-2.08-.472h0a23.607,23.607,0,0,0-3.637-.332c-7.147-.115-14.295,2.553-21.468,1.276a19.247,19.247,0,0,1-17.1,2.782h0a24.265,24.265,0,0,1-2.412-.893h0c-.791-.345-1.583-.727-2.387-1.161a10.66,10.66,0,0,1-1.353.727l-.23.051a9.868,9.868,0,0,1-1.059.4h-.217a9.732,9.732,0,0,1-1.174.255h0c-5.629.8-11.117-3.076-16.516-1.532-1.48.089-3.178-1.583-4.965-3.931l-.319.651q-.421-.562-.842-1.161h0l-.817-1.174-.191-.281-.7-1.034c-1.276-1.9-2.553-3.829-3.829-5.552-2.2-2.974-4.288-5.105-6.037-4.4-.511.2-.766,1.8-.919,4.008a6.266,6.266,0,0,1-.089,1.276v1.276c-.077,1.978-.14,4.135-.255,6.1a.392.392,0,0,1,0,.077c0,.7-.089,1.391-.14,2.029h0a12.188,12.188,0,0,1-.791,3.918c-6.037,2.923-12.01-3.114-17.983,1.391l-.345.281a12.353,12.353,0,0,0-1,.906l-1.391-.651-.319-.14-1.174-.511-.306-.128c-.447-.191-.893-.37-1.353-.536h-.077a19.5,19.5,0,0,0-2.987-.842h-.14a12.864,12.864,0,0,0-1.366-.179H678.7a10.427,10.427,0,0,0-3.025.23,13.044,13.044,0,0,0-7.1,4.9,10.683,10.683,0,0,0-5.794-1.94c-6.841-.664-16.72,1.6-23.42,2.553h-.1l-1.646.217h-.472l-1.174.089h-.447a12.365,12.365,0,0,1-1.276,0,11.3,11.3,0,0,1-1.366-.676c-.179-.1-.345-.217-.51-.332s-.434-.281-.638-.434l-.613-.5-.319-.294a13.108,13.108,0,0,1-3.7-7.811h0c0-.408-.089-.791-.115-1.149v-3.191a1.294,1.294,0,0,1-.191.562h0l-.166.447v.089a27.683,27.683,0,0,1-3.51,6.382h0a20.881,20.881,0,0,1-7.658,6.522c-7.658-2.4-18.647-2.731-30.134-2.348l-4.863.191h-.077l-4.454.23c-11.985.689-23.6,1.71-31.372,1.481-8.628,2.642-17.256,2.884-25.858-1.8a24.824,24.824,0,0,1-14.422,2.731,5.615,5.615,0,0,1-1.11-.191h-.306c-.447-.089-.893-.2-1.353-.319h0a26.8,26.8,0,0,1-8.564-4.11,11.079,11.079,0,0,1-2.361.7l-.37.077c-.319,0-.625.077-.944.1h-1.8l-.944-.077h-.408l-.983-.153h-.357l-1.072-.217h-.242c-1.481-.332-2.961-.74-4.442-1.085l-.332-.077-.957-.191-.472-.089-.855-.128-.536-.077h-2.731a5.346,5.346,0,0,0-.893.115h-.511a10.214,10.214,0,0,0-1.276.332c-5.565-.6-11.117,2.272-16.669,1.493l-1.2-.217-.421-.128-.715-.217-.587-.191-.472-.166a60.115,60.115,0,0,0-6.547-2.106,10.925,10.925,0,0,0-6.713.37c-4.02-1.11-8.041-.523-12.061-1.034h0a16.463,16.463,0,0,1-4.569-1.276c-5.552-.294-11.1,3.1-16.669,1.276-2.553-.2-5.105-5.373-7.658-9.521l-.191-.306-.306-.472-.459-.7-.217-.306-.37-.536-.166-.23c-.166-.23-.345-.434-.511-.651l-.166-.191c-.153-.179-.294-.332-.447-.485l-.115-.115a6.378,6.378,0,0,0-.523-.459l-.14-.1a3.578,3.578,0,0,0-.5-.319h0a2.77,2.77,0,0,0-.536-.2h-.14a1.927,1.927,0,0,0-.549,0,2.706,2.706,0,0,0-.74.191h-.051a4.047,4.047,0,0,0-.7.4l-.128.089a7.358,7.358,0,0,0-.715.6l-.089.089c-.242.23-.472.485-.715.766h0c-.242.294-.485.6-.728.932l-.115.153-.715,1.021-.1.166-.728,1.123h0l-.74,1.2-.077.14-.689,1.161-.281.459c-1.021,1.71-2.055,3.408-3.076,4.773h0l-.753.944-.242.255c-.179.191-.357.4-.536.562a7,7,0,0,1-.791.651c-.651-.268-1.276-.5-1.94-.727-9.049-3.14-18.073-2.451-27.083-.983-1.544.255-3.076.523-4.607.8-8.1,1.481-16.2,3.165-24.25,2.846-9.432,4.786-18.838,2.131-28.245-.357-1.417-.37-2.833-.74-4.237-1.085s-2.731-.625-4.11-.881a43.481,43.481,0,0,0-5.437-.676h0a29.1,29.1,0,0,0-5.424.179,24.02,24.02,0,0,0-7.352,2.182,13.257,13.257,0,0,0-1.276.676c-.383.243-.97.549-1.468.868l-.153.089c-15.316,9.611-30.721,8.934-46.152,4.059h0a120.769,120.769,0,0,1-11.359-4.3c-11.729,1.276-23.484-.332-35.3-1.276l-3.752-.255a107.133,107.133,0,0,0-19.145.255,19.6,19.6,0,0,0-6.382-1.6q-1-.089-2-.089h-1.11c1.149,2.833,2.31,5.667,3.408,8.564,0,0-12.393-3.829-21.914-3.5,2.361,1.1-4.595,3.357-3.765,4.314a2.361,2.361,0,0,1,.6,2.693c-2.553,2.361-4.544,0-6.19,2.131-1.646.408-2.961-2.182-4.263,1.417-1.276-7.76-2.553.944-4.225-.153A15.469,15.469,0,0,1,94.9,161.6c-1.276-.536-2.706,4.544-4.327-.97-1.634-2.923-3.459-.83-5.514-1.493a9.764,9.764,0,0,0-.97-.421,87.376,87.376,0,0,1-14.524,1h0c-1.8,2.259-4.48-1.149-7.99,1.774-1.749-.421-3.714,2.961-5.871,1.851-2.157,3.153-4.531,1.276-7.084,1.672-2.553-6.535-5.335,2.8-8.283.728-2.948,0-6.1,4.978-9.432,1.851" transform="translate(12.031 -4.693)" fill="#f3f2fc"/>
</svg>
