<svg xmlns="http://www.w3.org/2000/svg" width="233.354" height="520.922" viewBox="0 0 233.354 520.922">
  <g id="Group_906" data-name="Group 906" transform="translate(-28.555 -1826)">
    <g id="Frame" transform="translate(12.555 1825.71)">
      <path id="Path_16278" data-name="Path 16278" d="M151.011,165.311A5.011,5.011,0,1,0,146,160.3,5.011,5.011,0,0,0,151.011,165.311Z" transform="translate(56.111 66.901)" fill="#0c2a74"/>
      <path id="Path_16279" data-name="Path 16279" d="M99.011,165.311A5.011,5.011,0,1,0,94,160.3,5.011,5.011,0,0,0,99.011,165.311Z" transform="translate(33.666 66.901)" fill="#0c2a74"/>
      <path id="Path_16280" data-name="Path 16280" d="M47.011,165.311A5.011,5.011,0,1,0,42,160.3,5.011,5.011,0,0,0,47.011,165.311Z" transform="translate(11.222 66.901)" fill="#0c2a74"/>
      <path id="Path_16281" data-name="Path 16281" d="M177.011,114.311A5.011,5.011,0,1,0,172,109.3,5.011,5.011,0,0,0,177.011,114.311Z" transform="translate(67.333 44.889)" fill="#0c2a74"/>
      <path id="Path_16282" data-name="Path 16282" d="M125.011,114.311A5.011,5.011,0,1,0,120,109.3,5.011,5.011,0,0,0,125.011,114.311Z" transform="translate(44.889 44.889)" fill="#0c2a74"/>
      <path id="Path_16283" data-name="Path 16283" d="M73.011,114.311A5.011,5.011,0,1,0,68,109.3,5.011,5.011,0,0,0,73.011,114.311Z" transform="translate(22.444 44.889)" fill="#0c2a74"/>
      <path id="Path_16284" data-name="Path 16284" d="M21.011,114.311A5.011,5.011,0,1,0,16,109.3,5.011,5.011,0,0,0,21.011,114.311Z" transform="translate(0 44.889)" fill="#0c2a74"/>
      <path id="Path_16285" data-name="Path 16285" d="M153.011,62.312A5.011,5.011,0,1,0,148,57.3,5.011,5.011,0,0,0,153.011,62.312Z" transform="translate(56.974 22.444)" fill="#0c2a74"/>
      <path id="Path_16286" data-name="Path 16286" d="M101.011,62.312A5.011,5.011,0,1,0,96,57.3,5.011,5.011,0,0,0,101.011,62.312Z" transform="translate(34.53 22.444)" fill="#0c2a74"/>
      <path id="Path_16287" data-name="Path 16287" d="M49.011,62.312A5.011,5.011,0,1,0,44,57.3,5.011,5.011,0,0,0,49.011,62.312Z" transform="translate(12.085 22.444)" fill="#0c2a74"/>
      <path id="Path_16288" data-name="Path 16288" d="M177.011,10.312A5.011,5.011,0,1,0,172,5.3,5.011,5.011,0,0,0,177.011,10.312Z" transform="translate(67.333 0)" fill="#0c2a74"/>
      <path id="Path_16289" data-name="Path 16289" d="M125.011,10.312A5.011,5.011,0,1,0,120,5.3,5.011,5.011,0,0,0,125.011,10.312Z" transform="translate(44.889 0)" fill="#0c2a74"/>
      <path id="Path_16290" data-name="Path 16290" d="M73.011,10.312A5.011,5.011,0,1,0,68,5.3,5.011,5.011,0,0,0,73.011,10.312Z" transform="translate(22.444 0)" fill="#0c2a74"/>
      <path id="Path_16291" data-name="Path 16291" d="M21.011,10.312A5.011,5.011,0,1,0,16,5.3,5.011,5.011,0,0,0,21.011,10.312Z" transform="translate(0 0)" fill="#0c2a74"/>
    </g>
    <g id="Frame-2" data-name="Frame" transform="translate(12.555 2114.71)">
      <path id="Path_16278-2" data-name="Path 16278" d="M151.011,165.311A5.011,5.011,0,1,0,146,160.3,5.011,5.011,0,0,0,151.011,165.311Z" transform="translate(56.111 66.901)" fill="#ff8073"/>
      <path id="Path_16279-2" data-name="Path 16279" d="M99.011,165.311A5.011,5.011,0,1,0,94,160.3,5.011,5.011,0,0,0,99.011,165.311Z" transform="translate(33.666 66.901)" fill="#ff8073"/>
      <path id="Path_16280-2" data-name="Path 16280" d="M47.011,165.311A5.011,5.011,0,1,0,42,160.3,5.011,5.011,0,0,0,47.011,165.311Z" transform="translate(11.222 66.901)" fill="#ff8073"/>
      <path id="Path_16281-2" data-name="Path 16281" d="M177.011,114.311A5.011,5.011,0,1,0,172,109.3,5.011,5.011,0,0,0,177.011,114.311Z" transform="translate(67.333 44.889)" fill="#ff8073"/>
      <path id="Path_16282-2" data-name="Path 16282" d="M125.011,114.311A5.011,5.011,0,1,0,120,109.3,5.011,5.011,0,0,0,125.011,114.311Z" transform="translate(44.889 44.889)" fill="#ff8073"/>
      <path id="Path_16283-2" data-name="Path 16283" d="M73.011,114.311A5.011,5.011,0,1,0,68,109.3,5.011,5.011,0,0,0,73.011,114.311Z" transform="translate(22.444 44.889)" fill="#ff8073"/>
      <path id="Path_16284-2" data-name="Path 16284" d="M21.011,114.311A5.011,5.011,0,1,0,16,109.3,5.011,5.011,0,0,0,21.011,114.311Z" transform="translate(0 44.889)" fill="#ff8073"/>
      <path id="Path_16285-2" data-name="Path 16285" d="M153.011,62.312A5.011,5.011,0,1,0,148,57.3,5.011,5.011,0,0,0,153.011,62.312Z" transform="translate(56.974 22.444)" fill="#ff8073"/>
      <path id="Path_16286-2" data-name="Path 16286" d="M101.011,62.312A5.011,5.011,0,1,0,96,57.3,5.011,5.011,0,0,0,101.011,62.312Z" transform="translate(34.53 22.444)" fill="#ff8073"/>
      <path id="Path_16287-2" data-name="Path 16287" d="M49.011,62.312A5.011,5.011,0,1,0,44,57.3,5.011,5.011,0,0,0,49.011,62.312Z" transform="translate(12.085 22.444)" fill="#ff8073"/>
      <path id="Path_16288-2" data-name="Path 16288" d="M177.011,10.312A5.011,5.011,0,1,0,172,5.3,5.011,5.011,0,0,0,177.011,10.312Z" transform="translate(67.333 0)" fill="#ff8073"/>
      <path id="Path_16289-2" data-name="Path 16289" d="M125.011,10.312A5.011,5.011,0,1,0,120,5.3,5.011,5.011,0,0,0,125.011,10.312Z" transform="translate(44.889 0)" fill="#ff8073"/>
      <path id="Path_16290-2" data-name="Path 16290" d="M73.011,10.312A5.011,5.011,0,1,0,68,5.3,5.011,5.011,0,0,0,73.011,10.312Z" transform="translate(22.444 0)" fill="#ff8073"/>
      <path id="Path_16291-2" data-name="Path 16291" d="M21.011,10.312A5.011,5.011,0,1,0,16,5.3,5.011,5.011,0,0,0,21.011,10.312Z" transform="translate(0 0)" fill="#ff8073"/>
    </g>
  </g>
</svg>
