<svg xmlns="http://www.w3.org/2000/svg" width="390.87" height="627.84"><g data-name="Group 910"><g fill="#0c2a74"><path data-name="Path 16278" d="M277.337 266.276a5.68 5.68 0 10-6.957-4.015 5.68 5.68 0 006.957 4.015z"/><path data-name="Path 16279" d="M195.83 288.13a5.68 5.68 0 10-6.957-4.016 5.68 5.68 0 006.956 4.015z"/><path data-name="Path 16280" d="M114.321 309.983a5.68 5.68 0 10-6.956-4.015 5.68 5.68 0 006.956 4.015z"/><path data-name="Path 16281" d="M296.657 175.41a5.68 5.68 0 10-6.956-4.015 5.68 5.68 0 006.956 4.015z"/><path data-name="Path 16282" d="M215.15 197.263a5.68 5.68 0 10-6.957-4.015 5.68 5.68 0 006.957 4.015z"/><path data-name="Path 16283" d="M133.642 219.117a5.68 5.68 0 10-6.957-4.015 5.68 5.68 0 006.957 4.015z"/><path data-name="Path 16284" d="M52.135 240.97a5.68 5.68 0 10-6.957-4.015 5.68 5.68 0 006.957 4.015z"/><path data-name="Path 16285" d="M237.185 103.989a5.68 5.68 0 10-6.957-4.016 5.68 5.68 0 006.957 4.016z"/><path data-name="Path 16286" d="M155.678 125.842a5.68 5.68 0 10-6.957-4.016 5.68 5.68 0 006.957 4.016z"/><path data-name="Path 16287" d="M74.17 147.696a5.68 5.68 0 10-6.957-4.016 5.68 5.68 0 006.957 4.016z"/><path data-name="Path 16288" d="M252.95 12.396a5.68 5.68 0 10-6.957-4.016 5.68 5.68 0 006.958 4.016z"/><path data-name="Path 16289" d="M171.443 34.249a5.68 5.68 0 10-6.957-4.016 5.68 5.68 0 006.957 4.016z"/><path data-name="Path 16290" d="M89.935 56.103a5.68 5.68 0 10-6.957-4.016 5.68 5.68 0 006.957 4.016z"/><path data-name="Path 16291" d="M8.428 77.956A5.68 5.68 0 101.47 73.94a5.68 5.68 0 006.957 4.016z"/></g><g data-name="Frame" fill="#84c188"><path data-name="Path 16278" d="M366.115 582.673a5.68 5.68 0 10-6.957-4.015 5.68 5.68 0 006.957 4.015z"/><path data-name="Path 16279" d="M284.607 604.526a5.68 5.68 0 10-6.956-4.015 5.68 5.68 0 006.956 4.015z"/><path data-name="Path 16280" d="M203.1 626.38a5.68 5.68 0 10-6.957-4.015 5.68 5.68 0 006.956 4.015z"/><path data-name="Path 16281" d="M385.435 491.807a5.68 5.68 0 10-6.956-4.015 5.68 5.68 0 006.956 4.015z"/><path data-name="Path 16282" d="M303.928 513.66a5.68 5.68 0 10-6.957-4.015 5.68 5.68 0 006.957 4.015z"/><path data-name="Path 16283" d="M222.42 535.514a5.68 5.68 0 10-6.957-4.015 5.68 5.68 0 006.957 4.015z"/><path data-name="Path 16284" d="M140.913 557.367a5.68 5.68 0 10-6.957-4.015 5.68 5.68 0 006.957 4.015z"/><path data-name="Path 16285" d="M325.963 420.386a5.68 5.68 0 10-6.957-4.016 5.68 5.68 0 006.957 4.016z"/><path data-name="Path 16286" d="M244.456 442.24a5.68 5.68 0 10-6.957-4.017 5.68 5.68 0 006.957 4.016z"/><path data-name="Path 16287" d="M162.948 464.093a5.68 5.68 0 10-6.957-4.016 5.68 5.68 0 006.957 4.016z"/><path data-name="Path 16288" d="M341.729 328.793a5.68 5.68 0 10-6.958-4.016 5.68 5.68 0 006.958 4.016z"/><path data-name="Path 16289" d="M260.221 350.646a5.68 5.68 0 10-6.957-4.016 5.68 5.68 0 006.957 4.016z"/><path data-name="Path 16290" d="M178.713 372.5a5.68 5.68 0 10-6.957-4.016 5.68 5.68 0 006.957 4.016z"/><path data-name="Path 16291" d="M97.206 394.353a5.68 5.68 0 10-6.957-4.016 5.68 5.68 0 006.957 4.016z"/></g></g></svg>
