<svg xmlns="http://www.w3.org/2000/svg" width="303.498" height="301.635"><g fill="#012c44"><path data-name="Path 16278" d="M248.57 301.636a6.517 6.517 0 10-6.517-6.517 6.517 6.517 0 006.517 6.517z"/><path data-name="Path 16279" d="M151.749 301.636a6.517 6.517 0 10-6.517-6.517 6.517 6.517 0 006.517 6.517z"/><path data-name="Path 16280" d="M54.928 301.636a6.517 6.517 0 10-6.517-6.517 6.517 6.517 0 006.517 6.517z"/><path data-name="Path 16281" d="M296.981 206.676a6.517 6.517 0 10-6.517-6.517 6.517 6.517 0 006.517 6.517z"/><path data-name="Path 16282" d="M200.16 206.676a6.517 6.517 0 10-6.517-6.517 6.517 6.517 0 006.517 6.517z"/><path data-name="Path 16283" d="M103.338 206.676a6.517 6.517 0 10-6.517-6.517 6.517 6.517 0 006.517 6.517z"/><path data-name="Path 16284" d="M6.517 206.676A6.517 6.517 0 100 200.159a6.517 6.517 0 006.517 6.517z"/><path data-name="Path 16285" d="M252.294 109.855a6.517 6.517 0 10-6.517-6.517 6.517 6.517 0 006.517 6.517z"/><path data-name="Path 16286" d="M155.473 109.855a6.517 6.517 0 10-6.517-6.517 6.517 6.517 0 006.517 6.517z"/><path data-name="Path 16287" d="M58.652 109.855a6.517 6.517 0 10-6.517-6.517 6.517 6.517 0 006.517 6.517z"/><path data-name="Path 16288" d="M296.981 13.034a6.517 6.517 0 10-6.517-6.517 6.517 6.517 0 006.517 6.517z"/><path data-name="Path 16289" d="M200.16 13.034a6.517 6.517 0 10-6.517-6.517 6.517 6.517 0 006.517 6.517z"/><path data-name="Path 16290" d="M103.338 13.034a6.517 6.517 0 10-6.517-6.517 6.517 6.517 0 006.517 6.517z"/><path data-name="Path 16291" d="M6.517 13.034A6.517 6.517 0 100 6.517a6.517 6.517 0 006.517 6.517z"/></g></svg>