<svg id="Group_650" data-name="Group 650" xmlns="http://www.w3.org/2000/svg" width="42.835" height="42.835" viewBox="0 0 42.835 42.835">
  <path id="Path_16271" data-name="Path 16271" d="M0,0H42.835V42.835H0Z" fill="none"/>
  <path id="Path_16272" data-name="Path 16272" d="M25.135,35.127V22.694H29.3l.623-4.833H25.135V14.776c0-1.4.389-2.354,2.4-2.354H30.09V8.1a34.252,34.252,0,0,0-3.73-.191c-3.689,0-6.215,2.252-6.215,6.39V17.86H15.972v4.833h4.173V35.127H4.785A1.785,1.785,0,0,1,3,33.342V4.785A1.785,1.785,0,0,1,4.785,3H33.342a1.785,1.785,0,0,1,1.785,1.785V33.342a1.785,1.785,0,0,1-1.785,1.785Z" transform="translate(2.354 2.354)" fill="#C9E4CB"/>
</svg>
