<?xml version="1.0" encoding="UTF-8" standalone="no"?><!-- Generator: Gravit.io --><svg xmlns="http://www.w3.org/2000/svg" xmlns:xlink="http://www.w3.org/1999/xlink" style="isolation:isolate" viewBox="0 0 2547.535 2684.476" width="2547.535pt" height="2684.476pt"><defs><clipPath id="_clipPath_P5X67UDdDDbZfoZOHGaGbSQgWg5OVdh4"><rect width="2547.535" height="2684.476"/></clipPath></defs><g clip-path="url(#_clipPath_P5X67UDdDDbZfoZOHGaGbSQgWg5OVdh4)"><g style="isolation:isolate"><circle vector-effect="non-scaling-stroke" cx="1689.3039999999999" cy="1224.3339999999998" r="5.330999999999904" fill="none" stroke-width="8" stroke="rgb(1,44,68)" stroke-linejoin="miter" stroke-linecap="butt" stroke-miterlimit="4"/><circle vector-effect="non-scaling-stroke" cx="1291.0639999999999" cy="61.289" r="5.330999999999904" fill="none" stroke-width="8" stroke="rgb(1,44,68)" stroke-linejoin="miter" stroke-linecap="butt" stroke-miterlimit="4"/><circle vector-effect="non-scaling-stroke" cx="104.44800000000001" cy="979.9540000000001" r="5.331000000000003" fill="none" stroke-width="8" stroke="rgb(1,44,68)" stroke-linejoin="miter" stroke-linecap="butt" stroke-miterlimit="4"/><circle vector-effect="non-scaling-stroke" cx="1871.184" cy="740.355" r="5.330999999999904" fill="none" stroke-width="8" stroke="rgb(1,44,68)" stroke-linejoin="miter" stroke-linecap="butt" stroke-miterlimit="4"/><circle vector-effect="non-scaling-stroke" cx="2538.2039999999997" cy="1061.234" r="5.331000000000131" fill="none" stroke-width="8" stroke="rgb(1,44,68)" stroke-linejoin="miter" stroke-linecap="butt" stroke-miterlimit="4"/><circle vector-effect="non-scaling-stroke" cx="403.882" cy="2290.124" r="5.331000000000017" fill="none" stroke-width="8" stroke="rgb(1,44,68)" stroke-linejoin="miter" stroke-linecap="butt" stroke-miterlimit="4"/><circle vector-effect="non-scaling-stroke" cx="973.104" cy="495.355" r="5.331000000000017" fill="none" stroke-width="8" stroke="rgb(1,44,68)" stroke-linejoin="miter" stroke-linecap="butt" stroke-miterlimit="4"/><circle vector-effect="non-scaling-stroke" cx="2434.404" cy="2161.354" r="5.331000000000131" fill="none" stroke-width="8" stroke="rgb(1,44,68)" stroke-linejoin="miter" stroke-linecap="butt" stroke-miterlimit="4"/><circle vector-effect="non-scaling-stroke" cx="1738.3739999999998" cy="2234.864" r="5.330999999999904" fill="none" stroke-width="8" stroke="rgb(1,44,68)" stroke-linejoin="miter" stroke-linecap="butt" stroke-miterlimit="4"/><mask id="_mask_O6orYFv8kb6oaKfh7ToK3zQGA1jq9QPt" x="-200%" y="-200%" width="400%" height="400%"><rect x="-200%" y="-200%" width="400%" height="400%" style="fill:white;"/><line x1="2179.014" y1="1716.874" x2="2208.374" y2="1738.224" fill="black" stroke="none"/></mask><line x1="2179.014" y1="1716.874" x2="2208.374" y2="1738.224" mask="url(#_mask_O6orYFv8kb6oaKfh7ToK3zQGA1jq9QPt)" vector-effect="non-scaling-stroke" stroke-width="16" stroke="rgb(1,44,68)" stroke-linejoin="miter" stroke-linecap="round" stroke-miterlimit="4"/><path d=" M 472.282 5.588 L 501.642 26.942 M 1355.064 2627.734 L 1325.274 2648.484 M 2223.484 2534.484 L 2193.694 2555.234 M 160.904 437.057 L 131.115 457.807 M 511.254 1402.434 L 481.465 1423.184 M 5.186 1832.734 L 38.976 1819.454 M 2333.864 226.731 L 2353.614 257.193 M 2141.234 1102.594 L 2160.984 1133.064 M 546.905 2648.484 L 566.653 2678.944" fill="none" vector-effect="non-scaling-stroke" stroke-width="8" stroke="rgb(1,44,68)" stroke-linejoin="miter" stroke-linecap="round" stroke-miterlimit="4"/><path d=" M 1810.274 241.697 C 1800.934 290.139 1795.344 366.656 1815.234 416.144 M 2223.254 558.309" fill="none" vector-effect="non-scaling-stroke" stroke-width="8" stroke="rgb(1,44,68)" stroke-linejoin="miter" stroke-linecap="round" stroke-miterlimit="4"/><path d=" M 320.264 1768.854 C 317.625 1782.544 316.044 1804.164 321.664 1818.144 M 436.964 1858.314" fill="none" vector-effect="non-scaling-stroke" stroke-width="8" stroke="rgb(1,44,68)" stroke-linejoin="miter" stroke-linecap="round" stroke-miterlimit="4"/><path d=" M 1297.134 2381.914 L 1327.594 2351.444 L 1150.904 2157.494 L 1137.704 2242.794 L 686.84 2326.064 L 706.134 2360.584 L 1114.344 2504.784 L 1170.194 2462.134 L 1170.194 2516.964 L 1265.654 2548.444 L 1297.134 2381.914 Z " fill="rgb(1,44,68)"/><path d=" M 917.854 2208.264 L 948.324 2177.804 L 771.632 1983.854 L 758.432 2069.154 L 307.568 2152.414 L 326.862 2186.944 L 735.076 2331.134 L 790.925 2288.484 L 790.925 2343.324 L 886.375 2374.804 L 917.854 2208.264 Z " fill="rgb(1,44,68)"/><path d=" M 1308.304 2337.234 C 1309.114 2330.734 1360.764 2209.954 1386.494 2150.384 M 1168.164 2185.924 L 1193.554 2113.824 M 929.024 2163.584 C 929.844 2157.084 981.924 2047.904 1007.654 1988.334 M 788.894 2012.284 L 816.484 1924.934" fill="none" vector-effect="non-scaling-stroke" stroke-width="8" stroke="rgb(1,44,68)" stroke-linejoin="miter" stroke-linecap="round" stroke-miterlimit="4"/><mask id="_mask_eOSp29DUY6yIK1BCbA0TQbA1USfJ3ahU" x="-200%" y="-200%" width="400%" height="400%"><rect x="-200%" y="-200%" width="400%" height="400%" style="fill:white;"/><path d=" M 2292.874 1773.244 L 2295.484 1794.474 L 2447.274 1807.564 C 2462.004 1808.434 2465.424 1815.204 2455.544 1822.074 C 2465.834 1819.704 2482.334 1831.004 2468.674 1846.454 C 2477.724 1846.344 2487.244 1855.954 2478.214 1866.754" fill="black" stroke="none"/></mask><path d=" M 2292.874 1773.244 L 2295.484 1794.474 L 2447.274 1807.564 C 2462.004 1808.434 2465.424 1815.204 2455.544 1822.074 C 2465.834 1819.704 2482.334 1831.004 2468.674 1846.454 C 2477.724 1846.344 2487.244 1855.954 2478.214 1866.754" fill="none"/><path d=" M 2292.874 1773.244 L 2295.484 1794.474 L 2447.274 1807.564 C 2462.004 1808.434 2465.424 1815.204 2455.544 1822.074 C 2465.834 1819.704 2482.334 1831.004 2468.674 1846.454 C 2477.724 1846.344 2487.244 1855.954 2478.214 1866.754" fill="none" mask="url(#_mask_eOSp29DUY6yIK1BCbA0TQbA1USfJ3ahU)" vector-effect="non-scaling-stroke" stroke-width="16" stroke="rgb(1,44,68)" stroke-linejoin="miter" stroke-linecap="butt" stroke-miterlimit="4"/><mask id="_mask_LsUBp5QhGQDvfpjLqRKdT6eRBbcvbV24" x="-200%" y="-200%" width="400%" height="400%"><rect x="-200%" y="-200%" width="400%" height="400%" style="fill:white;"/><path d=" M 1202.994 1026.164 L 1193.624 867.364 L 1098.234 787.404 L 1006.694 810.564 C 1001.554 817.364 999.854 831.187 1034.264 832.069 C 1068.674 832.951 1085.734 832.437 1089.954 832.069 L 1134.624 884.454 C 1134.074 898.234 1128.664 926.804 1111.464 930.774 C 1108.764 931.394 1081.684 937.944 1073.964 922.504 C 1067.794 910.144 1059.634 884.454 1051.914 867.359 C 1044.004 861.659 1027.314 858.316 1023.794 890.514 C 1020.274 922.712 1055.774 1013.114 1073.964 1054.284" fill="black" stroke="none"/></mask><path d=" M 1202.994 1026.164 L 1193.624 867.364 L 1098.234 787.404 L 1006.694 810.564 C 1001.554 817.364 999.854 831.187 1034.264 832.069 C 1068.674 832.951 1085.734 832.437 1089.954 832.069 L 1134.624 884.454 C 1134.074 898.234 1128.664 926.804 1111.464 930.774 C 1108.764 931.394 1081.684 937.944 1073.964 922.504 C 1067.794 910.144 1059.634 884.454 1051.914 867.359 C 1044.004 861.659 1027.314 858.316 1023.794 890.514 C 1020.274 922.712 1055.774 1013.114 1073.964 1054.284" fill="none"/><path d=" M 1202.994 1026.164 L 1193.624 867.364 L 1098.234 787.404 L 1006.694 810.564 C 1001.554 817.364 999.854 831.187 1034.264 832.069 C 1068.674 832.951 1085.734 832.437 1089.954 832.069 L 1134.624 884.454 C 1134.074 898.234 1128.664 926.804 1111.464 930.774 C 1108.764 931.394 1081.684 937.944 1073.964 922.504 C 1067.794 910.144 1059.634 884.454 1051.914 867.359 C 1044.004 861.659 1027.314 858.316 1023.794 890.514 C 1020.274 922.712 1055.774 1013.114 1073.964 1054.284" fill="none" mask="url(#_mask_LsUBp5QhGQDvfpjLqRKdT6eRBbcvbV24)" vector-effect="non-scaling-stroke" stroke-width="16" stroke="rgb(1,44,68)" stroke-linejoin="miter" stroke-linecap="round" stroke-miterlimit="4"/><path d=" M 2456.144 1821.964 L 2376.354 1822.494 M 2469.604 1846.414 L 2383.024 1847.294 M 2451.014 1875.644 L 2392.704 1865.674" fill="none" vector-effect="non-scaling-stroke" stroke-width="8" stroke="rgb(1,44,68)" stroke-linejoin="miter" stroke-linecap="round" stroke-miterlimit="4"/><path d=" M 1974.994 1350.034 L 1936.854 1213.254 M 1539.674 1289.534 L 1563.344 1188.264" fill="none" vector-effect="non-scaling-stroke" stroke-width="8" stroke="rgb(1,44,68)" stroke-linejoin="miter" stroke-linecap="round" stroke-miterlimit="4"/><mask id="_mask_SJ5oI6eJDR9r7oYrHUZFeg1VXXGWc1pq" x="-200%" y="-200%" width="400%" height="400%"><rect x="-200%" y="-200%" width="400%" height="400%" style="fill:white;"/><line x1="1324.324" y1="1268.484" x2="1313.874" y2="1313.064" fill="black" stroke="none"/></mask><line x1="1324.324" y1="1268.484" x2="1313.874" y2="1313.064" mask="url(#_mask_SJ5oI6eJDR9r7oYrHUZFeg1VXXGWc1pq)" vector-effect="non-scaling-stroke" stroke-width="16" stroke="rgb(1,44,68)" stroke-linejoin="miter" stroke-linecap="round" stroke-miterlimit="4"/><path d=" M 1808.334 902.204 L 1725.974 926.334 L 1728.404 894.154 C 1691.454 873.076 1689.584 832.67 1680.264 819.612 C 1651.474 841.746 1613.854 844.775 1601.314 844.412 C 1599.804 852.252 1600.494 861.852 1601.024 865.672 C 1604.584 885.336 1619.324 927.672 1650.064 942.966 C 1646.324 945.206 1638.134 950.266 1635.224 952.586 L 1561.744 965.326 C 1558.264 939.996 1582.324 925.686 1580.684 880.926 C 1577.854 803.934 1615.474 757.474 1659.904 757.941 C 1688.034 758.241 1704.194 772.248 1725.124 790.541 C 1736.154 800.175 1746.534 802.733 1765.924 820.275 C 1797.714 858.235 1772.694 881.894 1808.334 902.204 L 1808.334 902.204 Z " fill="rgb(1,44,68)"/><path d=" M 1645.284 954.084 L 1650.014 986.074 M 1667.134 945.744 L 1673.664 973.004 M 1692.594 938.314 L 1702.734 962.644 M 1713.094 927.944 L 1726.384 960.394 M 1744.184 926.594 L 1760.404 952.504" fill="none" vector-effect="non-scaling-stroke" stroke-width="8" stroke="rgb(1,44,68)" stroke-linejoin="miter" stroke-linecap="round" stroke-miterlimit="4"/><path d=" M 1600.304 860.337 C 1609.584 858.421 1620.894 860.898 1627.854 871.045 C 1637.264 884.754 1638.204 904.714 1628.194 919.434 C 1629.454 919.524 1641.774 916.754 1650.574 906.024 M 1648.824 854.835 C 1654.334 850.635 1668.214 845.411 1679.644 858.135 M 1653.854 927.764 C 1657.734 927.904 1666.584 926.104 1670.884 917.714" fill="none" vector-effect="non-scaling-stroke" stroke-width="8" stroke="rgb(1,44,68)" stroke-linejoin="miter" stroke-linecap="round" stroke-miterlimit="4"/><path d=" M 1387.834 1378.634 C 1392.604 1371.154 1407.674 1351.214 1429.794 1331.314 C 1553.174 1223.184 1689.614 1362.784 1776.364 1433.554 L 1988.234 1636.954 M 1387.834 1378.634 C 1365.544 1346.004 1291.304 1297.454 1172.664 1364.214 C 1113.624 1395.114 875.414 1738.634 763.685 1906.534 L 1039.374 1999.794 M 1387.834 1378.634 C 1375.604 1395.974 1357.564 1425.844 1338.244 1465.064 M 1254.524 1711.894 L 1106.424 2022.474 L 1039.374 1999.794 M 1254.524 1711.894 L 1154.664 2106.254 L 1387.834 2149.774 M 1254.524 1711.894 C 1273.224 1614.414 1307.354 1527.784 1338.244 1465.064 M 1544.784 1933.614 L 1521.944 2174.794 L 1387.834 2149.774 M 1544.784 1933.614 L 1988.234 1909.914 C 2020.944 1885.994 2085.004 1815.454 2079.604 1724.674 L 1988.234 1636.954 M 1544.784 1933.614 L 1586.464 1589.114 M 1387.834 2149.774 L 1544.784 1418.834 L 1944.664 1860.684 L 1988.234 1636.954 M 1338.244 1465.064 L 1172.664 1433.554 L 1039.374 1999.794" fill="none" vector-effect="non-scaling-stroke" stroke-width="8" stroke="rgb(1,44,68)" stroke-linejoin="miter" stroke-linecap="round" stroke-miterlimit="4"/><path d=" M 1035.874 803.834 C 1036.765 805.231 1038.619 805.642 1040.017 804.752 C 1041.414 803.861 1041.825 802.006 1040.934 800.609 L 1035.874 803.834 Z  M 898.274 726.688 C 956.174 726.688 1006.834 758.275 1035.874 803.834 L 1040.934 800.609 C 1010.904 753.495 958.424 720.688 898.274 720.688 L 898.274 726.688 Z  M 1051.844 834.175 C 1058.358 852.091 1061.678 871.011 1061.654 890.075 L 1067.654 890.075 M 735.365 902.654 Q 734.891 896.429 734.888 890.074 L 728.888 890.074 Q 728.888 896.644 729.382 903.104 L 735.365 902.654 Z " fill="rgb(1,44,68)"/><circle vector-effect="non-scaling-stroke" cx="841.454" cy="1078.094" r="48.692999999999984" fill="none" stroke-width="6" stroke="rgb(1,44,68)" stroke-linejoin="miter" stroke-linecap="butt" stroke-miterlimit="4"/><path d=" M 751.137 765.686 C 770.784 765.802 786.639 781.847 786.523 801.493 C 786.406 821.14 770.361 836.995 750.715 836.879 C 731.069 836.762 715.213 820.717 715.33 801.071 C 715.446 781.425 731.491 765.569 751.137 765.686 Z " fill="none" vector-effect="non-scaling-stroke" stroke-width="6" stroke="rgb(1,44,68)" stroke-linejoin="miter" stroke-linecap="butt" stroke-miterlimit="4"/><circle vector-effect="non-scaling-stroke" cx="841.454" cy="1078.094" r="41.63499999999999" fill="none" stroke-width="6" stroke="rgb(1,44,68)" stroke-linejoin="miter" stroke-linecap="butt" stroke-miterlimit="4"/><path d=" M 751.105 770.956 C 767.843 771.055 781.351 784.725 781.252 801.462 C 781.152 818.2 767.483 831.708 750.745 831.609 C 734.008 831.509 720.499 817.84 720.599 801.102 C 720.698 784.365 734.367 770.857 751.105 770.956 Z " fill="none" vector-effect="non-scaling-stroke" stroke-width="6" stroke="rgb(1,44,68)" stroke-linejoin="miter" stroke-linecap="butt" stroke-miterlimit="4"/><path d=" M 677.619 932.904 C 678.671 932.645 679.502 931.838 679.791 930.794 C 680.081 929.749 679.785 928.63 679.017 927.865 C 678.25 927.101 677.129 926.81 676.086 927.104 L 677.619 932.904 Z  M 529.36 968.964 L 528.594 966.064 L 518.674 968.684 L 528.443 971.824 L 529.36 968.964 Z  M 590.072 988.464 L 589.155 991.314 L 590.942 991.894 L 592.242 990.534 L 590.072 988.464 Z  M 602.326 975.654 L 603.4 972.844 L 601.537 972.134 L 600.158 973.574 L 602.326 975.654 Z  M 635.745 988.464 L 634.672 991.264 L 637.022 992.164 L 638.322 990.004 L 635.745 988.464 Z  M 649.113 966.184 L 651.124 963.954 L 648.417 961.514 L 646.541 964.634 L 649.113 966.184 Z  M 666.38 981.774 L 664.369 984.004 L 665.521 985.044 L 667.036 984.704 L 666.38 981.774 Z  M 694.358 978.574 C 695.439 978.375 696.325 977.6 696.666 976.555 C 697.007 975.51 696.75 974.362 695.995 973.563 C 695.239 972.764 694.108 972.442 693.045 972.724 L 694.358 978.574 Z  M 676.086 927.104 L 528.594 966.064 L 530.126 971.864 L 677.619 932.904 L 676.086 927.104 Z  M 528.443 971.824 L 589.155 991.314 L 590.989 985.604 L 530.277 966.114 L 528.443 971.824 Z  M 592.243 990.534 L 604.494 977.724 L 600.158 973.574 L 587.904 986.384 L 592.243 990.534 Z  M 601.255 978.454 L 634.675 991.264 L 636.822 985.654 L 603.403 972.844 L 601.255 978.454 Z  M 638.321 990.004 L 651.689 967.724 L 646.544 964.634 L 633.176 986.914 L 638.321 990.004 Z  M 647.105 968.404 L 664.372 984.004 L 668.394 979.554 L 651.127 963.954 L 647.105 968.404 Z  M 667.039 984.704 L 694.361 978.574 L 693.048 972.724 L 665.726 978.844 L 667.039 984.704 Z " fill="rgb(1,44,68)"/><path d=" M 820.434 1124.944 L 786.884 1188.004 M 786.884 1188.004 L 753.341 1251.064 L 807.804 1282.234 C 810.064 1271.764 803.664 1251.064 803.664 1251.064 C 803.664 1251.064 830.944 1253.314 830.374 1242.364 C 830.044 1235.964 820.434 1229.314 820.434 1229.314 C 820.434 1229.314 839.714 1231.304 850.254 1226.214 L 786.884 1188.004 Z  M 716.05 785.435 L 669.118 760.111 M 669.118 760.111 L 622.185 734.786 L 598.667 775.31 C 606.473 777.046 621.967 772.357 621.967 772.357 C 621.967 772.357 620.16 792.719 628.343 792.341 C 633.12 792.12 638.127 784.976 638.127 784.976 C 638.127 784.976 636.559 799.36 640.315 807.255 L 669.118 760.111 Z " fill="none" vector-effect="non-scaling-stroke" stroke-width="6" stroke="rgb(1,44,68)" stroke-linejoin="miter" stroke-linecap="butt" stroke-miterlimit="4"/><circle vector-effect="non-scaling-stroke" cx="733.305" cy="941.374" r="10.84699999999998" fill="none" stroke-width="6" stroke="rgb(1,44,68)" stroke-linejoin="miter" stroke-linecap="butt" stroke-miterlimit="4"/><path d=" M 1283.394 334.528 L 1283.394 517.704 L 1042.774 517.704 L 1042.774 334.528 L 1283.394 334.528 Z " fill="rgb(1,44,68)"/><mask id="_mask_s0brckIZtGXibm7LbU7rMWB55LGFnoZc" x="-200%" y="-200%" width="400%" height="400%"><rect x="-200%" y="-200%" width="400%" height="400%" style="fill:white;"/><path d=" M 1266.104 348.373 C 1266.744 301.024 1248.954 205.429 1172.684 201.845 C 1120.564 199.396 1092.164 244.021 1078.394 288.181 L 1107.294 300.021 C 1116.804 261.689 1139.124 227.959 1175.694 231.391 C 1227.174 236.22 1236.454 312.328 1236.674 348.373 L 1266.104 348.373 Z " fill="black" stroke="none"/></mask><path d=" M 1266.104 348.373 C 1266.744 301.024 1248.954 205.429 1172.684 201.845 C 1120.564 199.396 1092.164 244.021 1078.394 288.181 L 1107.294 300.021 C 1116.804 261.689 1139.124 227.959 1175.694 231.391 C 1227.174 236.22 1236.454 312.328 1236.674 348.373 L 1266.104 348.373 Z " fill="none"/><path d=" M 1266.104 348.373 C 1266.744 301.024 1248.954 205.429 1172.684 201.845 C 1120.564 199.396 1092.164 244.021 1078.394 288.181 L 1107.294 300.021 C 1116.804 261.689 1139.124 227.959 1175.694 231.391 C 1227.174 236.22 1236.454 312.328 1236.674 348.373 L 1266.104 348.373 Z " fill="none" mask="url(#_mask_s0brckIZtGXibm7LbU7rMWB55LGFnoZc)" vector-effect="non-scaling-stroke" stroke-width="16" stroke="rgb(1,44,68)" stroke-linejoin="miter" stroke-linecap="butt" stroke-miterlimit="4"/><path d=" M 291.494 797.07 L 335.539 883.523 L 221.981 941.379 L 177.936 854.926 L 291.494 797.07 Z " fill="rgb(1,44,68)"/><mask id="_mask_xhYb2LGIzmS2Xi4cgCVwLxCBujFhA3hB" x="-200%" y="-200%" width="400%" height="400%"><rect x="-200%" y="-200%" width="400%" height="400%" style="fill:white;"/><path d=" M 207.345 761.068 C 170.487 777.716 181.845 829.721 192.129 853.643 L 208.151 847.762 C 198.942 825.954 187.297 783.542 213.499 773.148 C 238.954 763.048 264.008 797.877 272.776 814.838 L 286.667 807.76 C 275.584 785.26 244.203 744.421 207.345 761.068 L 207.345 761.068 Z " fill="black" stroke="none"/></mask><path d=" M 207.345 761.068 C 170.487 777.716 181.845 829.721 192.129 853.643 L 208.151 847.762 C 198.942 825.954 187.297 783.542 213.499 773.148 C 238.954 763.048 264.008 797.877 272.776 814.838 L 286.667 807.76 C 275.584 785.26 244.203 744.421 207.345 761.068 L 207.345 761.068 Z " fill="none"/><path d=" M 207.345 761.068 C 170.487 777.716 181.845 829.721 192.129 853.643 L 208.151 847.762 C 198.942 825.954 187.297 783.542 213.499 773.148 C 238.954 763.048 264.008 797.877 272.776 814.838 L 286.667 807.76 C 275.584 785.26 244.203 744.421 207.345 761.068 L 207.345 761.068 Z " fill="none" mask="url(#_mask_xhYb2LGIzmS2Xi4cgCVwLxCBujFhA3hB)" vector-effect="non-scaling-stroke" stroke-width="16" stroke="rgb(1,44,68)" stroke-linejoin="miter" stroke-linecap="butt" stroke-miterlimit="4"/><path d=" M 622.408 1445.064 L 798.877 1549.386 L 719.458 1683.729 L 542.994 1579.404 L 622.408 1445.064 Z " fill="rgb(1,44,68)"/><mask id="_mask_XQVSXxTaEo07Cjg1Tm2lJxJxECSiM2vZ" x="-200%" y="-200%" width="400%" height="400%"><rect x="-200%" y="-200%" width="400%" height="400%" style="fill:white;"/><path d=" M 775.21 1404.084 C 720.827 1368.384 660.001 1428.644 636.386 1463.234 L 658.186 1479.924 C 679.859 1448.614 727.41 1396.234 764.114 1422.854 C 799.775 1448.714 774.081 1512.754 758.614 1539.284 L 780.2 1552.044 C 801.194 1517.604 829.594 1439.774 775.21 1404.084 L 775.21 1404.084 Z " fill="black" stroke="none"/></mask><path d=" M 775.21 1404.084 C 720.827 1368.384 660.001 1428.644 636.386 1463.234 L 658.186 1479.924 C 679.859 1448.614 727.41 1396.234 764.114 1422.854 C 799.775 1448.714 774.081 1512.754 758.614 1539.284 L 780.2 1552.044 C 801.194 1517.604 829.594 1439.774 775.21 1404.084 L 775.21 1404.084 Z " fill="none"/><path d=" M 775.21 1404.084 C 720.827 1368.384 660.001 1428.644 636.386 1463.234 L 658.186 1479.924 C 679.859 1448.614 727.41 1396.234 764.114 1422.854 C 799.775 1448.714 774.081 1512.754 758.614 1539.284 L 780.2 1552.044 C 801.194 1517.604 829.594 1439.774 775.21 1404.084 L 775.21 1404.084 Z " fill="none" mask="url(#_mask_XQVSXxTaEo07Cjg1Tm2lJxJxECSiM2vZ)" vector-effect="non-scaling-stroke" stroke-width="16" stroke="rgb(1,44,68)" stroke-linejoin="miter" stroke-linecap="butt" stroke-miterlimit="4"/></g><clipPath id="_clipPath_Qal7WQVbeNH0NMeNdfUNmYAEYZWBgCHZ"><path d=" M 1744.444 916.194 C 1770.284 916.994 1782.754 939.174 1783.924 947.754 C 1809.274 947.754 1874.364 952.754 1931.924 972.764 C 1989.484 992.774 2033.384 1059.314 2048.144 1090.094 L 2364.724 1771.944 L 2141.124 1801.834 L 1983.944 1377.564 L 2080.884 1725.234 C 1960.534 1606.884 1694.824 1346.234 1596.534 1303.724 C 1498.244 1261.214 1417.704 1335.244 1389.714 1377.564 C 1381.324 1368.714 1360.744 1349.644 1345.574 1344.154 C 1251.774 1310.934 1173.774 1357.994 1146.504 1385.674 L 995.064 1058.364 L 1234.434 982.584 L 1327.254 1256.214 C 1359.824 1208.994 1436.924 1103.314 1484.804 1058.364 C 1532.684 1013.414 1600.854 989.124 1628.954 982.584 C 1628.964 977.534 1629.664 965.124 1632.494 955.834 C 1636.024 944.224 1712.134 915.184 1744.444 916.194 L 1744.444 916.194 Z " fill="rgb(255,255,255)"/></clipPath><g clip-path="url(#_clipPath_Qal7WQVbeNH0NMeNdfUNmYAEYZWBgCHZ)"><path d=" M 990 900 L 2514.724 900 L 2514.724 1916.483 L 990 1916.483" fill="rgb(206,17,38)"/><path d=" M 990 900 L 1950.576 900 L 1950.576 1916.483 L 990 1916.483" fill="rgb(255,255,255)"/><path d=" M 990 900 L 1447.417 900 L 1447.417 1916.483 L 990 1916.483" fill="rgb(0,38,84)"/></g><g style="isolation:isolate"/></g></svg>