<svg xmlns="http://www.w3.org/2000/svg" width="2547.535" height="2684.476"><g data-name="10" transform="translate(4.394 5.104)"><circle cx="5.331" cy="5.331" r="5.331" transform="translate(1679.579 1213.899)" fill="none" stroke="#012c44" stroke-width="8"/><circle data-name="Oval" cx="5.331" cy="5.331" r="5.331" transform="translate(1281.339 50.854)" fill="none" stroke="#012c44" stroke-width="8"/><circle data-name="Oval" cx="5.331" cy="5.331" r="5.331" transform="translate(94.723 969.519)" fill="none" stroke="#012c44" stroke-width="8"/><circle data-name="Oval" cx="5.331" cy="5.331" r="5.331" transform="translate(1861.459 729.92)" fill="none" stroke="#012c44" stroke-width="8"/><circle data-name="Oval" cx="5.331" cy="5.331" r="5.331" transform="translate(2528.479 1050.799)" fill="none" stroke="#012c44" stroke-width="8"/><circle data-name="Oval" cx="5.331" cy="5.331" r="5.331" transform="translate(394.157 2279.689)" fill="none" stroke="#012c44" stroke-width="8"/><circle data-name="Oval" cx="5.331" cy="5.331" r="5.331" transform="translate(963.379 484.92)" fill="none" stroke="#012c44" stroke-width="8"/><circle data-name="Oval" cx="5.331" cy="5.331" r="5.331" transform="translate(2424.679 2150.919)" fill="none" stroke="#012c44" stroke-width="8"/><circle data-name="Oval" cx="5.331" cy="5.331" r="5.331" transform="translate(1728.649 2224.429)" fill="none" stroke="#012c44" stroke-width="8"/><path fill="none" stroke="#012c44" stroke-linecap="round" stroke-width="8" d="M2174.62 1711.77l29.36 21.35"/><path data-name="Path" fill="none" stroke="#012c44" stroke-linecap="round" stroke-width="8" d="M467.888.484l29.36 21.354M1350.67 2622.63l-29.79 20.75M2219.09 2529.38l-29.79 20.75M156.51 431.953l-29.789 20.75M506.86 1397.33l-29.789 20.75M.792 1827.63l33.79-13.28M2329.47 221.627l19.75 30.462M2136.84 1097.49l19.75 30.47M542.511 2643.38l19.748 30.46"/><path d="M1805.88 236.593c-9.34 48.442-14.93 124.959 4.96 174.447m408.02 142.165a286.946 286.946 0 01-39.76 17.81m-361.52-146.009a80.567 80.567 0 0010.02 13.863m6.66 6.378a58.716 58.716 0 0016.86 9.807m6.04 1.91c8.87 2.309 18.96 2.836 30.38 1.236 102.27-14.317 126.34-135.622 125.59-194.486-2.08-44.727-29.34-102.1-75.76-37.142s-12.29 191.852 10.58 247.18c18.79 40.99 67.82 100.506 144.68 108.791m15.42.949q5.3.086 10.74-.158m8-.537q9.21-.822 18.86-2.635m7.66-1.6q9.375-2.144 19.14-5.291" fill="none" stroke="#012c44" stroke-linecap="round" stroke-width="8"/><path data-name="Shape" d="M315.87 1763.75c-2.639 13.69-4.22 35.31 1.4 49.29m115.3 40.17a81.791 81.791 0 01-11.237 5.04m-102.156-41.26a23 23 0 002.831 3.92m1.882 1.8a16.628 16.628 0 004.763 2.77m1.706.54a21.952 21.952 0 008.586.35c28.9-4.05 35.7-38.33 35.489-54.96-.587-12.64-8.291-28.85-21.407-10.5s-3.473 54.22 2.988 69.85c5.312 11.59 19.166 28.4 40.883 30.75m4.358.26c1 .02 2.009 0 3.036-.04m2.259-.15c1.736-.16 3.513-.4 5.331-.75m2.164-.45q2.649-.6 5.41-1.5" fill="none" stroke="#012c44" stroke-linecap="round" stroke-width="8"/><path data-name="Path" d="M1292.74 2376.81l30.46-30.47-176.69-193.95-13.2 85.3-450.864 83.27 19.294 34.52 408.21 144.2 55.85-42.65v54.83l95.46 31.48z" fill="#012c44"/><path data-name="Path" d="M913.46 2203.16l30.47-30.46-176.692-193.95-13.2 85.3-450.864 83.26 19.294 34.53 408.214 144.19 55.849-42.65v54.84l95.45 31.48z" fill="#012c44"/><path data-name="Shape" d="M1303.91 2332.13c.81-6.5 52.46-127.28 78.19-186.85m-218.33 35.54l25.39-72.1M924.63 2158.48c.82-6.5 52.9-115.68 78.63-175.25m-218.76 23.95l27.59-87.35" fill="none" stroke="#012c44" stroke-linecap="round" stroke-width="8"/><path data-name="Path" d="M2288.48 1768.14l2.61 21.23 151.79 13.09c14.73.87 18.15 7.64 8.27 14.51 10.29-2.37 26.79 8.93 13.13 24.38 9.05-.11 18.57 9.5 9.54 20.3a17.3 17.3 0 01-8.06 4.8c-4.19 1.14-16.86 2.75-22.67 3.41l29.24 8.78c9.04 2.71 10.88 20.1-5.96 19.85l-128.92-13.93 60.57 37.31c7.5 7.92 5.73 28.67-16.33 20.35-10.59-3.18-102.62-22.39-144.24-43.3l-36.81-36.3-42.21-107.2" fill="none" stroke="#012c44" stroke-width="8"/><path data-name="Path" d="M1198.6 1021.06l-9.37-158.8-95.39-79.96-91.54 23.16c-5.14 6.8-6.84 20.623 27.57 21.505s51.47.368 55.69 0l44.67 52.385c-.55 13.78-5.96 42.35-23.16 46.32-2.7.62-29.78 7.17-37.5-8.27-6.17-12.36-14.33-38.05-22.05-55.145-7.91-5.7-24.6-9.043-28.12 23.155s31.98 122.6 50.17 163.77" fill="none" stroke="#012c44" stroke-linecap="round" stroke-width="8"/><path data-name="Shape" d="M2451.75 1816.86l-79.79.53m93.25 23.92l-86.58.88m67.99 28.35l-58.31-9.97" fill="none" stroke="#012c44" stroke-linecap="round" stroke-width="8"/><path data-name="Path" d="M1740.05 911.09c25.84.8 38.31 22.98 39.48 31.56 25.35 0 90.44 5 148 25.01s101.46 86.55 116.22 117.33l316.58 681.85-223.6 29.89-157.18-424.27 96.94 347.67c-120.35-118.35-386.06-379-484.35-421.51s-178.83 31.52-206.82 73.84c-8.39-8.85-28.97-27.92-44.14-33.41-93.8-33.22-171.8 13.84-199.07 41.52l-151.44-327.31 239.37-75.78 92.82 273.63c32.57-47.22 109.67-152.9 157.55-197.85s116.05-69.24 144.15-75.78c.01-5.05.71-17.46 3.54-26.75 3.53-11.61 79.64-40.65 111.95-39.64z" fill="#84C188"/><path data-name="Shape" d="M1970.6 1344.93l-38.14-136.78m-397.18 76.28l23.67-101.27" fill="none" stroke="#012c44" stroke-linecap="round" stroke-width="8"/><path data-name="Path" fill="none" stroke="#012c44" stroke-linecap="round" stroke-width="8" d="M1319.93 1263.38l-10.45 44.58"/><path data-name="Path" d="M1803.94 897.1l-82.36 24.13 2.43-32.18c-36.95-21.078-38.82-61.484-48.14-74.542-28.79 22.134-66.41 25.163-78.95 24.8-1.51 7.84-.82 17.44-.29 21.26 3.56 19.664 18.3 62 49.04 77.294-3.74 2.24-11.93 7.3-14.84 9.62l-73.48 12.74c-3.48-25.33 20.58-39.64 18.94-84.4-2.83-76.992 34.79-123.452 79.22-122.985 28.13.3 44.29 14.307 65.22 32.6 11.03 9.634 21.41 12.192 40.8 29.734 31.79 37.96 6.77 61.619 42.41 81.929z" fill="#012c44"/><path data-name="Shape" d="M1640.89 948.98l4.73 31.99m17.12-40.33l6.53 27.26m18.93-34.69l10.14 24.33m10.36-34.7l13.29 32.45m17.8-33.8l16.22 25.91" fill="none" stroke="#012c44" stroke-linecap="round" stroke-width="8"/><path data-name="Path" d="M1595.91 855.233c9.28-1.916 20.59.561 27.55 10.708 9.41 13.709 10.35 33.669.34 48.389 1.26.09 13.58-2.68 22.38-13.41M1644.43 849.731c5.51-4.2 19.39-9.424 30.82 3.3M1649.46 922.66c3.88.14 12.73-1.66 17.03-10.05M1649.28 869.94a28.588 28.588 0 0027.62-6.691M1597.99 879.33c5.26 4.84 18.26 10.78 28.1-4.2" fill="none" stroke="#012c44" stroke-linecap="round" stroke-width="8"/><path data-name="Shape" d="M1383.44 1373.53c4.77-7.48 19.84-27.42 41.96-47.32 123.38-108.13 259.82 31.47 346.57 102.24l211.87 203.4m-600.4-258.32c-22.29-32.63-96.53-81.18-215.17-14.42-59.04 30.9-297.25 374.42-408.979 542.32l275.689 93.26m348.46-621.16c-12.23 17.34-30.27 47.21-49.59 86.43m-83.72 246.83l-148.1 310.58-67.05-22.68m215.15-287.9l-99.86 394.36 233.17 43.52m-133.31-437.88c18.7-97.48 52.83-184.11 83.72-246.83m206.54 468.55l-22.84 241.18-134.11-25.02m156.95-216.16l443.45-23.7c32.71-23.92 96.77-94.46 91.37-185.24l-91.37-87.72m-443.45 296.66l41.68-344.5m-198.63 560.66l156.95-730.94 399.88 441.85 43.57-223.73m-649.99-171.89l-165.58-31.51-133.29 566.24" fill="none" stroke="#012c44" stroke-linecap="round" stroke-width="8"/><path data-name="Shape" d="M1031.48 798.73a3 3 0 105.06-3.225zm25.78 86.24a163.383 163.383 0 01-163.38 163.38v6a169.375 169.375 0 00169.38-169.38zM893.88 721.584c57.9 0 108.56 31.587 137.6 77.146l5.06-3.225c-30.03-47.114-82.51-79.921-142.66-79.921zm153.57 107.487a163 163 0 019.81 55.9h6a169.152 169.152 0 00-10.17-57.952zM730.971 897.55q-.474-6.225-.477-12.58h-6q0 6.57.494 13.03zm81.959 129.37a163.672 163.672 0 01-77.91-103.6l-5.833 1.4a169.684 169.684 0 0080.763 107.41zm80.95 21.43a162.738 162.738 0 01-73.4-17.37l-2.7 5.36a168.769 168.769 0 0076.1 18.01zM730.494 884.97a163.18 163.18 0 018.73-52.833l-5.678-1.939a169.16 169.16 0 00-9.052 54.772zm10.517-57.8A163.451 163.451 0 01893.88 721.584v-6A169.446 169.446 0 00735.4 825.046z" fill="#012c44"/><circle data-name="Oval" cx="48.693" cy="48.693" r="48.693" transform="translate(788.367 1024.297)" fill="none" stroke="#012c44" stroke-width="6"/><circle data-name="Oval" cx="35.597" cy="35.597" r="35.597" transform="rotate(90.34 13.024 769.252)" fill="none" stroke="#012c44" stroke-width="6"/><circle data-name="Oval" cx="41.635" cy="41.635" r="41.635" transform="translate(795.425 1031.355)" fill="none" stroke="#012c44" stroke-width="6"/><circle data-name="Oval" cx="30.327" cy="30.327" r="30.327" transform="rotate(90.34 7.769 769.236)" fill="none" stroke="#012c44" stroke-width="6"/><path data-name="Path" d="M672.213 925.16a41.342 41.342 0 1117 45.59" fill="none" stroke="#012c44" stroke-width="6"/><path data-name="Shape" d="M673.225 927.8a3 3 0 10-1.533-5.8zm-148.259 36.06l-.766-2.9-9.92 2.62 9.769 3.14zm60.712 19.5l-.917 2.85 1.787.58 1.3-1.36zm12.254-12.81l1.074-2.81-1.863-.71-1.379 1.44zm33.419 12.81l-1.073 2.8 2.35.9 1.3-2.16zm13.368-22.28l2.011-2.23-2.707-2.44-1.876 3.12zm17.267 15.59l-2.011 2.23 1.152 1.04 1.515-.34zm27.978-3.2a3 3 0 10-1.313-5.85zM671.692 922L524.2 960.96l1.532 5.8 147.493-38.96zm-147.643 44.72l60.712 19.49 1.834-5.71-60.712-19.49zm63.8 18.71l12.251-12.81-4.336-4.15-12.254 12.81zm9.012-12.08l33.42 12.81 2.147-5.61-33.419-12.81zm37.066 11.55l13.368-22.28-5.145-3.09-13.368 22.28zm8.784-21.6l17.267 15.6 4.022-4.45-17.267-15.6zm19.934 16.3l27.322-6.13-1.313-5.85-27.322 6.12z" fill="#012c44"/><path data-name="Shape" d="M816.04 1119.84l-33.55 63.06m0 0l-33.543 63.06 54.463 31.17c2.26-10.47-4.14-31.17-4.14-31.17s27.28 2.25 26.71-8.7c-.33-6.4-9.94-13.05-9.94-13.05s19.28 1.99 29.82-3.1zM711.656 780.331l-46.932-25.324m0 0l-46.933-25.325-23.518 40.524c7.806 1.736 23.3-2.953 23.3-2.953s-1.807 20.362 6.376 19.984c4.777-.221 9.784-7.365 9.784-7.365s-1.568 14.384 2.188 22.279z" fill="none" stroke="#012c44" stroke-width="6"/><circle data-name="Oval" cx="10.847" cy="10.847" r="10.847" transform="translate(718.064 925.423)" fill="none" stroke="#012c44" stroke-width="6"/><path d="M1279 329.424V512.6h-240.62V329.424zm-120.31 45.369a24.212 24.212 0 00-10.658 45.949l-19.342 55.763h60l-19.827-55.532a24.212 24.212 0 00-10.173-46.181z" fill="#012c44"/><path data-name="Path" d="M1261.71 343.269c.64-47.349-17.15-142.944-93.42-146.528-52.12-2.449-80.52 42.176-94.29 86.336l28.9 11.84c9.51-38.332 31.83-72.062 68.4-68.63 51.48 4.829 60.76 80.937 60.98 116.982z" fill="none" stroke="#012c44" stroke-width="8"/><path data-name="Combined-Shape" d="M287.1 791.966l44.045 86.453-113.558 57.856-44.045-86.453zm-28.623 55.944a12.822 12.822 0 10-11.227 18.644l4.277 30.975 28.321-14.43-22.713-21.444a12.824 12.824 0 001.342-13.745z" fill="#012c44"/><path data-name="Path" d="M202.951 755.964c-36.858 16.648-25.5 68.653-15.216 92.575l16.022-5.881c-9.209-21.808-20.854-64.22 5.348-74.614 25.455-10.1 50.509 24.729 59.277 41.69l13.891-7.078c-11.083-22.5-42.464-63.339-79.322-46.692z" fill="none" stroke="#012c44" stroke-width="8"/><path data-name="Combined-Shape" d="M618.014 1439.96l176.469 104.322-79.419 134.343L538.6 1574.3zm68.565 85.436a20.627 20.627 0 00-27.74 29.075l-38.363 32.509 44.009 26.02 9.53-49.325a20.627 20.627 0 0012.565-38.279z" fill="#012c44"/><path data-name="Path" d="M770.816 1398.98c-54.383-35.7-115.209 24.56-138.824 59.15l21.8 16.69c21.673-31.31 69.224-83.69 105.928-57.07 35.661 25.86 9.967 89.9-5.5 116.43l21.586 12.76c20.994-34.44 49.394-112.27-4.99-147.96z" fill="none" stroke="#012c44" stroke-width="8"/></g></svg>