<svg xmlns="http://www.w3.org/2000/svg" width="565.529" height="572.075"><g data-name="14" transform="translate(1.5 2.075)"><circle cx="1.154" cy="1.154" r="1.154" transform="translate(453.735 269.543)" fill="none" stroke="#012c44" stroke-width="3"/><circle data-name="Oval" cx="1.154" cy="1.154" r="1.154" transform="translate(211.718 269.543)" fill="none" stroke="#000" stroke-width="3"/><circle data-name="Oval" cx="1.154" cy="1.154" r="1.154" transform="translate(66.358 442.268)" fill="none" stroke="#012c44" stroke-width="3"/><circle data-name="Oval" cx="1.154" cy="1.154" r="1.154" transform="translate(68.378 34.98)" fill="none" stroke="#012c44" stroke-width="3"/><circle data-name="Oval" cx="1.154" cy="1.154" r="1.154" transform="translate(385.433 92.562)" fill="none" stroke="#000" stroke-width="3"/><circle data-name="Oval" cx="1.154" cy="1.154" r="1.154" transform="translate(230.333 470.275)" fill="none" stroke="#000" stroke-width="3"/><path fill="none" stroke="#000" stroke-linecap="round" stroke-width="3" d="M517.438 128.717l6.358 4.624"/><path d="M115.294 373.89c-3.657 5.065-8.383 13.557-8.738 20.3m39.283 38.1a36.151 36.151 0 01-5.517-.076m-33.735-36.059a10.161 10.161 0 00.411 2.126m.425 1.089a7.416 7.416 0 001.413 2.025m.591.541a9.784 9.784 0 003.424 1.763c12.511 3.814 21.748-8.838 24.8-15.638 2.148-5.249 2.077-13.295-6.72-8.309s-11.648 21.383-11.974 28.956c-.028 5.713 2.428 15.163 10.814 20.216m1.721.933q.6.292 1.242.554m.947.364a23.624 23.624 0 002.307.7m.965.225c.794.169 1.621.31 2.482.414" fill="none" stroke="#012c44" stroke-linecap="round" stroke-width="3"/><path data-name="Shape" d="M452.272 95.738c-7.1 9.839-16.279 26.329-16.97 39.431m76.294 73.994a70.408 70.408 0 01-10.718-.147m-65.516-70.033a19.715 19.715 0 00.8 4.131m.823 2.113a14.425 14.425 0 002.746 3.934m1.148 1.052a19.046 19.046 0 006.651 3.424c24.3 7.4 42.238-17.164 48.169-30.373 4.173-10.193 4.035-25.817-13.05-16.136s-22.622 41.526-23.256 56.238c-.052 11.092 4.717 29.448 21 39.261m3.342 1.81q1.173.568 2.413 1.078m1.841.708q2.141.773 4.481 1.367m1.875.437q2.313.494 4.819.8" fill="none" stroke="#C9E4CB" stroke-linecap="round" stroke-width="3"/><path data-name="Path" d="M421.878 301.706c3.939-8.14 18.589-19.534 45.685 0s44.895 8.138 50.408 0M475.554 342.8c1.572-3.253 7.426-7.8 18.251 0s17.938 3.251 20.14 0" fill="none" stroke="#012c44" stroke-linecap="round" stroke-width="3"/><path data-name="Path" fill="none" stroke="#000" stroke-linecap="round" stroke-width="3" d="M209.693 340.488l6.358 4.624M241.107 65.1l6.358 4.624M285.469 5.224l6.852-3.852M191.098 522.219l6.358 4.624"/><path data-name="Path" fill="none" stroke="#012c44" stroke-linecap="round" stroke-width="3" d="M18.603 335.684l-6.451 4.494"/><path data-name="Path" fill="none" stroke="#000" stroke-linecap="round" stroke-width="3" d="M389.811 501.562l-6.451 4.494"/><path data-name="Path" fill="none" stroke="#012c44" stroke-linecap="round" stroke-width="3" d="M551.245 391.364l-6.451 4.494M43.653 143.106l-4.559-6.405"/><path data-name="Path" fill="none" stroke="#000" stroke-linecap="round" stroke-width="3" d="M554.767 62.614l7.318-2.875M523.459 0l4.277 6.597"/><path data-name="Path" fill="none" stroke="#012c44" stroke-linecap="round" stroke-width="3" d="M12.095 509.224l4.277 6.596"/><path data-name="Path" d="M339.197 546.554h18.47l-9.325-51.686h-34.785l4.134 13.093-74.704 38.593h86.283l8.268-11.3z" fill="#012c44"/><path data-name="Shape" d="M338.756 455.19l9.583 39.674m-47.946-37.755l13.165 37.755m0 0l4.134 13.093-74.7 38.593h86.283l8.268-11.3 1.655 11.3h18.47l-9.325-51.686m-34.781 0h34.781" fill="none" stroke="#012c44" stroke-linecap="round" stroke-width="3"/><path data-name="Path" d="M476.324 463.326l12.437-13.654-44.49-27.91-23.421 25.714 12.465 5.76-21.773 81.216 58.1-63.79-2.787-13.723z" fill="#012c44"/><path data-name="Shape" d="M422.096 409.275l22.178 12.487m-44.778 16.323l21.355 9.392m0 0l12.465 5.76-21.773 81.216 58.1-63.789-2.787-13.723 9.468 6.386 12.437-13.654-44.49-27.91m-23.421 25.714l23.421-25.714" fill="none" stroke="#012c44" stroke-linecap="round" stroke-width="3"/><path data-name="Path" d="M325.148 270.667l-6.607 4.745-16.621 35.3c-1.516 3.463-4.712 3.662-4.219.7-1.473 2.436-4.522 5.641-7.023.987-.775 2.185-3.931 3.619-5.724.489a4.433 4.433 0 01-.437-2.36c.1-1.109.836-4.294 1.193-5.747l-4.7 6.241c-1.455 1.934-5.8.832-4.24-3.194l13.3-25.249-12.844 6.757c-2.571 1.1-7.4-1.169-3.439-5.728 1.7-2.263 19.564-19.111 28.283-27.254l9.154-4.552" fill="none" stroke="#000" stroke-width="3"/><path data-name="Shape" d="M297.672 311.559l6.958-19.215m-14.024 20.279l7.474-20.876m-12.846 13.817l7.571-13.123M275.287 127.85l2.374 9.859 4.234-1.019m-22.34-1.579l1.583 6.577-4.4 1.059" fill="none" stroke="#000" stroke-linecap="round" stroke-width="3"/><path data-name="Path" d="M275.668 130.943l-.782-3.252 1.258-2.979c-11.733-8.083-18.412-15.956-20.285-18.882a25.853 25.853 0 01-6.256 6.031 16.278 16.278 0 00-.3 4.595c.567 4.387 3.4 14.026 10.2 17.487s12.426-1.76 14.39-4.8a14.241 14.241 0 01-2.044 5.271c-2.807 3.987-9.581 5.28-11.521 4.813l-.97-4.035-17.067 1.449c-.253-2.937 3.937-5.079 3.062-9.982-3.972-22.233 5.568-33.608 17.866-32.856 9.046.553 15.166 8.485 23.423 16.748 5.767 5.772 14.066 5.907 15.2 12.931z"/><path data-name="Path" d="M249.209 115.294a5.7 5.7 0 015.845 2.618 9.488 9.488 0 01-.459 10.47 8.3 8.3 0 004.99-2.656M259.764 114.635a4.832 4.832 0 016.631 1.052M260.054 130.463a4.14 4.14 0 003.794-1.987M0 568.5h544.794" fill="none" stroke="#000" stroke-linecap="round" stroke-width="3"/><path data-name="Path" d="M273.797 109.955l-17.673 11.344 12.181-.955z"/><path data-name="Path" d="M236.259 121.632l20.989-.763-10.551 6.163z"/><path d="M266.35 114.747l1.243 5.645-1.243.094-1.161-4.983zm2.735-1.752l.344 5.215-.734 1.4-1.267-5.543z" fill="#fff"/><path data-name="Path" d="M245.103 121.311l1.373-.051 1.908 4.773-1.074.631zM241.842 121.43l1.986-.079 2.131 5.3-1.4-.731z" fill="#fff"/><path data-name="Path" d="M257.496 225.56c-2.259 28.46-6.412 99.6-5.057 147.03s19.085 89.33 27.782 104.349c1.354-8.242 9.011-23.648 28.8-19.311 24.733 5.42 30.154-4.065 36.93-7.114 5.42-2.441 11.519-1.018 13.89 0l-44.044-77.924v-67.421c2.824 20.779 12.807 69.251 30.154 96.9s32.75 48.561 38.285 55.563c-1.808-4.292-.474-14.568 19.31-21.344 24.733-8.47 7.114-25.071 25.411-32.187 10.3-3.523 16.036-5.08 17.617-5.421l-54.547-46.415-67.865-152.272" fill="none" stroke="#012c44" stroke-width="3"/><path data-name="Shape" d="M327.082 241.414l37.452 109.542 67.947 51.84m-125.966-175.2c5.219 5.936 18.938 17.221 32.077 14.888" fill="none" stroke="#012c44" stroke-linecap="round" stroke-width="3"/><path data-name="Path" d="M116.273 226.903l-50.4 2.984 45.834 76.04 46.186-11.239z" fill="none" stroke="#012c44" stroke-width="3"/><path data-name="Shape" d="M168.245 279.184l-4.5-.3-11.9 5.607m21.29-28.473l-9.956-2.321c-7.579.461-20.263 1.284-29.191 1.99" fill="none" stroke="#012c44" stroke-width="3"/><path data-name="Path" d="M278.914 162.571l-19.666-21.333c-3.712.761-9.167 2.439-17.255 4.394-15.822 4.178-23.15 19.235-24.744 25.828l-11 69.887-47.666 9.444 8.444 32.778c8.852-1.594 31.134-5.667 49.444-9.223s24-12.74 24.556-16.887l9-50.556 6.443 20.445 68.777-27.334-5.221-13.334 23.332 26-38.554 37 22.665 25.777c50.133-30.931 52.594-58.887 47.556-69-5.26-10.889-18.423-37.622-29-57.444s-29.445-21.3-37.556-19.555l-27.327 6.447z" fill="#C9E4CB"/><path data-name="Path" fill="none" stroke="#000" stroke-linecap="round" stroke-width="3" d="M249.258 203.201l-4.465-13.557M318.535 182.367l-4.465-13.557M358.14 206.254l-12.911 6.087"/><path data-name="Path" d="M89.931 233.926l-3.238-5.275 15.355-.7 2.459 4.216z" stroke="#012c44"/><circle data-name="Oval" cx="12.858" cy="12.858" r="12.858" transform="translate(323.656 542.783)" fill="#012c44"/><circle data-name="Oval" cx="12.858" cy="12.858" r="12.858" transform="rotate(-47.68 766.336 -288.022)" fill="#012c44"/><circle data-name="Oval" cx="12.858" cy="12.858" r="12.858" transform="translate(258.329 542.783)" fill="#012c44"/><circle data-name="Oval" cx="12.858" cy="12.858" r="12.858" transform="rotate(-47.68 799.01 -214.063)" fill="#012c44"/><path data-name="Path" d="M101.567 159.947l.311-.622-.54-.439c-12.717-10.32-20.6-24.839-20.6-40.89 0-31.114 29.7-56.566 66.645-56.566s66.645 25.451 66.645 56.566-29.7 56.566-66.645 56.566a76.474 76.474 0 01-27.832-5.155l-.463-.181-.39.308-36.308 28.7z" fill="none" stroke="#C9E4CB" stroke-width="3"/><path data-name="Path" d="M104.526 135.385c5.411-13.994 18.192-40.022 26.028-32.186s3.265 22.857 0 29.387c4.2-5.5 12.315-13.938 11.2-3.638-1.4 12.874-2.239-10.915 9.516-3.638s4.758 15.113 0 10.075 5.318-13.994 11.755-8.4 8.4 12.874 14.274 5.6c4.7-5.822 9.982-24.443 12.035-33.025" fill="none" stroke="#012c44" stroke-linecap="round" stroke-width="3"/></g></svg>