<svg xmlns="http://www.w3.org/2000/svg" width="2582.418" height="2582.876" viewBox="0 0 2582.418 2582.876">
  <g id="Page-1" transform="translate(1.03 1.088)">
    <g id="_4" data-name="4" transform="translate(4 4)">
      <g id="Background">
        <circle id="Oval" cx="5.3" cy="5.3" r="5.3" transform="translate(1994.6 1571.7)" fill="none" stroke="#012c44" stroke-width="8"/>
        <circle id="Oval-2" data-name="Oval" cx="5.3" cy="5.3" r="5.3" transform="translate(1266.4 50.9)" fill="none" stroke="#012c44" stroke-width="8"/>
        <circle id="Oval-3" data-name="Oval" cx="5.3" cy="5.3" r="5.3" transform="translate(186.9 1017.1)" fill="none" stroke="#012c44" stroke-width="8"/>
        <circle id="Oval-4" data-name="Oval" cx="5.3" cy="5.3" r="5.3" transform="translate(522.8 2393)" fill="none" stroke="#012c44" stroke-width="8"/>
        <circle id="Oval-5" data-name="Oval" cx="5.3" cy="5.3" r="5.3" transform="translate(2193.2 525.9)" fill="none" stroke="#012c44" stroke-width="8"/>
        <circle id="Oval-6" data-name="Oval" cx="5.3" cy="5.3" r="5.3" transform="translate(570.9 299.2)" fill="none" stroke="#012c44" stroke-width="8"/>
        <line id="Path" x2="29.4" y2="21.4" transform="translate(2542.4 1679.5)" fill="none" stroke="#012c44" stroke-linecap="round" stroke-width="8"/>
        <line id="Path-2" data-name="Path" x2="29.4" y2="21.4" transform="translate(452.9 0.5)" fill="none" stroke="#012c44" stroke-linecap="round" stroke-width="8"/>
        <line id="Path-3" data-name="Path" x1="29.8" y2="20.8" transform="translate(177.3 1835.6)" fill="none" stroke="#012c44" stroke-linecap="round" stroke-width="8"/>
        <line id="Path-4" data-name="Path" x1="29.8" y2="20.8" transform="translate(2174.3 2529.4)" fill="none" stroke="#012c44" stroke-linecap="round" stroke-width="8"/>
        <line id="Path-5" data-name="Path" x1="29.8" y2="20.8" transform="translate(111.7 432)" fill="none" stroke="#012c44" stroke-linecap="round" stroke-width="8"/>
        <line id="Path-6" data-name="Path" y1="13.3" x2="33.8" transform="translate(1620.3 116.3)" fill="none" stroke="#012c44" stroke-linecap="round" stroke-width="8"/>
        <line id="Path-7" data-name="Path" x2="19.8" y2="30.5" transform="translate(2361.8 56.2)" fill="none" stroke="#012c44" stroke-linecap="round" stroke-width="8"/>
        <line id="Path-8" data-name="Path" x2="19.7" y2="30.5" transform="translate(0.5 2407.6)" fill="none" stroke="#012c44" stroke-linecap="round" stroke-width="8"/>
        <path id="Shape" d="M2129.2,1627.3c-9.3,48.4-14.9,124.9,5,174.4m408,142.2a278.013,278.013,0,0,1-39.8,17.8m-361.5-146a89.537,89.537,0,0,0,10,13.9m6.7,6.3a60.318,60.318,0,0,0,16.9,9.8m6,1.9c8.9,2.3,19,2.8,30.4,1.2,102.3-14.3,126.3-135.6,125.6-194.5-2.1-44.7-29.3-102.1-75.8-37.2-46.4,65-12.3,191.9,10.6,247.2,18.8,41,67.8,100.5,144.7,108.8m15.4,1.1c3.5.1,7.1,0,10.8-.1m7.9-.6c6.1-.6,12.4-1.4,18.9-2.6m7.6-1.7c6.3-1.4,12.6-3.2,19.2-5.3" fill="none" stroke="#012c44" stroke-linecap="round" stroke-width="8" fill-rule="evenodd"/>
        <path id="Shape-2" data-name="Shape" d="M316,487.3c-4.1,21.4-6.6,55.3,2.2,77.2m180.5,62.9a121.409,121.409,0,0,1-17.6,7.9m-160-64.7a35.272,35.272,0,0,0,4.4,6.1m3,2.9a25.285,25.285,0,0,0,7.5,4.3m2.6.9a32.817,32.817,0,0,0,13.4.5c45.2-6.3,55.9-60,55.6-86.1-.9-19.8-13-45.2-33.5-16.4-20.5,28.7-5.4,84.9,4.7,109.4,8.3,18.1,30,44.5,64,48.1m6.8.5c1.6,0,3.1,0,4.8-.1m3.5-.2a61.5,61.5,0,0,0,8.3-1.2m3.5-.7c2.8-.6,5.6-1.4,8.5-2.3" fill="none" stroke="#012c44" stroke-linecap="round" stroke-width="8" fill-rule="evenodd"/>
      </g>
      <g id="Girl" transform="translate(541 85)">
        <path id="Path-9" data-name="Path" d="M734.6,256.4c14.8-8.9,24.6-25.9,27.8-32.9-5.6,10.8-24,27.6-53.5,8.6s-36.5-60.6-36.4-79.1c5.7-10.7,13.3-30.4,16.4-38.9,36.6,38.8,73.5,46,87.4,44.7,0,0,7.3-7.1,15.4-7.1,20.5,1.3,20,29,5.6,32.1-11.5,2.4-17.2-1-19-1l-5.1,20.7,12,53.5,106.1,2c23.8-13.9,61.5-19.3,77-19.9,17.5-26.8,44.7-83.3,13.1-95.2C942,129,951.3,118.1,931.9,95.2c-19.4-23-52.5,1.5-72.7,14.1s-51,7.3-62.6-19.4c-18-48.3-47.7-55.8-60.4-53.5-19.3,1.6-61.1,21.6-74,88.9s22.7,115.4,42,130.9Z" fill="#012c44"/>
        <path id="Path-10" data-name="Path" d="M666.4,152.8c9.1-2.5,20.6-.8,28.2,8.9,10.3,13.1,12.5,32.9,3.5,48.3,1.3,0,13.4-3.6,21.5-14.9" fill="none" stroke="#012c44" stroke-linecap="round" stroke-width="8" fill-rule="evenodd"/>
        <path id="Path-11" data-name="Path" d="M714.5,144.2c5.2-4.6,18.7-10.7,31,1.3" fill="none" stroke="#012c44" stroke-linecap="round" stroke-width="8" fill-rule="evenodd"/>
        <path id="Path-12" data-name="Path" d="M724.3,216.6c3.9-.1,12.6-2.5,16.3-11.1" fill="none" stroke="#012c44" stroke-linecap="round" stroke-width="8" fill-rule="evenodd"/>
        <path id="Path-13" data-name="Path" d="M720.7,164c2.6-6.8,11.6-18,27.1-8.5" fill="none" stroke="#012c44" stroke-linecap="round" stroke-width="8" fill-rule="evenodd"/>
        <path id="Path-14" data-name="Path" d="M670.1,176.8c3.2-6.5,13.2-16.9,27.8-6" fill="none" stroke="#012c44" stroke-linecap="round" stroke-width="8" fill-rule="evenodd"/>
        <circle id="Oval-7" data-name="Oval" cx="5.8" cy="5.8" r="5.8" transform="translate(726.774 155.384) rotate(-17.373)" fill="#012c44"/>
        <circle id="Oval-8" data-name="Oval" cx="5.8" cy="5.8" r="5.8" transform="translate(676.916 168.62) rotate(-12.263)" fill="#012c44"/>
        <path id="Path-15" data-name="Path" d="M814,4.3c-30-15.7-51.3,23-58.2,44.2l26.9,21.3C802.8,63.7,851.6,23.9,814,4.3Z" fill="#012c44"/>
        <path id="Path-16" data-name="Path" d="M827.3,797.7l64-539-106-1.7c-5.6,16.3-39.8,23.4-50.8-.8l-66.7-1.1,87.5,542.5h72Z" fill="#ff8073"/>
        <path id="Shape-3" data-name="Shape" d="M989.5,791.1l7.5,255.6L665.4,1447.1l148.5,602.8H780.4M674.1,966.6c-10.9,11.3-23.7,25.1-37.7,40.8m-33.9,39.2c-70.3,83.7-153.6,198.1-178.8,285.4-3.5,13.4-6.8,27.2-9.8,41.2m188.6-326.6-346.2,53.9,157.6,272.7m188.6-326.6c11.8-14.1,23.2-27.2,34-39.3M413.8,1373.2c-22.5,104.3-30.8,221.6-31.3,331.6m0,0c-.7,142,11.4,271.7,22.2,345.1H780.4M382.5,1704.8,339,1738.5M578,786.1C333.4,799,150.9,887.5,90.2,930.2,52.8,958.8-16.7,1049.6,4.3,1183.5c21,134,154.3,485.8,218.4,645L339,1738.4m297.4-731.1H160.1L339,1738.4m441.4,311.5L578,1318.9l334.9-263.5L900,951.9M851.8,838.4c7.8,43.2,41.3,137.5,113.6,168.9" fill="none" stroke="#012c44" stroke-linecap="round" stroke-width="8" fill-rule="evenodd"/>
        <path id="Shape-4" data-name="Shape" d="M1262.3,1053.6l38.4,89,124.2-19.6,83-46.8c8.2-5.9,17.8-17.7-9.5-17.9-23.8,0-50.6,9-61.1,13.5l66.3-48.4,71.5-22.2c8.8-3.9,8.7-22.5-17.5-18m-.2-.1c1-6.9-.8-20.6-16.5-20.2m16.5,20.2-64.5,18-39.5,32.8m87.4-71c-.1-4.9-5.5-13.3-26.4-8.1m26.4,8.1-75.4,28-28.3,34.5m77.4-70.6a19.432,19.432,0,0,0-19.9-8.7c-10.8,1.8-48.4,10-65.5,16.8l-75.6,60.3-13.3-15m174.3-53.4-70,25.3-28.7,31.8" fill="none" stroke="#012c44" stroke-linecap="round" stroke-width="8" fill-rule="evenodd"/>
        <path id="Path-17" data-name="Path" d="M885.3,262.2c33.9-19.4,122.2-49.5,203.7-14.5,81.5,34.9,87.5,104.1,80.4,134.4,29.3-.9,90.5,16.1,100.5,91.4,0,37.7-16.6,59.1-24.9,65.1,21.7,7.9,64,35.9,59.6,85.2-3.3,25.5-12.5,42-16.6,47.1,28.9,8.3,81.8,39.6,62.3,98.4-8.9,20.5-23.6,36.8-30,43.5,13.2,1.6,40.4,16.1,46,52.1,0,19.4-10.6,40-15.9,47.8,13.9,9.7,31.2,35.8-10.4,62.3l5.5,33.3-85.9,49.2-31.2-65.8c-28.4.5-82.6-17.2-72-91.4,1.5-8.4,7.6-15.6,10.5-18.2-33-4.8-90.1-34.1-54.8-112.8-25-9.9-67-43-34.5-96.1-15.6-9.5-44.7-36.7-37.5-70.3-2.7,11.6-11.6,36.2-27.7,47.8,12.3,5.2,37,22.3,37,49s-13.3,36.8-20,38.4c8.3,16,12.6,48.7-37,52.2s-131.7,6.8-166.5,8Z" fill="#ff8073"/>
        <path id="Shape-5" data-name="Shape" d="M1321.8,915.6c-21.7,4-73.5,11.4-107.1,9m-36-106.1c29.7,4.3,96.3,10.4,125.1,0M1105.6,706.4c37.7,1.7,122.5-.8,160.1-24m-45-135.2c-29.4,11.3-101.7,33-156.1,29M866.4,655.3c24,4,82.3,9.6,123.1,0M866.4,745.4c22.3,5.3,75.3,12.8,108.1,0m172.4-351c-16,12.7-65.2,39.8-133.8,46.2m-23.6,87c-15.5,5.1-60.1,12.2-114,0" fill="none" stroke="#012c44" stroke-linecap="round" stroke-width="8" fill-rule="evenodd"/>
        <path id="Path-18" data-name="Path" d="M762.8,2297.5l72.6-47.1-90-163.6-132.3,42.5,17.9,50.1c-62.6,73.4-152.2,232.8-189.2,303.3l294.6-165.2,13.6-55.9Z" fill="#012c44"/>
        <path id="Shape-6" data-name="Shape" d="M725.2,2050l20.2,36.8m-160.7-37,28.4,79.5m.1,0,17.9,50.1c-62.6,73.4-152.2,232.8-189.2,303.3l294.6-165.2,13.6-55.9,12.8,35.9,72.6-47.1-90-163.6m-132.3,42.5,132.3-42.5" fill="none" stroke="#012c44" stroke-linecap="round" stroke-width="8" fill-rule="evenodd"/>
        <path id="Path-19" data-name="Path" d="M385.8,1849.5c-60.2,80.3-134.9,213.7-167.9,276.5l183-102.7C396.1,1985.7,388.8,1891.8,385.8,1849.5Z" fill="#012c44"/>
        <path id="Shape-7" data-name="Shape" d="M368.7,1715.3l13.7,37.9M217.9,2126c33-62.8,107.7-196.2,167.9-276.5,3,42.3,10.2,136.3,15.2,173.8Z" fill="none" stroke="#012c44" stroke-linecap="round" stroke-width="8" fill-rule="evenodd"/>
        <path id="Path-20" data-name="Path" d="M747.4,1483.6l250.5-436.3L665.6,1447.8l77.6,314.4,78.4,64.8Z" fill="#012c44"/>
        <path id="Shape-8" data-name="Shape" d="M1335.9,975.3l-13.7,2m-88.3,12.6,14.8-2.1m73.5-10.5,5.2,36.7m-5.2-36.7-23.9,3.4m0,0,10.6,43m-10.6-43-24.8,3.6m-24.8,3.5,21.5,54.4m-21.5-54.4,24.8-3.6m0,0,15.5,48.1" fill="none" stroke="#012c44" stroke-linecap="round" stroke-width="8" fill-rule="evenodd"/>
        <path id="Shape-9" data-name="Shape" d="M60.4,828.4c-26.3-4.5-26.3,14.1-17.5,18l71.5,22.2,33.9,26.8m-87.9-67c-1-6.9.8-20.6,16.5-20.2M60.4,828.4l64.5,18,39.5,32.8M76.9,808.3c.1-4.9,5.5-13.3,26.3-8.1m-26.3,8.1,75.4,28,28.3,34.5m-77.3-70.7a19.432,19.432,0,0,1,19.9-8.7c10.8,1.8,48.4,10,65.5,16.8l55.5,44.4M103.3,800.1l70,25.3L202,857.2m-95.6,61.4c-6.7-6.2-10.3-14.9,13.1-15a103.194,103.194,0,0,1,11.1.6" fill="none" stroke="#012c44" stroke-linecap="round" stroke-width="8" fill-rule="evenodd"/>
        <path id="Path-21" data-name="Path" d="M693.9,254.6c-34-19.4-122.2-49.5-203.7-14.5-81.5,34.9-87.5,104.1-80.4,134.4-29.3-.9-90.5,16.1-100.5,91.4,0,37.7,16.6,59.1,24.9,65.1-21.7,7.9-64,35.9-59.6,85.2,3.3,25.5,12.5,42,16.6,47.1-13.2,1.6-40.3,18.3-45.9,54.4,0,19.4,10.6,40,15.9,47.8-13.9,9.7-31.2,35.8,10.4,62.4l-2.5,13.8c35.4-12,121.7-37.8,196.7-47.4,2.8-9.9,3.2-18.2,1.2-32.5,25-9.9,67-43,34.5-96.1,15.6-9.5,44.7-36.7,37.5-70.3,2.7,11.6,11.6,36.2,27.8,47.8-12.3,5.2-37,22.3-37,49s13.3,36.8,19.9,38.4c-8.3,16-14.7,63.7,34.9,67.2s168.9-1.6,168.9-1.6Z" fill="#ff8073"/>
        <path id="Path-22" data-name="Path" d="M726.8,831.5l29.2-38,4.6,46.9Z" fill="none" stroke="#012c44" stroke-width="8" fill-rule="evenodd"/>
        <path id="Shape-10" data-name="Shape" d="M476,699.8c-37.7,1.7-122.5-.8-160.1-24m44.9-135.1c29.4,11.3,101.7,33,156.1,29m198.3,79.1c-24,4-82.3,9.6-123.1,0m123.1,90.1c-22.4,5.3-75.3,12.8-108.1,0m-172.5-351c16,12.7,65.2,39.8,133.8,46.2M592.1,521c15.5,5.1,60,12.2,114,0M292,773.8c20.1,4.9,67.3,13.3,95.3,7.4" fill="none" stroke="#012c44" stroke-linecap="round" stroke-width="8" fill-rule="evenodd"/>
        <path id="Shape-11" data-name="Shape" d="M278,829.9l13.7,2m0-.1-.7,5.1m.7-5.1,7.6,1.1" fill="none" stroke="#012c44" stroke-linecap="round" stroke-width="8" fill-rule="evenodd"/>
      </g>
      <g id="Plane" transform="translate(288 922)">
        <path id="Shape-12" data-name="Shape" d="M.3.6l259,238.8M.3.6,316.1,116.8M.3.6,292.7,4.1M1564.1,575.9,2083.5,25.8l-467.4-5.6m-52,555.7L1539,1419.2,992.9,915.8m571.2-339.9-467.7-172M523.2,6.9l-37.9-.5m760.4,9.3,122.7,1.5" fill="none" stroke="#012c44" stroke-width="8" fill-rule="evenodd"/>
        <line id="Path-23" data-name="Path" x1="128.8" y1="48.8" transform="translate(662.7 239.9)" fill="none" stroke="#012c44" stroke-linecap="round" stroke-width="8"/>
      </g>
    </g>
  </g>
</svg>
