<svg xmlns="http://www.w3.org/2000/svg" width="500.945" height="501.669" viewBox="0 0 500.945 501.669">
  <g id="Page-1" transform="translate(-2.855 -2.405)">
    <g id="_8" data-name="8" transform="translate(4.8 4.5)">
      <g id="Background" transform="translate(0 0)">
        <circle id="Oval" cx="0.986" cy="0.986" r="0.986" transform="translate(312.412 225.805)" fill="none" stroke="#012c44" stroke-width="3"/>
        <circle id="Oval-2" data-name="Oval" cx="0.986" cy="0.986" r="0.986" transform="translate(238.31 9.379)" fill="none" stroke="#012c44" stroke-width="3"/>
        <circle id="Oval-3" data-name="Oval" cx="0.986" cy="0.986" r="0.986" transform="translate(17.493 180.324)" fill="none" stroke="#012c44" stroke-width="3"/>
        <circle id="Oval-4" data-name="Oval" cx="0.986" cy="0.986" r="0.986" transform="translate(447.608 37.498)" fill="none" stroke="#012c44" stroke-width="3"/>
        <circle id="Oval-5" data-name="Oval" cx="0.986" cy="0.986" r="0.986" transform="translate(470.386 195.453)" fill="none" stroke="#012c44" stroke-width="3"/>
        <circle id="Oval-6" data-name="Oval" cx="0.986" cy="0.986" r="0.986" transform="translate(179.133 90.162)" fill="none" stroke="#012c44" stroke-width="3"/>
        <circle id="Oval-7" data-name="Oval" cx="0.986" cy="0.986" r="0.986" transform="translate(451.07 400.173)" fill="none" stroke="#012c44" stroke-width="3"/>
        <line id="Path" x2="5.471" y2="3.964" transform="translate(477.29 299.144)" fill="none" stroke="#012c44" stroke-linecap="round" stroke-width="3"/>
        <line id="Path-2" data-name="Path" x2="5.471" y2="3.982" transform="translate(86.924)" fill="none" stroke="#012c44" stroke-linecap="round" stroke-width="3"/>
        <line id="Path-3" data-name="Path" x1="5.546" y2="3.871" transform="translate(245.661 487.953)" fill="none" stroke="#012c44" stroke-linecap="round" stroke-width="3"/>
        <line id="Path-4" data-name="Path" x1="5.546" y2="3.871" transform="translate(407.264 470.609)" fill="none" stroke="#012c44" stroke-linecap="round" stroke-width="3"/>
        <line id="Path-5" data-name="Path" x1="5.546" y2="3.871" transform="translate(23.429 80.299)" fill="none" stroke="#012c44" stroke-linecap="round" stroke-width="3"/>
        <line id="Path-6" data-name="Path" x1="5.546" y2="3.871" transform="translate(103.132 164.078)" fill="none" stroke="#012c44" stroke-linecap="round" stroke-width="3"/>
        <line id="Path-7" data-name="Path" y1="2.475" x2="6.29" transform="translate(0 337.535)" fill="none" stroke="#012c44" stroke-linecap="round" stroke-width="3"/>
        <line id="Path-8" data-name="Path" x2="3.685" y2="5.676" transform="translate(347.546 0.261)" fill="none" stroke="#012c44" stroke-linecap="round" stroke-width="3"/>
        <line id="Path-9" data-name="Path" x2="3.685" y2="5.676" transform="translate(397.494 204.144)" fill="none" stroke="#012c44" stroke-linecap="round" stroke-width="3"/>
        <line id="Path-10" data-name="Path" x2="3.666" y2="5.676" transform="translate(100.806 491.824)" fill="none" stroke="#012c44" stroke-linecap="round" stroke-width="3"/>
        <path id="Shape" d="M355.922,251.491c-1.731,9.007-2.773,23.262.93,32.455m75.926,26.462a51.734,51.734,0,0,1-7.406,3.312M358.1,286.55a16.663,16.663,0,0,0,1.861,2.587m1.247,1.172a10.793,10.793,0,0,0,3.145,1.824m1.117.354a14.462,14.462,0,0,0,5.657.223c19.037-2.661,23.5-25.234,23.373-36.2-.391-8.318-5.453-19-14.106-6.9-8.635,12.1-2.289,35.711,1.973,46,3.5,7.63,12.617,18.7,26.928,20.247m2.866.186c.651.019,1.321,0,1.991-.037m1.489-.093a35.35,35.35,0,0,0,3.517-.484m1.433-.316c1.172-.261,2.345-.6,3.554-.986" transform="translate(-288.556 -198.826)" fill="none" stroke="#012c44" stroke-linecap="round" stroke-width="3" fill-rule="evenodd"/>
        <path id="Shape-2" data-name="Shape" d="M2188.082,1753.687c-.558,2.866-.893,7.406.3,10.347m24.192,8.43a19.776,19.776,0,0,1-2.363,1.061m-21.438-8.653a4.408,4.408,0,0,0,.6.819m.391.372a3.362,3.362,0,0,0,1.005.577m.353.13a4.755,4.755,0,0,0,1.806.074c6.066-.856,7.5-8.039,7.444-11.538-.13-2.661-1.75-6.048-4.5-2.2s-.726,11.389.632,14.664a11.191,11.191,0,0,0,8.579,6.457m.93.037c.2,0,.428,0,.633-.019m.484-.019c.372-.037.744-.093,1.116-.149m.447-.112c.372-.093.744-.186,1.135-.316" transform="translate(-1780.632 -1425.55)" fill="none" stroke="#012c44" stroke-linecap="round" stroke-width="3" fill-rule="evenodd"/>
      </g>
      <g id="Girl" transform="translate(96.521 17.009)">
        <path id="Shape-3" data-name="Shape" d="M680,1281.922l28.863-2.252m139.327,47.919-3.629-58.489-77.117,5.992" transform="translate(-553.545 -1033.097)" fill="none" stroke="#012c44" stroke-width="3" fill-rule="evenodd"/>
        <line id="Path-11" data-name="Path" x2="188.977" y2="9.547" transform="translate(104.794 277.371)" fill="none" stroke="#012c44" stroke-width="3"/>
        <path id="Path-12" data-name="Path" d="M495.9,1027.734l52.887-71.757,21.7,50.245,51.827-21.456c-10.961-23.224-39.693-72.632-63.811-83.965" transform="translate(-403.704 -733.335)" fill="none" stroke="#012c44" stroke-linecap="round" stroke-width="3" fill-rule="evenodd"/>
        <path id="Path-13" data-name="Path" d="M912,1424.716l1.117-23.429L944.771,1388l1.879,4.839,51.659,28.844-.558,3.033H930.163l-3.256-10.793-2.978,10.793Z" transform="translate(-742.371 -1129.871)" fill="#012c44"/>
        <path id="Path-14" data-name="Path" d="M1624.462,1221.471l-23.41-1.693-26.462,1.693-2.289-33.664h16.246l4.894-1.749L1629.709,1140l3.033.633-7.835,62.695-10.868,2.977,10.719,3.238Z" transform="translate(-1279.794 -928.022)" fill="#012c44"/>
        <path id="Shape-4" data-name="Shape" d="M319.1,1145.89l53.446-68.78m30.705-30.91,52.553,66.3" transform="translate(-259.805 -851.677)" fill="none" stroke="#012c44" stroke-linecap="round" stroke-width="3" fill-rule="evenodd"/>
        <path id="Path-15" data-name="Path" d="M636.247,888.3c-3.257.186-12.208,3.275-21.847,14.125" transform="translate(-500.152 -723.161)" fill="none" stroke="#012c44" stroke-linecap="round" stroke-width="3" fill-rule="evenodd"/>
        <line id="Path-16" data-name="Path" x1="14.124" y2="16.209" transform="translate(80.342 201.687)" fill="none" stroke="#012c44" stroke-linecap="round" stroke-width="3"/>
        <path id="Shape-5" data-name="Shape" d="M494.6,893.131,513.637,918.5c3.052,2.7,10.886,6.216,17.716-1.3s21.512-43.229,27.988-60.145m-45.7,12.673,10.5,14.869,16.8-27.56V853.4" transform="translate(-402.646 -694.756)" fill="none" stroke="#012c44" stroke-linecap="round" stroke-width="3" fill-rule="evenodd"/>
        <path id="Shape-6" data-name="Shape" d="M617.34,638.428,590.375,643.1l1.954-5.881m25.011,1.21-29.794-1.191,1.266-4.8m28.528,5.992-37.74-7.946L600.256,590.9l32.622,13.585M617.34,638.428,632.9,604.5M617.34,638.428l31.431,3.592,17.493-36.7M617.34,638.428l35.171,10.886,18.981-38.13M617.34,638.428l35.171,17.139,21.922-43.527-2.922-.837M632.9,604.5l34.52-1.6-1.154,2.4m0,0h8.169l-2.922,5.881" transform="translate(-471.828 -481.105)" fill="none" stroke="#012c44" stroke-width="3" fill-rule="evenodd"/>
        <path id="Shape-7" data-name="Shape" d="M592.775,113.151l55.7-67.161M580.325,81.72l7.741-30.929m9.063,111.134L664.4,137.492M509.815,95.137l-1.954-74.6M639.633,35.681l-2.214,3.685m-1.042,9.472,2.289-2.829m23.094-14.273,2.642-2.289M480.226.9V4.064M479,23.454v2.289M460.5,9.535V12.01" transform="translate(-374.892 -0.9)" fill="none" stroke="#012c44" stroke-linecap="round" stroke-width="3" fill-rule="evenodd"/>
        <path id="Shape-8" data-name="Shape" d="M868.686,723.931c-.354,1.9-.577,4.876.2,6.811m15.93,5.508a12.282,12.282,0,0,1-1.545.707m-14.124-5.676a2.854,2.854,0,0,0,.391.54m.279.242a1.751,1.751,0,0,0,.651.372m.223.093a2.8,2.8,0,0,0,1.191.037c3.982-.558,4.913-5.3,4.894-7.593-.074-1.749-1.154-3.982-2.959-1.452s-.465,7.481.428,9.64a7.42,7.42,0,0,0,5.657,4.243m.6.037h.409m.316-.019a5.537,5.537,0,0,0,.744-.112m.3-.056c.242-.056.5-.13.744-.2" transform="translate(-706.854 -588.121)" fill="none" stroke="#C9E4CB" stroke-linecap="round" stroke-width="3" fill-rule="evenodd"/>
        <path id="Path-17" data-name="Path" d="M102.027,737.867l14.05,24.6L90.731,791.089l-3.015-4.02L82,804.841c0,4.187,0,24.006-6.83,35.934-6.55,11.426-19.931,8.858-22.35,21.308-4.615,23.783-10.365,18.181-12.785,22.108H3.137c-7.276-40.661,1.563-73.3,11.8-93.121,11.482-22.238,29.365-53.223,48.2-63.513C78.188,719.351,93.652,725.957,102.027,737.867Z" transform="translate(-0.47 -589.365)" fill="#C9E4CB"/>
        <line id="Path-18" data-name="Path" x1="6.513" y1="10.254" transform="translate(79.076 185.497)" fill="none" stroke="#012c44" stroke-linecap="round" stroke-width="3"/>
        <path id="Path-19" data-name="Path" d="M409.131,624.4a20.222,20.222,0,0,1,.484,5.155,19.136,19.136,0,0,1-.428,3.48c-.633,3-.6,5.4,1.024,8.021a19.248,19.248,0,0,1-3.964-1.284c-2.326,3.2-5.639,5.155-9.267,5.024-5.229-.186-9.509-4.671-10.979-10.775" transform="translate(-314.256 -508.371)" fill="none" stroke="#012c44" stroke-width="1" fill-rule="evenodd"/>
        <path id="Path-20" data-name="Path" d="M479.608,646.554a4.17,4.17,0,0,0-5.508-1.712" transform="translate(-385.961 -524.645)" fill="none" stroke="#012c44" stroke-linecap="round" stroke-width="1" fill-rule="evenodd"/>
        <path id="Path-21" data-name="Path" d="M458.74,705.3a3.543,3.543,0,0,1-2.14-3" transform="translate(-371.718 -571.775)" fill="none" stroke="#012c44" stroke-linecap="round" stroke-width="3" fill-rule="evenodd"/>
        <path id="Path-22" data-name="Path" d="M475.487,661.727c-.428-1.284-2.028-3.424-4.987-1.768" transform="translate(-383.031 -536.822)" fill="none" stroke="#012c44" stroke-linecap="round" stroke-width="1" fill-rule="evenodd"/>
        <circle id="Oval-8" data-name="Oval" cx="1.079" cy="1.079" r="1.079" transform="translate(88.939 122.821)" fill="#012c44"/>
        <path id="Path-23" data-name="Path" d="M296.541,618.927l-1.991-5.118-5.564-1.21-18.144,9.547c.2.558-.372,2.028-4.336,3.554-4.95,1.917-10.328,5.118-11.017,9.64-.558,3.61-7.295,5.211-10.589,5.546l42.783,4.95c-.484-1.135-.837-4.671,1.731-9.807s-1.991-13.548-4.6-17.1Z" transform="translate(-199.413 -498.767)" fill="#012c44"/>
        <path id="Path-24" data-name="Path" d="M350.131,550.271l31.152-14.832-1.563-6.253-1.638.335c-1.358-3.126-4.764-5.229-8.709-6.811-3.945-1.563-5.378-3-9.863-4.894-3.592-1.526-4.634-.223-4.69.614a47.016,47.016,0,0,1-5.1,13.6,13.048,13.048,0,0,0-.484,12.04l-1.638,1.768Z" transform="translate(-283.002 -421.048)" fill="#C9E4CB"/>
      </g>
      <g id="Books" transform="translate(31.133 311.165)">
        <path id="Path-25" data-name="Path" d="M340.8.6H709.747a34.018,34.018,0,0,1,0,68.035H340.8Z" transform="translate(-277.398 -0.6)" fill="none" stroke="#012c44" stroke-width="3" fill-rule="evenodd"/>
        <path id="Path-26" data-name="Path" d="M336.8,42.6H573.138a26.431,26.431,0,0,1,26.425,26.425h0A26.431,26.431,0,0,1,573.138,95.45H336.8" transform="translate(-274.143 -34.784)" fill="none" stroke="#012c44" stroke-width="3" fill-rule="evenodd"/>
        <path id="Shape-9" data-name="Shape" d="M422.6,157.51,633.908,147.2M491.436,163.074h101.7" transform="translate(-343.976 -119.919)" fill="none" stroke="#012c44" stroke-linecap="round" stroke-width="3" fill-rule="evenodd"/>
        <path id="Path-27" data-name="Path" d="M490.855,192.4,458.4,194.075v48.272l33.217,2.624Z" transform="translate(-373.114 -156.707)" fill="#C9E4CB"/>
        <path id="Shape-10" data-name="Shape" d="M1779.5,3.3l1.358,67.961m9.7-67.961,3.685,67.961" transform="translate(-1448.367 -2.798)" fill="none" stroke="#012c44" stroke-width="3" fill-rule="evenodd"/>
        <path id="Path-28" data-name="Path" d="M403.065,372.4H34.118a34.018,34.018,0,0,0,0,68.035H403.065Z" transform="translate(-0.1 -303.211)" fill="none" stroke="#012c44" stroke-width="3" fill-rule="evenodd"/>
        <path id="Path-29" data-name="Path" d="M968.163,396.6H723.414A29.516,29.516,0,0,0,693.9,426.133h0a29.512,29.512,0,0,0,29.514,29.514H968.163" transform="translate(-564.789 -322.907)" fill="none" stroke="#012c44" stroke-width="3" fill-rule="evenodd"/>
        <path id="Shape-11" data-name="Shape" d="M1113.294,524.938,892.7,513.4m148.744,17.753H935.3" transform="translate(-726.594 -417.972)" fill="none" stroke="#012c44" stroke-linecap="round" stroke-width="3" fill-rule="evenodd"/>
        <path id="Path-30" data-name="Path" d="M1514.8,541.6l33.887,1.88v53.948l-17.065-15.111L1514,600.368Z" transform="translate(-1232.274 -440.924)" fill="#C9E4CB"/>
        <path id="Shape-12" data-name="Shape" d="M473.857,374.4,472.5,442.361M462.785,374.4,459.1,442.361" transform="translate(-373.684 -304.839)" fill="none" stroke="#012c44" stroke-width="3" fill-rule="evenodd"/>
      </g>
    </g>
  </g>
</svg>
