<svg xmlns="http://www.w3.org/2000/svg" width="492.248" height="497.134" viewBox="0 0 492.248 497.134">
  <g id="Page-1" transform="translate(-2.678 -2.389)">
    <g id="_6" data-name="6" transform="translate(4.178 4.484)">
      <circle id="Oval" cx="0.983" cy="0.983" r="0.983" transform="translate(487.281 275.751)" fill="none" stroke="#012c44" stroke-width="3"/>
      <circle id="Oval-2" data-name="Oval" cx="0.983" cy="0.983" r="0.983" transform="translate(228.869 9.288)" fill="none" stroke="#012c44" stroke-width="3"/>
      <circle id="Oval-3" data-name="Oval" cx="0.983" cy="0.983" r="0.983" transform="translate(10.058 178.689)" fill="none" stroke="#012c44" stroke-width="3"/>
      <circle id="Oval-4" data-name="Oval" cx="0.983" cy="0.983" r="0.983" transform="translate(168.458 405.804)" fill="none" stroke="#012c44" stroke-width="3"/>
      <circle id="Oval-5" data-name="Oval" cx="0.983" cy="0.983" r="0.983" transform="translate(458.84 193.677)" fill="none" stroke="#012c44" stroke-width="3"/>
      <circle id="Oval-6" data-name="Oval" cx="0.983" cy="0.983" r="0.983" transform="translate(170.237 89.329)" fill="none" stroke="#012c44" stroke-width="3"/>
      <circle id="Oval-7" data-name="Oval" cx="0.983" cy="0.983" r="0.983" transform="translate(439.699 396.538)" fill="none" stroke="#012c44" stroke-width="3"/>
      <line id="Path" x2="5.414" y2="3.939" transform="translate(467 442.743)" fill="none" stroke="#012c44" stroke-linecap="round" stroke-width="3"/>
      <line id="Path-2" data-name="Path" x2="5.414" y2="3.938" transform="translate(78.869 0)" fill="none" stroke="#012c44" stroke-linecap="round" stroke-width="3"/>
      <line id="Path-3" data-name="Path" x2="5.414" y2="3.939" transform="translate(185.583 250.383)" fill="none" stroke="#012c44" stroke-linecap="round" stroke-width="3"/>
      <line id="Path-4" data-name="Path" x1="5.493" y2="3.826" transform="translate(236.16 483.521)" fill="none" stroke="#012c44" stroke-linecap="round" stroke-width="3"/>
      <line id="Path-5" data-name="Path" x1="5.493" y2="3.826" transform="translate(396.296 466.325)" fill="none" stroke="#012c44" stroke-linecap="round" stroke-width="3"/>
      <line id="Path-6" data-name="Path" x1="5.493" y2="3.826" transform="translate(15.958 79.562)" fill="none" stroke="#012c44" stroke-linecap="round" stroke-width="3"/>
      <line id="Path-7" data-name="Path" x1="5.493" y2="3.826" transform="translate(116.238 180.961)" fill="none" stroke="#012c44" stroke-linecap="round" stroke-width="3"/>
      <line id="Path-8" data-name="Path" y1="2.448" x2="6.231" transform="translate(294.131 21.368)" fill="none" stroke="#012c44" stroke-linecap="round" stroke-width="3"/>
      <line id="Path-9" data-name="Path" x2="3.642" y2="5.617" transform="translate(430.874 10.271)" fill="none" stroke="#012c44" stroke-linecap="round" stroke-width="3"/>
      <line id="Path-10" data-name="Path" x2="3.642" y2="5.617" transform="translate(92.63 487.347)" fill="none" stroke="#012c44" stroke-linecap="round" stroke-width="3"/>
      <path id="Shape" d="M2.143,1889.289c-2.163,11.22-3.459,28.947,1.149,40.409m94.516,32.932a66.253,66.253,0,0,1-9.211,4.125M4.855,1932.934a18.622,18.622,0,0,0,2.321,3.211m1.543,1.477a13.505,13.505,0,0,0,3.9,2.272m1.4.443a17.96,17.96,0,0,0,7.038.288c23.69-3.317,29.266-31.416,29.092-45.052-.481-10.361-6.8-23.651-17.548-8.6s-2.847,44.442,2.449,57.258c4.354,9.495,15.711,23.282,33.514,25.2m3.573.219q1.226.019,2.488-.037m1.852-.124q2.135-.19,4.37-.61m1.774-.372q2.172-.5,4.435-1.225" transform="translate(-0.178 -1533.585)" fill="none" stroke="#012c44" stroke-linecap="round" stroke-width="3" fill-rule="evenodd"/>
      <path id="Shape-2" data-name="Shape" d="M77.95,851.708l83.9-113.759m-52.5,107.581,29.855-31.4m10.484-76.182,2.628-2.973m-1.415-6.063,1.415-2.83m25.668-10.712,3.638-4.244" transform="translate(-63.609 -580.085)" fill="none" stroke="#012c44" stroke-linecap="round" stroke-width="3" fill-rule="evenodd"/>
      <path id="Shape-3" data-name="Shape" d="M620.44,203.8c2.3,1.291,5.629,3.706,6.967,6.229m-8.278,21.608a15.344,15.344,0,0,0,2.1-1.012m6.514-19.838a4.3,4.3,0,0,1,.221.889m.031.493a3.136,3.136,0,0,1-.181,1.029m-.13.313a4.138,4.138,0,0,1-1,1.286c-4.119,3.691-9.914.485-12.3-1.579-1.759-1.63-3.164-4.728,1.1-4.383s8.275,6.125,9.75,8.972a10.094,10.094,0,0,1-.546,9.679m-.494.664q-.179.22-.377.434m-.3.309q-.352.349-.759.681m-.33.258q-.412.309-.878.6" transform="translate(-499.735 -166.31)" fill="none" stroke="#C9E4CB" stroke-linecap="round" stroke-width="3" fill-rule="evenodd"/>
      <path id="Shape-4" data-name="Shape" d="M697.528,1606.219V1529.81H576.357m-246.235,76.409c-3.508-5.947-3.386-18.119,25.165-19.216m-25.165,19.216-43.087-15.683c0-3,2.752-8.836,13.758-8.2-9.776-3.738-23.463-12.3,0-16.668-9.789-.354-29.1-1.728-11.951-12.1l41.308-16.821m-.028,69.474h85.789M355.287,1587c-18.454-1.372-43.375-6.131,4.575-14.184-21.657-5.8-53.715-18.759-8.693-24.25M355.287,1587H502.616M351.17,1548.569h56.276m-56.276,0c-10.646-2.272-24.365-5.541-16.151-12.285M584.515,1587h78.7M453.2,1548.569H515.91m58.985,0h99.756M520.239,1529.81h-152.3m296.381,76.409H570.809m-145.4,0H444.4m17.155,0H478.1" transform="translate(-230.034 -1247.804)" fill="none" stroke="#C9E4CB" stroke-linecap="round" stroke-width="3" fill-rule="evenodd"/>
      <path id="Path-11" data-name="Path" d="M50.723,1665.919,99.065,1683.3c2.695-9.379,15.4-8.25,18.418-8.25a75.157,75.157,0,0,1-13.975-7.1c-.9-.97-5.3-3.793-1.4-6.6,2.344-1.693,27.106-4.94,30.627-5.479-4.168-.072-30.93,1.3-33.666-3.376-2.07-3.535,3.066-8.481,6.264-10.2Z" transform="translate(-41.403 -1339.543)" fill="#C9E4CB"/>
      <path id="Shape-5" data-name="Shape" d="M1575.31,703l30.354,16.972c8.42,4.289,13.9,2.132,19.652-7.322s4.025-39.562,2.441-53.435l17.726-8.734,1.84-3.923m-25.218.037-6.937,5.17-13.256,42.508m-2.285,7.33,2.285-7.33m0,0L1582.988,680.7" transform="translate(-1284.857 -527.423)" fill="none" stroke="#012c44" stroke-linecap="round" stroke-width="3" fill-rule="evenodd"/>
      <path id="Shape-6" data-name="Shape" d="M1126.06,791.6v7.9m12.919,25.753c17.162-2.281,53.234-6.34,80.2-7.236m-23.358-26.1,2.733,7.579m26.026-35.932-23.1,42.935-2.923-7m64.167-71.457c10.679-11.769,37.18-29.815,57.756-7.846,14.123,16.041-1.816,87.76-11.551,121.615h-18.672m-24.173,0a17.512,17.512,0,0,1,.015,2.032l-10.81,143.984h-56.076m66.87-146.016h24.173m-24.173,0c-.448-7.177-5.071-18.147-20.151-22.279M1126.06,799.5l.931,61.456h83.61l-40.924,126.872h29.535M1126.06,799.5h12.919m59.577,0h-59.577m0,0-5.617,44.344H1234.1l-34.89,143.984m19.969-169.811c5.416-.179,10.466-.231,14.921-.115a49.523,49.523,0,0,1,11.829,1.63m-26.751-1.516,78.072-93.735-7,117.53m-2.947-99.483-41.377,77.2" transform="translate(-918.449 -579.039)" fill="none" stroke="#012c44" stroke-width="3" fill-rule="evenodd"/>
      <path id="Path-12" data-name="Path" d="M1385.96,2234.691l12-18.852h36.968l-2.694,9.547,35.744,56.064-2.2,2.447-64.143-40.394,2.939-10.772-8.814,8.324Z" transform="translate(-1130.423 -1807.331)" fill="#012c44"/>
      <path id="Path-13" data-name="Path" d="M1885.389,1437.69l-2.145,6.928-3.205-.035.972-19.513h25.462l45.165,17.1-.4,2.357h-63.712Z" transform="translate(-1533.395 -1162.378)" fill="#012c44"/>
      <path id="Shape-7" data-name="Shape" d="M1204.446,658.4v8.635h-7.417m21.888-5.76v5.76h7.7" transform="translate(-976.332 -537.078)" fill="none" stroke="#C9E4CB" stroke-linecap="round" stroke-width="1" fill-rule="evenodd"/>
      <path id="Path-14" data-name="Path" d="M1189.3,523.892v-2.848l-1.636-2.215c8.1-9.03,12.062-16.879,13.03-19.674a22,22,0,0,0,6.382,3.745,13.811,13.811,0,0,1,1.16,3.745c.4,3.745-.022,12.29-4.959,16.509s-10.636,1.02-12.869-1.107a12.114,12.114,0,0,0,2.742,3.956c3.118,2.741,8.984,2.461,10.5,1.688v-3.534l9.863-1c-1.881-12.43-8.776-36.331-21.309-32.492s-14.575,23.929-14.031,33.494Z" transform="translate(-960.889 -399.938)" fill="#012c44"/>
      <path id="Path-15" data-name="Path" d="M1311.959,573.842a4.851,4.851,0,0,0-4.315,3.331,8.074,8.074,0,0,0,2.465,8.576,7.065,7.065,0,0,1-4.66-1.2" transform="translate(-1064.759 -468.115)" fill="none" stroke="#C9E4CB" stroke-linecap="round" stroke-width="1" fill-rule="evenodd"/>
      <path id="Path-16" data-name="Path" d="M1269.307,581.107a4.112,4.112,0,0,0-5.277,2.192" transform="translate(-1030.977 -473.823)" fill="none" stroke="#C9E4CB" stroke-linecap="round" stroke-width="1" fill-rule="evenodd"/>
      <path id="Path-17" data-name="Path" d="M1292.817,649.734a3.523,3.523,0,0,1-3.537-.889" transform="translate(-1051.571 -529.288)" fill="none" stroke="#C9E4CB" stroke-linecap="round" stroke-width="1" fill-rule="evenodd"/>
      <path id="Path-18" data-name="Path" d="M1270.565,597.441a3.173,3.173,0,0,0-5.235.258" transform="translate(-1032.037 -486.329)" fill="none" stroke="#C9E4CB" stroke-linecap="round" stroke-width="1" fill-rule="evenodd"/>
      <path id="Path-19" data-name="Path" d="M1322.611,592.924a3.172,3.172,0,0,0-5.191.723" transform="translate(-1074.522 -482.828)" fill="none" stroke="#C9E4CB" stroke-linecap="round" stroke-width="1" fill-rule="evenodd"/>
      <circle id="Oval-8" data-name="Oval" cx="1.071" cy="1.071" r="1.071" transform="matrix(-0.999, 0.049, -0.049, -0.999, 237.026, 112.123)"/>
      <circle id="Oval-9" data-name="Oval" cx="1.071" cy="1.071" r="1.071" transform="translate(246.684 111.24) rotate(172.07)"/>
      <path id="Path-20" data-name="Path" d="M546.368,943.7l-43.539,88.788-32.524-6.782c-3.131-.741-4.269.459-2.637,2.511-2-1.139-6.153.186-4.27,4.271-1.884-.592-4.474.821-3.265,3.642a3.782,3.782,0,0,0,1.381,1.506c.8.5,3.349,1.632,4.521,2.134h-6.655c-2.06,0-3.533,3.516,0,4.521l23.985,3.893-11.176,5.274c-2.063,1.186-2.993,5.63,2.135,5.274,2.411,0,23.022-3.515,33.026-5.274l7.785-3.893,55.585-87.033" transform="translate(-372.965 -769.772)" fill="none" stroke="#012c44" stroke-width="3" fill-rule="evenodd"/>
      <path id="Shape-8" data-name="Shape" d="M493.91,1401.72l16.633,5.112m-20.977-.85,18.029,5.613m-15.979,1.658,12.8,1.573" transform="translate(-399.324 -1143.333)" fill="none" stroke="#012c44" stroke-linecap="round" stroke-width="3" fill-rule="evenodd"/>
      <path id="Path-21" data-name="Path" d="M950.685,705.466a69.211,69.211,0,0,1,20.267-4.814c0,4.647,2.1,14.821,10.988,15.677,13.039,1.55,15.991-10.154,15.969-15.677h11.082c11.389,0,16.85,4.85,19.86,6.942l20.669,16.994-10.564,30.924-18.372-9.338,8.267,39.8H956.744l-1.531-29.24-8.2,14.781L919.37,748.167C927.472,734.111,939.927,710.314,950.685,705.466Z" transform="translate(-749.872 -571.542)" fill="#C9E4CB"/>
      <path id="Shape-9" data-name="Shape" d="M1112.74,909.3v-8.377m64.61-2.556-1.846-7.811" transform="translate(-907.585 -726.431)" fill="none" stroke="#012c44" stroke-linecap="round" stroke-width="3" fill-rule="evenodd"/>
      <path id="Path-22" data-name="Path" d="M1884.721,382.692l2.65,45.057H1811.74V381.925Z" transform="translate(-1477.69 -311.588)" fill="none" stroke="#012c44" stroke-width="3" fill-rule="evenodd"/>
      <path id="Path-23" data-name="Path" d="M1658.65,634.473h103.962l.243,1.794L1658.65,636.2Z" transform="translate(-1352.83 -517.566)" fill="none" stroke="#012c44" stroke-width="3" fill-rule="evenodd"/>
      <path id="Path-24" data-name="Path" d="M1897.928,395.181l2.383,40.5H1832.24V394.491Z" transform="translate(-1494.41 -321.837)" fill="none" stroke="#012c44" stroke-width="3" fill-rule="evenodd"/>
      <path id="Shape-10" data-name="Shape" d="M1960.239,436.379c-.619,3.22-.992,8.307.33,11.6m27.125,9.451a19.061,19.061,0,0,1-2.642,1.184m-24.034-9.707a5.4,5.4,0,0,0,.667.922m.442.424a3.907,3.907,0,0,0,1.119.652m.4.127a5.144,5.144,0,0,0,2.019.082c6.8-.952,8.4-9.016,8.35-12.93-.138-2.974-1.951-6.788-5.036-2.469s-.817,12.754.7,16.432c1.25,2.725,4.51,6.682,9.618,7.232m1.026.063c.236,0,.474,0,.715-.011m.531-.036q.611-.055,1.254-.175m.509-.106c.415-.095.841-.212,1.272-.352" transform="translate(-1598.347 -353.873)" fill="none" stroke="#012c44" stroke-linecap="round" stroke-width="3" fill-rule="evenodd"/>
    </g>
  </g>
</svg>
