<svg xmlns="http://www.w3.org/2000/svg" width="502.59" height="507.79" viewBox="0 0 502.59 507.79">
  <g id="Page-1" transform="translate(-2.425 -2.734)">
    <g id="_5" data-name="5" transform="translate(4.5 4.234)">
      <circle id="Oval" cx="1.003" cy="1.003" r="1.003" transform="translate(375.252 304.927)" fill="none" stroke="#012c44" stroke-width="3"/>
      <circle id="Oval-2" data-name="Oval" cx="1.003" cy="1.003" r="1.003" transform="translate(371.741 6.509)" fill="none" stroke="#012c44" stroke-width="3"/>
      <circle id="Oval-3" data-name="Oval" cx="1.003" cy="1.003" r="1.003" transform="translate(35.074 200.566)" fill="none" stroke="#012c44" stroke-width="3"/>
      <circle id="Oval-4" data-name="Oval" cx="1.003" cy="1.003" r="1.003" transform="translate(98.287 459.483)" fill="none" stroke="#012c44" stroke-width="3"/>
      <circle id="Oval-5" data-name="Oval" cx="1.003" cy="1.003" r="1.003" transform="translate(412.623 108.127)" fill="none" stroke="#012c44" stroke-width="3"/>
      <circle id="Oval-6" data-name="Oval" cx="1.003" cy="1.003" r="1.003" transform="translate(453.36 413.938)" fill="none" stroke="#012c44" stroke-width="3"/>
      <line id="Path" x2="5.525" y2="4.02" transform="translate(481.221 461.09)" fill="none" stroke="#012c44" stroke-linecap="round" stroke-width="3"/>
      <line id="Path-2" data-name="Path" x2="5.525" y2="4.018" transform="translate(85.131 9.268)" fill="none" stroke="#012c44" stroke-linecap="round" stroke-width="3"/>
      <line id="Path-3" data-name="Path" x1="5.606" y2="3.905" transform="translate(33.275 354.608)" fill="none" stroke="#012c44" stroke-linecap="round" stroke-width="3"/>
      <line id="Path-4" data-name="Path" x1="5.606" y2="3.905" transform="translate(409.067 485.157)" fill="none" stroke="#012c44" stroke-linecap="round" stroke-width="3"/>
      <line id="Path-5" data-name="Path" x1="5.606" y2="3.905" transform="translate(20.93 90.462)" fill="none" stroke="#012c44" stroke-linecap="round" stroke-width="3"/>
      <line id="Path-6" data-name="Path" y1="2.498" x2="6.359" transform="translate(304.807 31.074)" fill="none" stroke="#012c44" stroke-linecap="round" stroke-width="3"/>
      <line id="Path-7" data-name="Path" x2="3.717" y2="5.732" transform="translate(444.354 19.749)" fill="none" stroke="#012c44" stroke-linecap="round" stroke-width="3"/>
      <line id="Path-8" data-name="Path" x2="3.716" y2="5.732" transform="translate(0 462.244)" fill="none" stroke="#012c44" stroke-linecap="round" stroke-width="3"/>
      <path id="Shape" d="M2120.074,713.1c-1.758,9.116-2.81,23.515.933,32.828m76.781,26.752a53.477,53.477,0,0,1-7.482,3.351m-68.031-27.474a15.137,15.137,0,0,0,1.887,2.608m1.251,1.2a11.055,11.055,0,0,0,3.173,1.844m1.136.359a14.552,14.552,0,0,0,5.717.233c19.245-2.695,23.775-25.522,23.634-36.6-.391-8.417-5.521-19.213-14.255-6.99s-2.315,36.1,1.989,46.514c3.538,7.714,12.762,18.914,27.226,20.472m2.9.179q1,.017,2.021-.03m1.505-.1q1.733-.155,3.549-.5m1.441-.3q1.764-.4,3.6-1" transform="translate(-1719.916 -572.959)" fill="none" stroke="#012c44" stroke-linecap="round" stroke-width="3" fill-rule="evenodd"/>
      <path id="Shape-2" data-name="Shape" d="M380.96,2159.553c-.778,4.034-1.243,10.4.413,14.526m33.972,11.837a23.907,23.907,0,0,1-3.311,1.483m-30.1-12.156a6.7,6.7,0,0,0,.834,1.153m.554.531a4.875,4.875,0,0,0,1.4.817m.5.16a6.438,6.438,0,0,0,2.53.1c8.515-1.191,10.519-11.291,10.457-16.193-.173-3.724-2.443-8.5-6.307-3.092s-1.023,15.973.88,20.58c1.565,3.414,5.647,8.368,12.046,9.059m1.284.079c.294,0,.592,0,.894-.013m.666-.045q.767-.067,1.571-.218m.638-.134q.781-.178,1.594-.44" transform="translate(-308.791 -1750.56)" fill="none" stroke="#012c44" stroke-linecap="round" stroke-width="3" fill-rule="evenodd"/>
      <rect id="Rectangle" width="89.901" height="22.033" stroke-width="3" fill="none" stroke="#012c44" transform="translate(146.34 482.003)"/>
      <line id="Path-9" data-name="Path" x2="430.707" transform="translate(50.513 504.79)" fill="none" stroke="#012c44" stroke-linecap="round" stroke-width="3"/>
      <path id="Path-10" data-name="Path" d="M529.635,148.509c0,20.416-9.258,51.392-23.231,86.467-13.959,35.039-32.576,74.062-51.2,110.526s-37.245,70.353-51.213,95.131c-6.983,12.388-12.8,22.5-16.876,29.509-2.038,3.506-3.638,6.238-4.729,8.092q-.627,1.067-1.024,1.741-.4-.672-1.026-1.741c-1.091-1.854-2.691-4.586-4.727-8.092-4.074-7.012-9.894-17.121-16.878-29.509-13.969-24.778-32.591-58.669-51.214-95.131s-37.24-75.487-51.2-110.526c-13.973-35.075-23.232-66.05-23.232-86.467a148.274,148.274,0,1,1,296.548,0Z" transform="translate(-189.319 -0.234)" fill="none" stroke="#012c44" stroke-width="3" fill-rule="evenodd"/>
      <path id="Path-11" data-name="Path" d="M881.7,577.84a53.26,53.26,0,1,0,.435,28.729" transform="translate(-631.17 -438.199)" fill="none" stroke="#012c44" stroke-width="3" fill-rule="evenodd"/>
      <path id="Path-12" data-name="Path" d="M1097.96,2500.335h102.668l-2.665-38.457-35.493-3.818L1101.8,2489.9Z" transform="translate(-891.439 -1995.545)"/>
      <path id="Path-13" data-name="Path" d="M1402.127,2388.841c-1.054-6.065-4.206-17.966-8.378-17.034S1397.6,2383.552,1402.127,2388.841Z" transform="translate(-1130.62 -1925.482)" fill="none" stroke="#012c44" stroke-width="3" fill-rule="evenodd"/>
      <path id="Path-14" data-name="Path" d="M1378.514,2406.125c-3.231-5.241-10.576-15.12-14.1-12.706S1372.344,2402.9,1378.514,2406.125Z" transform="translate(-1107.212 -1942.765)" fill="none" stroke="#012c44" stroke-width="3" fill-rule="evenodd"/>
      <path id="Path-15" data-name="Path" d="M1323.615,2444.9c-1.571-2.571-6.447-6.5-13.372-1.664s-11.874.905-13.483-1.666" transform="translate(-1052.829 -1981.646)" fill="none" stroke="#012c44" stroke-linecap="round" stroke-width="3" fill-rule="evenodd"/>
      <path id="Shape-3" data-name="Shape" d="M1396.687,2177.83l-.719-19.136m-32.92.994-1.1,15.619m54.6-68.007v51l-73.121,1.383,4.422-22.171m4.977-24.962-4.977,24.962m49.07-1.05-16.443.352m-32.627.7,32.627-.7m0,0,4.142-27.582" transform="translate(-1090.709 -1710.791)" fill="none" stroke="#012c44" stroke-linecap="round" stroke-width="3" fill-rule="evenodd"/>
      <path id="Path-16" data-name="Path" d="M2004.078,2500.335H1901.41l2.665-38.457,35.493-3.818,60.668,31.842Z" transform="translate(-1543.696 -1995.545)"/>
      <path id="Path-17" data-name="Path" d="M2101.65,2388.841c1.054-6.065,4.206-17.966,8.378-17.034S2106.181,2383.552,2101.65,2388.841Z" transform="translate(-1706.255 -1925.482)" fill="none" stroke="#012c44" stroke-width="3" fill-rule="evenodd"/>
      <path id="Path-18" data-name="Path" d="M2102.74,2406.125c3.231-5.241,10.576-15.12,14.1-12.706S2108.913,2402.9,2102.74,2406.125Z" transform="translate(-1707.14 -1942.765)" fill="none" stroke="#012c44" stroke-width="3" fill-rule="evenodd"/>
      <path id="Path-19" data-name="Path" d="M2105.48,2444.9c1.573-2.571,6.447-6.5,13.372-1.664s11.874.905,13.483-1.666" transform="translate(-1709.364 -1981.646)" fill="none" stroke="#012c44" stroke-linecap="round" stroke-width="3" fill-rule="evenodd"/>
      <path id="Shape-4" data-name="Shape" d="M1832.939,2148.132l.595-19.8m32.92.993,1.1,15.619m-54.6-68.006v51l73.121,1.383-4.42-22.171m-7.919-37.254,7.919,37.254m-49.072-1.05,16.443.352m32.629.7-32.629-.7m0,0-5.113-31.584" transform="translate(-1471.89 -1680.429)" fill="none" stroke="#012c44" stroke-linecap="round" stroke-width="3" fill-rule="evenodd"/>
      <path id="Path-20" data-name="Path" d="M1140.8,752.377l-4.915-14.086,20.988-13.614-4.349-20.61c-.8-3.12,2.54-5.852,5.105-1.607,0-3.576,3.316-5.867,5.642-1.513,0-3.5,3.056-4.871,5.248-1.014,1.707,3,4.915,15.17,6.584,19.992l-3.2-18.978c-.523-3.543,4.3-5.976,5.484-.757,0,.605,3.026,16.892,4.539,24.959l-15.316,15.882v2.932" transform="translate(-922.224 -566.027)" fill="none" stroke="#012c44" stroke-width="3" fill-rule="evenodd"/>
      <path id="Shape-5" data-name="Shape" d="M1250.66,715.83l4.674,18.485m.935-20.5,5.393,18.485" transform="translate(-1015.404 -579.534)" fill="none" stroke="#012c44" stroke-linecap="round" stroke-width="3" fill-rule="evenodd"/>
      <path id="Path-21" data-name="Path" d="M1649.78,976.123a11.57,11.57,0,0,0,4.195-6.044,19.738,19.738,0,0,1,1.285-3.173,17.74,17.74,0,0,1,7.93-8.045,9.582,9.582,0,0,1,14.315,7.286,18.668,18.668,0,0,1-9.768,19.191,10.222,10.222,0,0,1-9.134.239c-2.985-1.52-4.851-4.622-5.316-8.406l-.077-.619-.621-.041A26.291,26.291,0,0,1,1649.78,976.123Z" transform="translate(-1339.418 -777.488)" fill="none" stroke="#012c44" stroke-width="3" fill-rule="evenodd"/>
      <path id="Path-22" data-name="Path" d="M1685.95,1013.174a4.2,4.2,0,0,1,5.828.241" transform="translate(-1368.781 -821.692)" fill="none" stroke="#012c44" stroke-linecap="round" stroke-width="3" fill-rule="evenodd"/>
      <path id="Path-23" data-name="Path" d="M1682.34,1077.83a3.6,3.6,0,0,0,3.361-1.6" transform="translate(-1365.85 -873.749)" fill="none" stroke="#012c44" stroke-linecap="round" stroke-width="3" fill-rule="evenodd"/>
      <path id="Path-24" data-name="Path" d="M1686.5,1028.949c.845-1.074,3.1-2.578,5.348,0" transform="translate(-1369.228 -834.209)" fill="none" stroke="#012c44" stroke-linecap="round" stroke-width="3" fill-rule="evenodd"/>
      <circle id="Oval-7" data-name="Oval" cx="1.093" cy="1.093" r="1.093" transform="translate(318.854 193.511)"/>
      <path id="Path-25" data-name="Path" d="M1738.85,1048.3a3.6,3.6,0,0,1,3.361-1.6" transform="translate(-1411.726 -849.75)" fill="none" stroke="#012c44" stroke-linecap="round" stroke-width="3" fill-rule="evenodd"/>
      <path id="Path-26" data-name="Path" d="M1747.79,1048.95c.476.154,1.219.807.4,2.17" transform="translate(-1418.984 -851.602)" fill="none" stroke="#012c44" stroke-linecap="round" stroke-width="3" fill-rule="evenodd"/>
      <path id="Shape-6" data-name="Shape" d="M2290.855,1622.373l.03.753Zm-6.541,0,.017-.753-1.8-.041,1.238,1.312Zm4.072,4.309-.547.518.006.006.006.006Zm1.067,4.212.561.5Zm-3.474.446-.4.636.1.062.115.03Zm-4.74-3.007.4-.636-.9,1.2Zm4.405,3.826.615-.433-.053-.075-.07-.06Zm-1.33,4.97.13.741.006,0,.008,0Zm-4.71-1.957.371-.657-.828,1.255Zm2.277,1.737.51-.555-.026-.023-.026-.021Zm-1.624,5.169-.049.751Zm-4.644-1.987-.423.623.04.026.04.021Zm-18.507-6.733.734.175.034-.145-.022-.145Zm-4.36,1.539-.45.6.03.023.032.019Zm-1.886-2.795-.709.25v.006Zm-6.054-17.205.709-.25-.066-.19-.154-.132Zm11.665,14.326-.747.1,0,.008,0,.008Zm2.279-.593.424-.623-.282-.192-.329.087Zm-3.549-14.719a.753.753,0,1,0-1.492.2Zm35.624,7.71c-1.2.047-2.819.047-4.147.036-.663-.006-1.25-.015-1.671-.023-.211,0-.38-.006-.495-.009l-.134,0-.036,0h-.011l-.017.753-.017.753h.011a.255.255,0,0,1,.036,0c.03,0,.077,0,.135,0l.5.009c.425.008,1.016.017,1.684.023,1.332.011,2.983.011,4.221-.036Zm-7.059,1.27,4.072,4.309,1.093-1.035-4.07-4.309Zm4.083,4.321a5.8,5.8,0,0,1,1.178,1.635,1.329,1.329,0,0,1-.137,1.547l1.124,1a2.821,2.821,0,0,0,.4-3.143,7.274,7.274,0,0,0-1.489-2.1Zm1.041,3.182a1.561,1.561,0,0,1-1.321.518,6.459,6.459,0,0,1-1.4-.3l-.376,1.457a7.5,7.5,0,0,0,1.712.346,3.061,3.061,0,0,0,2.51-1.018Zm-2.507.311-4.742-3.007-.805,1.272,4.74,3.007Zm-5.638-1.8,4.405,3.826.986-1.136-4.405-3.826Zm4.283,3.69a4.261,4.261,0,0,1,.837,2.3,1.274,1.274,0,0,1-.326.864,2.431,2.431,0,0,1-1.37.63l.286,1.477a3.9,3.9,0,0,0,2.189-1.084,2.775,2.775,0,0,0,.726-1.842,5.716,5.716,0,0,0-1.112-3.214Zm-.845,3.8c.032-.006.008,0-.109-.017a3.347,3.347,0,0,1-.412-.109,11.958,11.958,0,0,1-1.212-.482c-.9-.406-1.865-.918-2.477-1.265l-.741,1.312c.64.361,1.646.9,2.6,1.325a13.915,13.915,0,0,0,1.37.544,5.2,5.2,0,0,0,.61.158,1.9,1.9,0,0,0,.632.017Zm-5.038-.617,2.279,1.737.913-1.2-2.277-1.737Zm2.226,1.694a2.815,2.815,0,0,1,.809,2.567,1.649,1.649,0,0,1-.566.965,1.851,1.851,0,0,1-1.312.329l-.1,1.5a3.349,3.349,0,0,0,2.337-.649,3.143,3.143,0,0,0,1.108-1.825,4.317,4.317,0,0,0-1.263-4Zm-1.069,3.861a5.539,5.539,0,0,1-2.183-.687c-.359-.186-.711-.391-1.073-.6s-.724-.425-1.091-.615l-.689,1.34c.324.166.657.361,1.02.574s.741.435,1.144.642a7,7,0,0,0,2.776.852Zm-23.931-8.143a2.325,2.325,0,0,1-.907,1.391c-.4.252-1.108.412-2.333-.322l-.775,1.291c1.571.941,2.9.937,3.908.3a3.826,3.826,0,0,0,1.573-2.315Zm-3.178,1.11a4.368,4.368,0,0,1-1.026-1.216,7.365,7.365,0,0,1-.6-1.229l-1.417.51a8.935,8.935,0,0,0,.734,1.5,5.853,5.853,0,0,0,1.411,1.641Zm-1.626-2.441-6.054-17.205-1.419.5,6.054,17.205Zm-6.274-17.527-4.716-4.036-.979,1.142,4.716,4.038Zm11.773-20.867,17.572,17.478,1.061-1.069-17.572-17.476Zm35.218,26.406a1.46,1.46,0,0,1-1.46,1.758l.06,1.505a2.966,2.966,0,0,0,2.872-3.581Zm-36.558,9.475.634,4.134,1.489-.23-.636-4.132Zm20.308,10.13-16.863-11.46-.847,1.246,16.863,11.46Zm-19.375-9.514,2.279-.595-.378-1.456-2.281.593Zm.555-.828-2.015-15.214-1.492.2,2.015,15.214Z" transform="translate(-1818.245 -1292.777)"/>
      <line id="Path-27" data-name="Path" x1="11.724" y1="9.417" transform="translate(450.069 333.32)" fill="none" stroke="#012c44" stroke-linecap="round" stroke-width="3"/>
      <line id="Path-28" data-name="Path" x1="5.977" y1="4.742" transform="translate(457.787 331.394)" fill="none" stroke="#012c44" stroke-linecap="round" stroke-width="3"/>
      <line id="Path-29" data-name="Path" x1="7.781" y1="0.499" transform="translate(444.827 318.099)" fill="none" stroke="#012c44" stroke-linecap="round" stroke-width="3"/>
      <path id="Path-30" data-name="Path" d="M2331.71,1674.793a13.055,13.055,0,0,0-3.03-7.713" transform="translate(-1890.562 -1353.412)" fill="none" stroke="#012c44" stroke-linecap="round" stroke-width="3" fill-rule="evenodd"/>
      <path id="Path-31" data-name="Path" d="M1690.315,943.444c-2.8,1.037-8.965.954-11.505.851,1.69-4.672,6.05-9.322,8.677-11.191,4.915-3.495,8.481-.051,9.227,1.428a6.459,6.459,0,0,1,3.378-1.02c6.47-.534,5.888,3.416,4.789,5.457,6.251,2.983,2.055,8-.824,10.128,1.2.433,3.054,2.294.824,6.283a11.488,11.488,0,0,1-8.558,5.457,7.523,7.523,0,0,1-3.92-4.215c1.951-.516,3.579-1.887,2.569-3.448-1.1-1.7-4.251-.74-5.442-.19C1688.053,949.812,1689.438,945.3,1690.315,943.444Z" transform="translate(-1362.985 -756.325)"/>
      <path id="Path-32" data-name="Path" d="M1669.517,1049.853a2.851,2.851,0,0,0-2.787,1.035c.09.854.3,2.446.4,1.978.134-.583,2.023-.45,5.438-.4,2.734.036,2.817-2.651,2.518-4,.135,1.078.055,3.272-1.349,3.416C1671.99,1052.056,1671.09,1050.3,1669.517,1049.853Z" transform="translate(-1353.178 -851.204)"/>
      <path id="Path-33" data-name="Path" d="M1060.39,952.337l48.133-15.527,13.585,63.648s30-18.8,37.689-20.322c1.9-.376,4.908-.8,4.908-.8l12.458-8.989,26.983-2.608-4.172,8.5h9.3a44.643,44.643,0,0,1,24.861,10.256l72.1,75.206-31.7,25.485-33.253-45.374,36.36,110.637-155.535,11.808,25.028-130.977c-4.125,1.682-14.9,6.248-25.028,11.054-18.321,8.383-29.111-8.927-32.216-18.632Z" transform="translate(-860.939 -760.565)" fill="#ff8073"/>
      <path id="Shape-7" data-name="Shape" d="M1242.256,1065.832l-31.631,2.922m73.4,58.276-3.7-10.659m-3.7-10.657,3.7,10.657m0,0,38.765,42.805m-4.985,5.329,24.066-22.864m-145.433-22.348.254-1.7m3.7-24.768-3.7,24.768m0,0c-5.184,1.656-17.17,4.972-23.634,4.972-8.079,0-14.1.344-19.253-8.252-4.127-6.876-17.077-41.945-23.037-58.62m-12.377,4.642,38.852-13.581m101.753,20.337c-6.152,8.35-16.609,27.762-9.228,38.628,9.228,13.579,32.954,16.295,27.243,40.241s-18.675,36.249-8.568,54.922c5.057,9.345,12.693,18.752,16.932,29.01m-91.305-78.974c1.616,7.388,7.926,24.5,20.246,33.846M1173.9,1239.1l135.146-11.3" transform="translate(-905.029 -849.816)" fill="none" stroke="#012c44" stroke-linecap="round" stroke-width="3" fill-rule="evenodd"/>
      <path id="Path-34" data-name="Path" d="M1153.65,540.959l24.612,30.535a1.545,1.545,0,0,1,1.052-.876Z" transform="translate(-936.65 -439.205)"/>
      <path id="Path-35" data-name="Path" d="M1369.831,816.467l-20.892-24.143.664,4.3,10.6,13.155-13.687-2.922-2.73,2.66Z" transform="translate(-1091.009 -643.268)"/>
      <path id="Path-36" data-name="Path" d="M1021.03,797.534l39.407,10.519,2.317-1.61Z" transform="translate(-828.986 -647.498)"/>
      <path id="Shape-8" data-name="Shape" d="M2174.391,1667.462c-.949,1.182.359,3.448,3.08,4.959-1.065.736-1.921,2.544,0,3.449-1.357,1.035-3.758,2.909-1.065,4.785m-2.015-13.193-5.281,5.28,1.489.973c-.727,1.572-.55,2.238.448,3.19l-1.285,1.353,6.645,2.4m-2.015-13.193,14.138-3.653m-12.123,16.846,16.408-4.142m4.528-14.979,49.435-12.764,3.664,13.193-51.04,12.886" transform="translate(-1761.02 -1338.548)" fill="none" stroke="#012c44" stroke-width="3" fill-rule="evenodd"/>
      <path id="Shape-9" data-name="Shape" d="M2213.21,1696.753l12.885-3.419m-12.885,6.968,14.2-3.549m6.18-5.391,47.066-12.621m-45.882,16.7,45.882-11.833" transform="translate(-1796.821 -1362.878)" fill="none" stroke="#012c44" stroke-width="3" fill-rule="evenodd"/>
      <path id="Path-37" data-name="Path" d="M2145.89,1779.314l4.069-4.424,1.692,1.265a2.443,2.443,0,0,0,.5,3.16l-1.114,1.775Z" transform="translate(-1742.169 -1440.934)"/>
      <path id="Path-38" data-name="Path" d="M2085.587,1634.673l-3.107-8.233,34.657,16.379,2.7,7.983Z" transform="translate(-1690.692 -1320.42)"/>
      <path id="Path-39" data-name="Path" d="M2378.907,1762.868l4.349,7.766-58.66-26.946-1.167-7.369Z" transform="translate(-1886.3 -1409.622)"/>
      <path id="Path-40" data-name="Path" d="M2085.587,1634.673l-3.107-8.233,34.657,16.379,2.7,7.983Z" transform="translate(-1690.692 -1320.42)" fill="none" stroke="#012c44" stroke-width="3" fill-rule="evenodd"/>
      <path id="Path-41" data-name="Path" d="M2378.907,1762.868l4.349,7.766-58.66-26.946-1.167-7.369Z" transform="translate(-1886.3 -1409.622)" fill="none" stroke="#012c44" stroke-width="3" fill-rule="evenodd"/>
    </g>
  </g>
</svg>
