<svg id="Group_652" data-name="Group 652" xmlns="http://www.w3.org/2000/svg" width="42.835" height="42.835" viewBox="0 0 42.835 42.835">
  <path id="Path_16275" data-name="Path 16275" d="M0,0H42.835V42.835H0Z" fill="none"/>
  <path id="Path_16276" data-name="Path 16276" d="M19.848,2c4.849,0,5.454.018,7.357.107a13.148,13.148,0,0,1,4.334.83A8.7,8.7,0,0,1,34.7,4.995a8.76,8.76,0,0,1,2.058,3.163,13.185,13.185,0,0,1,.83,4.334c.084,1.9.107,2.508.107,7.357s-.018,5.454-.107,7.357a13.2,13.2,0,0,1-.83,4.334,9.112,9.112,0,0,1-5.221,5.221,13.185,13.185,0,0,1-4.334.83c-1.9.084-2.508.107-7.357.107s-5.454-.018-7.357-.107a13.2,13.2,0,0,1-4.334-.83,9.112,9.112,0,0,1-5.221-5.221,13.139,13.139,0,0,1-.83-4.334C2.023,25.3,2,24.7,2,19.848s.018-5.454.107-7.357a13.139,13.139,0,0,1,.83-4.334A8.71,8.71,0,0,1,4.995,4.995,8.74,8.74,0,0,1,8.158,2.937a13.139,13.139,0,0,1,4.334-.83C14.394,2.023,15,2,19.848,2Zm0,8.924a8.924,8.924,0,1,0,8.924,8.924A8.924,8.924,0,0,0,19.848,10.924Zm11.6-.446a2.231,2.231,0,1,0-2.231,2.231A2.231,2.231,0,0,0,31.449,10.478Zm-11.6,4.016a5.354,5.354,0,1,1-5.354,5.354A5.354,5.354,0,0,1,19.848,14.494Z" transform="translate(1.57 1.57)" fill="#C9E4CB"/>
</svg>
