<svg xmlns="http://www.w3.org/2000/svg" width="166.447" height="385.852" viewBox="0 0 166.447 385.852">
  <g id="bibliu-tiles" transform="translate(0 0.016)">
    <path id="Path_16240" data-name="Path 16240" d="M48.042,1.151c.591.186,50.834,1.79,50.834,1.79,5.217-1.806.152,49.534,1.469,45.854,4.814-.581-52.793,1.891-52.033,3.022C52.111,53.235,47.519-2.175,48.042,1.151Z" transform="translate(30.869 0)" fill="none" stroke="#1e1e1e" stroke-width="2"/>
    <path id="Path_16241" data-name="Path 16241" d="M1,44.012c2.651-1.334,56.406-1.283,56.237-.236-4.288-1.131-6.23,54.819-3.579,50.649,1.486,2.38-47.424,2.651-50.648,2.549C4.714,93.006,3.144,42.189,1,44.012Z" transform="translate(0 27.58)" fill="#ff8073"/>
    <path id="Path_16242" data-name="Path 16242" d="M1,43.77c0,3.129,56.406-1.283,56.237-.236-3.579,3.366-6.23,54.818-3.579,50.649,1.486,2.38-47.424,2.651-50.648,2.549C4.714,92.764,3.144,41.947,1,43.77Z" transform="translate(0 27.822)" fill="none" stroke="#1e1e1e" stroke-width="2"/>
    <path id="Path_16243" data-name="Path 16243" d="M55.04,54.626c-3.663-2.262,50.007-.81,49.788-4.542,5.345-4.142-1.249,53.772-.946,50.243,4.829,4.693-52.525,3.6-50.868.54C55.394,101.121,57.252,51.772,55.04,54.626Z" transform="translate(34.138 32.093)" fill="none" stroke="#1e1e1e" stroke-width="2"/>
    <path id="Path_16244" data-name="Path 16244" d="M17.11,96c-2.465,3.225,51.121.81,53.856,4.829,0,0,.186,46.9-5.774,47.052,1.688,1.688-48.116-1.3-50.193-1.165C20.386,146.9,20.318,98.245,17.11,96Z" transform="translate(9.195 62.389)" fill="#012c44"/>
    <path id="Path_16245" data-name="Path 16245" d="M17.11,96c-2.465,3.225,51.121.81,53.856,4.829-5.369-3.377.186,46.9-5.774,47.052,1.688,1.688-48.116-1.3-50.193-1.165C20.386,146.9,20.318,98.245,17.11,96Z" transform="translate(9.195 62.389)" fill="none" stroke="#1e1e1e" stroke-width="2"/>
    <path id="Path_16246" data-name="Path 16246" d="M71.2,105.6c-4.744-1.148,44.706-1.029,49.349-2.6-1.165,4.473-1.249,52.81,1.554,52.624-4.154-1.688-57.4,2.937-55.022-2.162C67.533,155.641,68.445,107.1,71.2,105.6Z" transform="translate(43.347 66.986)" fill="#ff8073"/>
    <path id="Path_16247" data-name="Path 16247" d="M71.195,105.6c-4.744-1.148,44.706-1.029,49.349-2.6-1.165,4.473,1.554,56.33,1.554,52.624,0,0-57.4,2.937-55.022-2.162C67.531,155.641,68.443,107.1,71.195,105.6Z" transform="translate(43.349 66.986)" fill="none" stroke="#1e1e1e" stroke-width="2"/>
    <path id="Path_16248" data-name="Path 16248" d="M5.18,152.579c-.861-4.659,49.6-3.224,44.233-3.579,1,4.626,6.095,54.38.236,55.275,0-.288-49.416-5.454-44.436-3.782C2.58,200.678,1.972,150.637,5.18,152.579Z" transform="translate(1.314 97.198)" fill="none" stroke="#1e1e1e" stroke-width="2"/>
    <path id="Path_16249" data-name="Path 16249" d="M56.849,156c-5.318.287,50.294-.287,49.838,2.583-2.651.827-2.009,48.1-4.187,48.792-1.063.742-51.256,2.836-47.052,2.937C54.368,207.662,52.223,159.883,56.849,156Z" transform="translate(34.809 101.796)" fill="none" stroke="#1e1e1e" stroke-width="2"/>
    <path id="Path_16250" data-name="Path 16250" d="M9.391,204.1c-2.347.355,49.18-1.806,49.973-3.005-1.351-2.616,1.975,50.835,1.79,48.961,3.106,3.8-48.589,5.065-47.762.54C8.564,254.038,8.615,200.4,9.391,204.1Z" transform="translate(5.254 131.351)" fill="#012c44"/>
    <path id="Path_16251" data-name="Path 16251" d="M9.391,204.1c-2.347.355,49.18-1.806,49.973-3.005-1.351-2.616,1.975,50.835,1.79,48.961,3.106,3.8-48.589,5.065-47.762.54C8.564,254.038,8.615,200.4,9.391,204.1Z" transform="translate(5.254 131.351)" fill="none" stroke="#1e1e1e" stroke-width="2"/>
  </g>
</svg>
