<svg xmlns="http://www.w3.org/2000/svg" width="319" height="745" viewBox="0 0 319 745">
  <path id="Vector" d="M207.125,69.4c-.268-.148-.268-.18-.259-.312.046-1.025,2.034-7.116,36.983-26.347,19.2-10.608,44.694-23.2,76.13-37.619V.5c-32.508,14.879-58.841,27.872-78.59,38.75-38.768,21.363-39.045,27.626-39.128,29.684a3.92,3.92,0,0,0,.613,2.322,4.634,4.634,0,0,0,1.911,1.678,15.3,15.3,0,0,0,6.8,1.172c15.487,0,46.987-10.206,61.513-15.215,15.145-5.222,30.927-11.255,46.876-17.961V36.389c-16.522,6.96-32.887,13.272-48.568,18.682C233.439,68.13,211.462,71.672,207.125,69.4ZM88.353,735.737c-12.473-11.239,2.154-40.07,40.127-79.1l.055-.057c17.1-19.125,24.317-35.151,22.051-48.989-3.144-19.191-23.115-31.635-46.322-46.046-20.794-12.936-44.38-27.593-57.278-49.53l-.129-.189c-9.893-13.165-11.446-33.282-4.475-58.2,5.631-20.109,16.356-41.685,30.058-62.138a155.33,155.33,0,0,0,134.166-36.34c24.77-22.363,35.134-47.546,24.751-59.843-13.508-15.912-51.176-1.205-72.432,9.017-24.6,11.813-50.852,34.045-73.967,62.613-5.224,6.46-10.17,13.116-14.793,19.846-20.258-4.517-40.4-13.165-60.264-25.913-2.247-1.443-5.427-3.623-8.922-6.115V360c2.4,1.68,4.558,3.14,6.213,4.2,19.916,12.78,40.136,21.552,60.5,26.232-13.869,21.043-24.391,42.783-29.827,62.179-7.276,25.978-5.548,47.186,5.048,61.335,13.443,22.773,37.473,37.709,58.674,50.9,22.282,13.862,41.532,25.839,44.38,43.275,2.071,12.649-4.826,27.634-21.071,45.808-51.657,53.1-50.2,75.328-39.887,84.624,5.168,4.656,13.647,6.951,24.964,6.951,19.647,0,47.819-6.927,81.955-20.494,39.933-15.821,83.971-39.012,128.018-67.221v-5.066c-44.685,28.8-89.435,52.465-129.9,68.5C138.9,741.647,100.854,747.017,88.353,735.737Zm72.783-427.768c48.2-23.093,62.576-14.756,66.515-10.124,8.756,10.313-1.942,34.233-24.344,54.465A150.473,150.473,0,0,1,74.965,387.838C98.893,353.252,131.069,322.4,161.136,307.968ZM27.358,253.184c20.563-21.256,36.16-57.023,42.827-93.609,17.364-2.008,36.715-1.156,58.018,3.525a2.608,2.608,0,0,0,.9.037,2.535,2.535,0,0,0,.849-.272,2.228,2.228,0,0,0,.667-.54A1.956,1.956,0,0,0,131,161.6a1.829,1.829,0,0,0,.042-.8,1.928,1.928,0,0,0-.307-.753,2.17,2.17,0,0,0-.609-.591,2.454,2.454,0,0,0-.817-.34c-21.367-4.7-40.848-5.656-58.4-3.8,3.208-19.674,3.8-39.414,1.156-57.129-3.7-24.781-13.36-42.562-27.941-51.448C31.38,37.135,16.2,31.577,1,27.6v4.287c14.313,3.836,28.459,9.157,40.219,18.035l.2.131c13.517,8.2,22.532,25.011,26.064,48.661,2.635,17.723,2,37.512-1.294,57.17A136.507,136.507,0,0,0,1,182.709v5.542c17.908-14.748,40.313-24.5,64.425-28.044-6.629,35.381-21.718,69.778-41.542,90.272A181.169,181.169,0,0,1,1,270.12V275.2C9.079,269.907,17.918,262.545,27.358,253.184Z" transform="translate(-0.98 -0.5)" fill="#edf0f2"/>
</svg>
