<svg xmlns="http://www.w3.org/2000/svg" width="151.618" height="29.274" viewBox="0 0 151.618 29.274">
  <path id="Path_1" data-name="Path 1" d="M1.845-4.961l16.236-10.7H2.419V-20.5h25.83v4.879L12.136-4.838H28.9V0H1.845ZM33.661,0V-20.5h7.913V0ZM48.3,7.995V-20.5h7.79v3.567q3.444-4.346,10.824-4.346a14.039,14.039,0,0,1,9.368,2.993,9.8,9.8,0,0,1,3.546,7.872,10.085,10.085,0,0,1-3.669,8.1,14.216,14.216,0,0,1-9.492,3.1A16.555,16.555,0,0,1,60.557-.287a10.948,10.948,0,0,1-4.346-2.952V7.995ZM58.179-5.9a9.46,9.46,0,0,0,5.74,1.6,8.754,8.754,0,0,0,5.617-1.64,5.416,5.416,0,0,0,2.05-4.469,5.1,5.1,0,0,0-2.009-4.264,8.824,8.824,0,0,0-5.535-1.558,9.835,9.835,0,0,0-5.781,1.558,4.759,4.759,0,0,0-2.214,4.059v.369A5.213,5.213,0,0,0,58.179-5.9ZM105.616,0,98.359-9.471,92.291-5.207V0H84.378V-21.279h7.913v9.348L103.812-20.5h10.414l-9.84,7.257L114.636,0Zm13.243,0V-20.5h7.913V0Zm11.4-15.539V-20.5h23.206v4.961h-9.225v5.945q0,4.223,5,4.223a16.713,16.713,0,0,0,4.223-.533V-.369a15.971,15.971,0,0,1-6.273.943q-10.865,0-10.865-8.651v-7.462Z" transform="translate(-1.845 21.279)" fill="#C9E4CB"/>
</svg>
