<svg id="Group_651" data-name="Group 651" xmlns="http://www.w3.org/2000/svg" width="42.835" height="42.835" viewBox="0 0 42.835 42.835">
  <path id="Path_16273" data-name="Path 16273" d="M0,0H42.835V42.835H0Z" fill="none"/>
  <path id="Path_16274" data-name="Path 16274" d="M19.848,2C29.9,2,37.7,9.366,37.7,19.313S29.9,36.625,19.848,36.625a19.444,19.444,0,0,1-5.167-.685,1.428,1.428,0,0,0-.953.07l-3.541,1.563a1.428,1.428,0,0,1-2-1.262l-.1-3.177a1.423,1.423,0,0,0-.478-1.017A16.923,16.923,0,0,1,2,19.313C2,9.366,9.794,2,19.848,2ZM9.13,24.376A.847.847,0,0,0,10.36,25.5l5.631-4.273a1.071,1.071,0,0,1,1.29,0l4.171,3.123a2.677,2.677,0,0,0,3.871-.714l5.242-8.317a.849.849,0,0,0-1.23-1.13l-5.631,4.276a1.071,1.071,0,0,1-1.29,0l-4.171-3.123a2.677,2.677,0,0,0-3.871.714L9.13,24.376Z" transform="translate(1.57 1.57)" fill="#C9E4CB"/>
</svg>
