<svg xmlns="http://www.w3.org/2000/svg" width="238.596" height="202.835" viewBox="0 0 238.596 202.835">
  <g id="Group_987" data-name="Group 987" transform="translate(-1461.404 -1358.766)">
    <path id="Shape" d="M25.3,0A12.735,12.735,0,0,1,12.65,12.819,12.735,12.735,0,0,1,0,0" transform="translate(1463.524 1417.559)" fill="none" stroke="#C9E4CB" stroke-linejoin="round" stroke-miterlimit="10" stroke-width="4.24"/>
    <path id="Shape-2" data-name="Shape" d="M101.876,0H26.666A26.658,26.658,0,0,0,0,26.65" transform="translate(1471.621 1360.886)" fill="none" stroke="#012c44" stroke-linejoin="round" stroke-miterlimit="10" stroke-width="4.24"/>
    <path id="Shape-3" data-name="Shape" d="M31.71,62.407c17.513,0,31.71-13.97,31.71-31.2S49.223,0,31.71,0,0,13.97,0,31.2" transform="translate(1499.62 1432.064)" fill="none" stroke="#f6ae9f" stroke-linejoin="round" stroke-miterlimit="10" stroke-width="4.24"/>
    <path id="Shape-4" data-name="Shape" d="M12.65,25.3A12.65,12.65,0,1,0,0,12.65V25.3" transform="translate(1488.825 1378.428)" fill="none" stroke="#f6ae9f" stroke-linejoin="round" stroke-miterlimit="10" stroke-width="4.24"/>
    <path id="Shape-5" data-name="Shape" d="M29.139,14.674A14.57,14.57,0,1,1,14.569,0h28.61" transform="translate(1527.619 1378.428)" fill="none" stroke="#C9E4CB" stroke-linejoin="round" stroke-miterlimit="10" stroke-width="4.24"/>
    <path id="Shape-6" data-name="Shape" d="M0,0V18.551A24.289,24.289,0,0,0,24.291,42.842" transform="translate(1675.709 1480.978)" fill="none" stroke="#89c7aa" stroke-linejoin="round" stroke-miterlimit="10" stroke-width="4.24"/>
    <path id="Shape-7" data-name="Shape" d="M60.721,0A30.36,30.36,0,0,1,30.36,30.36,30.36,30.36,0,0,1,0,0" transform="translate(1602.507 1447.582)" fill="none" stroke="#f6ae9f" stroke-linejoin="round" stroke-miterlimit="10" stroke-width="4.24"/>
    <path id="Shape-8" data-name="Shape" d="M26.312,50.263V13.156A13.156,13.156,0,0,0,0,13.156V18.9" transform="translate(1663.228 1412.499)" fill="none" stroke="#012c44" stroke-linejoin="round" stroke-miterlimit="10" stroke-width="4.24"/>
    <ellipse id="Shape-9" data-name="Shape" cx="9.108" cy="8.939" rx="9.108" ry="8.939" transform="translate(1602.507 1493.459)" fill="none" stroke="#05203d" stroke-linejoin="round" stroke-miterlimit="10" stroke-width="4.24"/>
    <path id="Shape-10" data-name="Shape" d="M0,50.241V12.982a13.156,13.156,0,0,1,26.312,0V50.241A13.156,13.156,0,0,1,0,50.241Z" transform="translate(1619.375 1391.682)" fill="none" stroke="#C9E4CB" stroke-linejoin="round" stroke-miterlimit="10" stroke-width="4.24"/>
    <path id="Shape-11" data-name="Shape" d="M12.65,25.134A12.568,12.568,0,1,0,0,12.567V94.454" transform="translate(1518.51 1451.63)" fill="none" stroke="#012c44" stroke-linejoin="round" stroke-miterlimit="10" stroke-width="4.24"/>
    <path id="Shape-12" data-name="Shape" d="M.387,47.9V0" transform="translate(1536.508 1513.7)" fill="none" stroke="#89c7aa" stroke-linejoin="round" stroke-miterlimit="10" stroke-width="4.24"/>
    <path id="Shape-13" data-name="Shape" d="M.365,0l.02,10.12" transform="translate(1590.157 1529.554)" fill="none" stroke="#f6ae9f" stroke-linejoin="round" stroke-miterlimit="10" stroke-width="4.24"/>
    <path id="Shape-14" data-name="Shape" d="M.365,0l.02,10.12" transform="translate(1573.628 1504.591)" fill="none" stroke="#cfcfaf" stroke-linejoin="round" stroke-miterlimit="10" stroke-width="4.24"/>
    <path id="Shape-15" data-name="Shape" d="M.365,0l.02,10.12" transform="translate(1499.077 1477.942)" fill="none" stroke="#89c7aa" stroke-linejoin="round" stroke-miterlimit="10" stroke-width="4.24"/>
  </g>
</svg>
