<svg xmlns="http://www.w3.org/2000/svg" width="46" height="45" viewBox="0 0 46 45">
  <path id="Path_13" data-name="Path 13" d="M16.6,0a36.1,36.1,0,0,1,4.866,11.835A30.5,30.5,0,0,1,21.6,23.871a31.8,31.8,0,0,1-4.466,11.3A38.365,38.365,0,0,1,8.066,45L1.533,41.122a2.715,2.715,0,0,1-1.2-1.137A3.4,3.4,0,0,1,0,38.581a4.219,4.219,0,0,1,.333-1.337,4.326,4.326,0,0,1,.8-1.137,15.007,15.007,0,0,0,1.6-2.206,20.437,20.437,0,0,0,1.6-3.276,21.857,21.857,0,0,0,1.133-4.079A18.559,18.559,0,0,0,5.8,21.8a22.252,22.252,0,0,0-.933-5.215,21.485,21.485,0,0,0-2.6-5.55Q.8,8.692,1.467,7.021A4.492,4.492,0,0,1,4.2,4.614ZM40.465,0a36.1,36.1,0,0,1,4.867,11.835,30.5,30.5,0,0,1,.133,12.036A31.8,31.8,0,0,1,41,35.171,38.364,38.364,0,0,1,31.932,45L25.4,41.122a2.715,2.715,0,0,1-1.2-1.137,3.4,3.4,0,0,1-.333-1.4,4.22,4.22,0,0,1,.333-1.337,4.326,4.326,0,0,1,.8-1.137A15,15,0,0,0,26.6,33.9a20.436,20.436,0,0,0,1.6-3.276,21.858,21.858,0,0,0,1.133-4.079,18.558,18.558,0,0,0,.333-4.747,22.253,22.253,0,0,0-.933-5.215,21.487,21.487,0,0,0-2.6-5.55q-1.467-2.34-.8-4.012a4.492,4.492,0,0,1,2.733-2.407Z" fill="#ff8073"/>
</svg>
