<svg xmlns="http://www.w3.org/2000/svg" width="114.518" height="24" viewBox="0 0 114.518 24">
  <g id="Group_760" data-name="Group 760" transform="translate(-881 -5002)">
    <g id="Group_31" data-name="Group 31" transform="translate(881 5002)">
      <path id="Path_17" data-name="Path 17" d="M0,0H24V24H0Z" fill="none"/>
      <path id="Path_18" data-name="Path 18" d="M12,18.26,4.947,22.208,6.522,14.28.587,8.792,8.614,7.84,12,.5l3.386,7.34,8.027.952L17.478,14.28l1.575,7.928Z" fill="#ffbf6b"/>
    </g>
    <g id="Group_32" data-name="Group 32" transform="translate(911.173 5002)">
      <path id="Path_17-2" data-name="Path 17" d="M0,0H24V24H0Z" fill="none"/>
      <path id="Path_18-2" data-name="Path 18" d="M12,18.26,4.947,22.208,6.522,14.28.587,8.792,8.614,7.84,12,.5l3.386,7.34,8.027.952L17.478,14.28l1.575,7.928Z" fill="#ffbf6b"/>
    </g>
    <g id="Group_33" data-name="Group 33" transform="translate(941.345 5002)">
      <path id="Path_17-3" data-name="Path 17" d="M0,0H24V24H0Z" fill="none"/>
      <path id="Path_18-3" data-name="Path 18" d="M12,18.26,4.947,22.208,6.522,14.28.587,8.792,8.614,7.84,12,.5l3.386,7.34,8.027.952L17.478,14.28l1.575,7.928Z" fill="#ffbf6b"/>
    </g>
    <g id="Group_34" data-name="Group 34" transform="translate(971.518 5002)">
      <path id="Path_17-4" data-name="Path 17" d="M0,0H24V24H0Z" fill="none"/>
      <path id="Path_18-4" data-name="Path 18" d="M12,18.26,4.947,22.208,6.522,14.28.587,8.792,8.614,7.84,12,.5l3.386,7.34,8.027.952L17.478,14.28l1.575,7.928Z" fill="#ffbf6b"/>
    </g>
  </g>
</svg>
