<svg xmlns="http://www.w3.org/2000/svg" width="259" height="152.362" viewBox="0 0 259 152.362">
  <g id="Group_28" data-name="Group 28" opacity="0.666">
    <path id="Path_260" data-name="Path 260" d="M0,0H259V152.362H0Z" fill="none"/>
    <path id="Path_261" data-name="Path 261" d="M20.083,139.7C8.968,127.891,3,114.65,3,93.185,3,55.414,29.515,21.561,68.074,4.823l9.637,14.871c-35.99,19.468-43.026,44.731-45.832,60.66,5.8-3,13.382-4.047,20.817-3.356C72.164,78.8,87.51,94.782,87.51,114.65a37.771,37.771,0,0,1-37.771,37.771A41.775,41.775,0,0,1,20.083,139.7ZM128,139.7c-11.115-11.806-17.083-25.047-17.083-46.512,0-37.771,26.515-71.624,65.074-88.362L185.628,19.7C149.637,39.162,142.6,64.425,139.8,80.354c5.8-3,13.382-4.047,20.817-3.356,19.468,1.8,34.814,17.785,34.814,37.652a37.771,37.771,0,0,1-37.771,37.771A41.775,41.775,0,0,1,128,139.7Z" transform="translate(29.375 -4.775)" fill="#fff"/>
  </g>
</svg>
