<svg xmlns="http://www.w3.org/2000/svg" width="385.852" height="166.447"><path data-name="Path 16240" d="M384.684 78.911c-.186.591-1.79 50.834-1.79 50.834 1.806 5.217-49.534.152-45.854 1.469.581 4.814-1.891-52.793-3.022-52.033-1.418 3.799 53.992-.793 50.666-.27z" fill="none" stroke="#1e1e1e" stroke-width="2"/><path data-name="Path 16241" d="M314.243 1c1.334 2.651 1.283 56.406.236 56.237 1.131-4.288-54.819-6.23-50.649-3.579-2.38 1.486-2.651-47.424-2.549-50.648 3.968 1.704 54.785.134 52.962-2.01z" fill="#fff"/><path data-name="Path 16242" d="M314.243 1c-3.129 0 1.283 56.406.236 56.237-3.366-3.579-54.818-6.23-50.649-3.579-2.38 1.486-2.651-47.424-2.549-50.648 3.968 1.704 54.785.134 52.962-2.01z" fill="none" stroke="#1e1e1e" stroke-width="2"/><path data-name="Path 16243" d="M299.116 89.178c2.262-3.663.81 50.007 4.542 49.788 4.142 5.345-53.772-1.249-50.243-.946-4.693 4.829-3.6-52.525-.54-50.868-.254 2.38 49.095 4.238 46.241 2.026z" fill="none" stroke="#1e1e1e" stroke-width="2"/><path data-name="Path 16244" d="M227.446 26.305c-3.225-2.465-.81 51.121-4.829 53.856 0 0-46.9.186-47.052-5.774-1.688 1.688 1.3-48.116 1.165-50.193-.184 5.387 48.471 5.319 50.716 2.111z" fill="#012c44"/><path data-name="Path 16245" d="M227.446 26.305c-3.225-2.465-.81 51.121-4.829 53.856 3.377-5.369-46.9.186-47.052-5.774-1.688 1.688 1.3-48.116 1.165-50.193-.184 5.387 48.471 5.319 50.716 2.111z" fill="none" stroke="#1e1e1e" stroke-width="2"/><path data-name="Path 16246" d="M213.249 114.547c1.148-4.744 1.029 44.706 2.6 49.349-4.473-1.165-52.81-1.249-52.624 1.554 1.688-4.154-2.937-57.4 2.162-55.022-2.179.452 46.362 1.364 47.862 4.119z" fill="#fff"/><path data-name="Path 16247" d="M213.249 114.544c1.148-4.744 1.029 44.706 2.6 49.349-4.473-1.165-56.33 1.554-52.624 1.554 0 0-2.937-57.4 2.162-55.022-2.179.455 46.362 1.367 47.862 4.119z" fill="none" stroke="#1e1e1e" stroke-width="2"/><path data-name="Path 16248" d="M136.058 6.494c4.659-.861 3.224 49.6 3.579 44.233-4.626 1-54.38 6.095-55.275.236.288 0 5.454-49.416 3.782-44.436-.185-2.633 49.856-3.241 47.914-.033z" fill="none" stroke="#1e1e1e" stroke-width="2"/><path data-name="Path 16249" d="M128.039 91.658c-.287-5.318.287 50.294-2.583 49.838-.827-2.651-48.1-2.009-48.792-4.187-.742-1.063-2.836-51.256-2.937-47.052 2.65-1.08 50.429-3.225 54.312 1.401z" fill="none" stroke="#1e1e1e" stroke-width="2"/><path data-name="Path 16250" d="M50.384 14.645c-.355-2.347 1.806 49.18 3.005 49.973 2.616-1.351-50.835 1.975-48.961 1.79-3.8 3.106-5.065-48.589-.54-47.762-3.442-4.828 50.196-4.777 46.496-4.001z" fill="#012c44"/><path data-name="Path 16251" d="M50.384 14.645c-.355-2.347 1.806 49.18 3.005 49.973 2.616-1.351-50.835 1.975-48.961 1.79-3.8 3.106-5.065-48.589-.54-47.762-3.442-4.828 50.196-4.777 46.496-4.001z" fill="none" stroke="#1e1e1e" stroke-width="2"/></svg>